<?xml version="1.0" standalone="no"?>
<!DOCTYPE svg PUBLIC "-//W3C//DTD SVG 1.1//EN" "http://www.w3.org/Graphics/SVG/1.1/DTD/svg11.dtd" >
<svg xmlns="http://www.w3.org/2000/svg" xmlns:xlink="http://www.w3.org/1999/xlink" version="1.1">
<metadata>
Created by FontForge 20170731 at Mon Apr 16 12:22:50 2007
 By Aleksey,,,
Copyright (c) 2002, 2006 Parachute :, www.parachute.gr.  All rights reserved.
</metadata>
<defs>
<font id="PFBeauSansPro-Bold" horiz-adv-x="653" >
  <font-face 
    font-family="PF BeauSans Pro"
    font-weight="700"
    font-stretch="normal"
    units-per-em="1000"
    panose-1="2 0 8 0 0 0 0 2 0 4"
    ascent="750"
    descent="-250"
    x-height="525"
    cap-height="701"
    bbox="-168.333 -314 1350 967.4"
    underline-thickness="50"
    underline-position="-200"
    unicode-range="U+0020-E0FF"
  />
<missing-glyph horiz-adv-x="453" 
d="M0 700h453v-700h-453v700zM336 80l-109 197l-109 -197h218zM336 620h-219l110 -195zM80 164l102 186l-102 188v-374zM374 164v373l-103 -187z" />
    <glyph glyph-name="fj" unicode="fj" horiz-adv-x="630" 
d="M565 76q0 -72 -15.5 -122t-42 -84.5t-61.5 -55.5t-75 -34q-14 -5 -20 -3.5t-10 11.5l-33 86q-5 13 -2 17.5t14 10.5q30 15 49.5 32t30.5 38t15 46t4 57v341h-174v-398q0 -12 -5 -15t-15 -3h-104q-11 0 -16 3t-5 16v397h-71q-12 0 -14.5 4.5t-2.5 12.5v57q0 9 3 13.5
t14 7.5l71 17v33q0 36 9.5 69.5t33.5 60t66 42.5t107 16q24 -1 72 -4.5t105 -18.5q8 -2 11.5 -7t1.5 -16l-15 -70q-2 -8 -6 -12t-15 -2q-40 7 -72.5 9.5t-53.5 2.5q-56 0 -77.5 -20.5t-21.5 -56.5v-29h299q14 0 17.5 -3.5t3.5 -14.5v-431z" />
    <glyph glyph-name="ffj" unicode="ffj" horiz-adv-x="919" 
d="M544 525h288q14 0 17.5 -4t3.5 -15v-431q0 -71 -15.5 -121t-41.5 -84t-61 -55.5t-75 -34.5q-11 -3 -18.5 -3t-11.5 12l-34 86q-5 11 -2.5 15.5t14.5 11.5q30 15 49.5 32.5t31 38t15.5 45.5t4 56v342h-164v-399q0 -11 -4.5 -14t-14.5 -3h-105q-10 0 -15 3t-5 15v398h-157
v-399q0 -11 -5 -14t-15 -3h-104q-11 0 -16 3t-5 15v398h-71q-12 0 -14.5 4t-2.5 12v57q0 9 3 13.5t14 7.5l71 17v31q0 35 9.5 67.5t34 57t66.5 39.5t107 15q22 0 63 -3t89 -14q25 17 61.5 26.5t87.5 9.5q23 0 68.5 -3.5t96.5 -17.5q17 -4 14 -19l-15 -75q-2 -11 -8 -12.5
t-14 -0.5q-35 4 -66.5 7t-47.5 3q-57 0 -78.5 -20.5t-21.5 -56.5v-36zM243 525h157v43q0 12 1 24.5t3 23.5l-75 3q-50 -2 -68 -20t-18 -51v-23z" />
    <glyph glyph-name="ff" unicode="ff" horiz-adv-x="716" 
d="M698 632q-2 -8 -6.5 -10t-13.5 0q-17 3 -36 5t-32 2q-33 0 -43.5 -14t-10.5 -33v-57h119q10 0 13 -3t3 -13v-77q0 -8 -3 -12t-14 -4h-118v-398q0 -12 -5 -15t-15 -3h-104q-11 0 -16 3t-5 16v397h-166v-398q0 -12 -5 -15t-15 -3h-104q-11 0 -16 3t-5 16v397h-71
q-12 0 -14.5 4.5t-2.5 12.5v57q0 9 3 13.5t14 7.5l71 17v26q0 36 9.5 69t33.5 58.5t66 40.5t107 15q20 -1 60 -3.5t88 -12.5q40 32 110 32q7 0 21.5 -0.5t32.5 -2.5t37.5 -5t37.5 -9q11 -3 12 -7.5t-1 -12.5zM245 525h166v54q0 9 0.5 17.5t1.5 16.5q-20 4 -39 5.5t-30 1.5
q-56 0 -77.5 -19t-21.5 -51v-25z" />
    <glyph glyph-name="fi" unicode="fi" horiz-adv-x="630" 
d="M565 18q0 -11 -4 -14.5t-18 -3.5h-103q-11 0 -16 3.5t-5 14.5v398h-174v-398q0 -12 -5 -15t-15 -3h-104q-11 0 -16 3t-5 16v397h-71q-12 0 -14.5 4.5t-2.5 12.5v57q0 9 3 13.5t14 7.5l71 17v32q0 36 9.5 70t33.5 60t66 42t107 16q24 -1 72 -4.5t105 -18.5q8 -2 11.5 -7
t1.5 -16l-15 -70q-2 -8 -6 -12t-15 -2q-40 7 -72.5 9.5t-53.5 2.5q-56 0 -77.5 -20.5t-21.5 -56.5v-28h299q14 0 17.5 -4t3.5 -14v-489v0z" />
    <glyph glyph-name="fl" unicode="fl" horiz-adv-x="685" 
d="M245 18q0 -12 -5 -15t-15 -3h-104q-11 0 -16 3t-5 16v399h-71q-12 0 -14.5 4.5t-2.5 11.5v56q0 9 3 13.5t14 7.5l71 17v33q0 36 9.5 69.5t33.5 60t66 42.5t107 16q22 -1 64.5 -4t91.5 -14l79 16q11 1 16 -3t5 -15v-569q0 -26 7.5 -36t30.5 -10q8 0 18.5 0.5t17.5 1.5
q10 2 12.5 0.5t4.5 -10.5l10 -78q2 -10 -1 -13.5t-14 -8.5q-21 -8 -51.5 -12t-53.5 -4q-30 0 -53.5 6.5t-39.5 22.5t-24.5 42.5t-8.5 67.5v493q-25 4 -47 5.5t-36 1.5q-56 0 -77.5 -19.5t-21.5 -55.5v-29h112q12 0 14 -4t2 -12v-72q0 -10 -2 -14.5t-14 -4.5h-112v-400z" />
    <glyph glyph-name="ffi" unicode="ffi" horiz-adv-x="919" 
d="M728 0q-11 0 -15.5 3t-4.5 14v399h-164v-399q0 -11 -4.5 -14t-14.5 -3h-105q-10 0 -15 3t-5 15v398h-157v-399q0 -11 -5 -14t-15 -3h-104q-11 0 -16 3t-5 15v398h-71q-12 0 -14.5 4t-2.5 12v57q0 9 3 13.5t14 7.5l71 17q0 23 0.5 32t0.5 16q0 33 11 62.5t36.5 51t67 34.5
t101.5 13q22 0 63 -3.5t89 -14.5q25 17 61.5 27t87.5 10q26 -1 70 -5t95 -16q17 -4 14 -19l-16 -80q-2 -9 -7 -10t-14 1q-35 5 -66.5 8t-47.5 3q-57 0 -78.5 -20.5t-21.5 -56.5v-35h288q14 0 17.5 -4t3.5 -15v-489q0 -11 -3.5 -14t-17.5 -3h-104zM243 525h157v42q0 12 1 24
t3 23q-11 2 -27 3t-46 1q-51 0 -69.5 -19.5t-18.5 -51.5v-22z" />
    <glyph glyph-name="ffl" unicode="ffl" horiz-adv-x="967" 
d="M709 629q-20 3 -39 5t-33 2q-51 0 -70.5 -19.5t-19.5 -55.5v-36h95q12 0 14 -4.5t2 -12.5v-74q0 -9 -2 -13.5t-14 -4.5h-98v-399q0 -11 -4.5 -14t-14.5 -3h-105q-10 0 -15 3t-5 15v398h-157v-399q0 -11 -5 -14t-15 -3h-104q-11 0 -16 3t-5 15v398h-71q-12 0 -14.5 4
t-2.5 12v57q0 9 3 13.5t14 7.5l71 17q0 23 0.5 32.5t0.5 16.5q0 33 11 62.5t36.5 51.5t67 35t101.5 13q22 -1 63 -4t89 -14q26 18 61.5 27t93.5 9q10 0 28 -1t38 -3.5t41.5 -5.5t39.5 -6l64 13q10 2 15.5 -1t5.5 -16v-577q0 -26 7.5 -36t29.5 -10q8 0 18.5 0.5t18.5 1.5
t11.5 -0.5t5.5 -11.5l9 -76q2 -10 -1 -13.5t-13 -8.5q-22 -8 -52 -11.5t-53 -3.5q-30 0 -53.5 6.5t-39.5 22t-24.5 42t-8.5 67.5v501zM243 525h157v44q0 12 1 24t3 23q-22 2 -39 3t-36 1q-50 -2 -68 -20.5t-18 -50.5v-24z" />
    <glyph glyph-name="ft" unicode="ft" horiz-adv-x="737" 
d="M725 26q1 -7 0.5 -11.5t-11.5 -8.5q-37 -11 -74 -14t-63 -3q-85 0 -122 36.5t-37 107.5v285h-173v-400q0 -12 -5 -15t-16 -3h-104q-10 0 -15.5 3t-5.5 16v399h-73q-11 0 -13 4.5t-2 11.5v56q0 9 3.5 13.5t14.5 7.5l70 16v67q0 69 38.5 113t124.5 44h21t31 -1.5t35.5 -4.5
t35.5 -8q11 -4 12 -8.5t-1 -12.5l-16 -83q-2 -9 -6.5 -11t-13.5 0q-17 3 -33 4t-28 1q-34 0 -44 -13.5t-10 -32.5v-56h175l8 86q1 11 6 16t16 8l92 30q9 2 15 -1.5t6 -15.5v-123h109q12 0 14 -4.5t2 -12.5v-71q0 -10 -1.5 -14.5t-14.5 -4.5h-109v-254q0 -29 14 -40t43 -11
q15 0 38.5 2.5t37.5 4.5q15 3 16 -10l13 -84v0z" />
    <glyph glyph-name=".notdef" horiz-adv-x="453" 
d="M0 700h453v-700h-453v700zM336 80l-109 197l-109 -197h218zM336 620h-219l110 -195zM80 164l102 186l-102 188v-374zM374 164v373l-103 -187z" />
    <glyph glyph-name=".null" horiz-adv-x="0" 
 />
    <glyph glyph-name="nonmarkingreturn" horiz-adv-x="333" 
 />
    <glyph glyph-name="space" unicode=" " horiz-adv-x="287" 
 />
    <glyph glyph-name="exclam" unicode="!" horiz-adv-x="301" 
d="M203 246q0 -12 -5.5 -15.5t-17.5 -3.5h-60q-14 0 -18.5 3.5t-5.5 14.5l-22 434q-1 10 4 15.5t19 5.5h106q16 0 20 -6.5t3 -14.5zM241 77q0 -36 -26 -61.5t-64 -25.5t-64 25t-26 62q0 18 7 34t19.5 27.5t29 18.5t34.5 7q38 0 64 -25t26 -62z" />
    <glyph glyph-name="quotedbl" unicode="&#x22;" horiz-adv-x="480" 
d="M387 417q-1 -12 -6 -15t-18 -3h-53q-13 0 -18 3t-6 14l-24 263q-2 22 24 22h102q17 0 20.5 -6.5t2.5 -15.5zM192 417q-1 -12 -6 -15t-17 -3h-53q-14 0 -18.5 3t-5.5 14l-24 263q-3 22 23 22h102q17 0 20.5 -6.5t2.5 -15.5z" />
    <glyph glyph-name="numbersign" unicode="#" 
d="M597 381q-2 -10 -5.5 -13t-11.5 -3h-78l-29 -141h79q14 0 11 -17l-13 -54q-2 -9 -5.5 -12t-10.5 -3h-78l-27 -124q-2 -8 -4.5 -11t-13.5 -3h-64q-8 0 -12 2.5t-2 12.5l26 123h-117l-26 -124q-2 -8 -4.5 -11t-13.5 -3h-63q-9 0 -13 2.5t-2 12.5l26 123h-76q-16 0 -12 15
l11 56q2 8 4.5 11.5t13.5 3.5h76l29 141h-77q-10 0 -12.5 4t-0.5 12l12 54q2 7 4.5 11.5t13.5 4.5h78l27 124q2 8 5.5 10.5t14.5 2.5h58q11 0 15 -2.5t2 -13.5l-25 -121h117l26 124q2 8 5.5 10.5t14.5 2.5h58q11 0 14.5 -2.5t1.5 -13.5l-25 -121h79q9 0 11.5 -4.5t0.5 -12.5
zM289 365l-30 -141h117l30 141h-117z" />
    <glyph glyph-name="dollar" unicode="$" 
d="M313 -100q0 -11 -4 -12t-14 -1h-22q-8 0 -12 1t-4 12v94q-45 5 -92 19t-86 38q-12 7 -5 27q2 6 6 16t8.5 21.5t9 22.5t6.5 17q5 10 10 11.5t14 -1.5q27 -12 60.5 -22t68.5 -17v184q-36 16 -67 33t-53.5 38.5t-35.5 49t-13 64.5q-1 68 40 118.5t129 64.5v85q0 11 4 12
t12 1h22q10 0 14 -1t4 -12v-863zM346 763q0 11 4.5 12t13.5 1h18q10 0 14 -1t4 -12v-86q34 -5 69 -14.5t62 -23.5q8 -4 9.5 -10t-3.5 -17l-26 -73q-4 -12 -8 -13.5t-14 0.5q-21 7 -45 12.5t-44 9.5v-164q36 -17 68 -35.5t56 -42.5t38 -54t14 -68q0 -85 -48.5 -131
t-127.5 -58v-95q0 -11 -4 -12t-14 -1h-18q-9 0 -13.5 1t-4.5 12v863zM446 187q0 20 -11 35.5t-35 30.5v-128q23 9 34 25.5t12 36.5zM223 499q0 -16 7.5 -29t26.5 -26v104q-18 -8 -26 -21.5t-8 -27.5z" />
    <glyph glyph-name="percent" unicode="%" horiz-adv-x="970" 
d="M934 203q0 -47 -12 -85t-36 -66t-60 -43t-84 -15q-95 0 -142.5 56.5t-47.5 151.5q0 48 12 86.5t36 66.5t60 43t84 15q97 0 143.5 -57t46.5 -153zM818 202q0 51 -16.5 85t-59.5 34q-41 0 -57.5 -33.5t-16.5 -84.5q0 -25 4 -46.5t13 -37.5t23.5 -25t35.5 -9q41 0 57.5 33.5
t16.5 83.5zM418 470q0 -47 -12 -85t-36 -66t-60 -43t-84 -15q-95 0 -142.5 56.5t-47.5 151.5q0 48 12 86.5t36 66.5t60 43t84 15q97 0 143.5 -57t46.5 -153zM302 469q0 51 -16.5 85t-59.5 34q-41 0 -57.5 -33.5t-16.5 -84.5q0 -25 4 -46.5t13 -37.5t23.5 -25t35.5 -9
q41 0 57.5 33.5t16.5 83.5zM328 -14q-5 -9 -12.5 -13.5t-21.5 -4.5h-51q-11 0 -13.5 5.5t2.5 13.5l414 704q5 8 9 11.5t15 3.5h59q9 0 12.5 -5t-2.5 -15z" />
    <glyph glyph-name="ampersand" unicode="&#x26;" horiz-adv-x="767" 
d="M705 333q1 -8 -2.5 -10.5t-11.5 -4.5q-31 -6 -54 -18t-41 -28t-31.5 -36.5t-24.5 -42.5q16 -18 42 -47t51 -57q29 -33 61 -68q5 -5 3.5 -13t-14.5 -8h-109q-14 0 -24 3t-18 12q-14 14 -25 27l-20 22t-15 17q-37 -40 -86 -66.5t-118 -26.5q-46 0 -83.5 13t-64.5 37
t-41.5 59t-14.5 79q0 36 11.5 68.5t31 60.5t45 51.5t54.5 41.5q-25 29 -43.5 66.5t-18.5 76.5t15 71t40.5 54t60 34t72.5 12q39 0 72.5 -11t58 -31.5t38.5 -49.5t14 -65q0 -35 -11 -63.5t-28 -51.5t-39 -41.5t-44 -32.5q18 -24 33 -41t31 -35q27 45 66.5 80.5t92.5 49.5
q33 10 61 11q8 0 10.5 -2.5t4.5 -8.5zM279 114q15 0 30.5 5t30 14t27.5 20.5t22 24.5q-27 32 -52.5 63t-51.5 63q-34 -22 -58.5 -51.5t-24.5 -67.5q0 -30 17.5 -50.5t59.5 -20.5zM383 539q0 21 -13 38t-37 17q-26 0 -41 -15t-15 -39q0 -22 13 -44t30 -41q23 14 43 35.5
t20 48.5z" />
    <glyph glyph-name="quotesingle" unicode="'" horiz-adv-x="285" 
d="M192 417q-1 -12 -6 -15t-17 -3h-53q-14 0 -18.5 3t-5.5 14l-24 263q-2 22 23 22h102q17 0 20.5 -6.5t2.5 -15.5z" />
    <glyph glyph-name="parenleft" unicode="(" horiz-adv-x="349" 
d="M317 -15q11 -15 -4 -25l-53 -38q-10 -8 -15.5 -5.5t-14.5 12.5q-37 39 -70 81t-58 90t-39.5 102.5t-14.5 117.5q0 64 14.5 120.5t39 107t57.5 94t70 82.5q10 11 15.5 10.5t15.5 -8.5l53 -36q8 -6 9 -9.5t-5 -11.5q-60 -78 -91 -160t-31 -183q0 -53 8 -98.5t23.5 -86.5
t38 -79.5t52.5 -76.5z" />
    <glyph glyph-name="parenright" unicode=")" horiz-adv-x="357" 
d="M53 -16q30 39 53 78t38.5 80t23 85.5t7.5 95.5q0 53 -8 99t-23.5 88t-38 81t-52.5 78q-6 8 -5 11.5t9 8.5l53 37q11 8 16.5 8.5t14.5 -9.5q37 -39 69.5 -83t57.5 -94t39.5 -106t14.5 -119q0 -64 -14.5 -119t-39 -103t-57.5 -90.5t-70 -80.5q-9 -11 -14.5 -13t-16.5 5
l-53 37q-15 12 -4 25z" />
    <glyph glyph-name="asterisk" unicode="*" horiz-adv-x="507" 
d="M436 532q5 -20 -12 -21l-112 -27q5 -5 16 -16.5t22.5 -24.5t22 -25t15.5 -17q8 -9 6 -15t-11 -13l-49 -36q-11 -8 -15 -6.5t-10 12.5l-59 98l-56 -99q-6 -11 -12 -11.5t-15 6.5q-4 3 -11 8t-14.5 11t-14.5 11t-11 8q-8 7 -9.5 12t6.5 13l76 86l-108 27q-11 3 -13.5 6
t1.5 17l18 57q6 21 23 12l105 -46l-12 113q-3 17 20 17h62q11 0 14.5 -3t1.5 -14l-11 -115l101 46q11 5 16.5 1.5t8.5 -14.5z" />
    <glyph glyph-name="plus" unicode="+" 
d="M580 305q0 -12 -3.5 -16.5t-14.5 -4.5h-168v-176q0 -11 -3.5 -14.5t-17.5 -3.5h-93q-11 0 -16 3.5t-5 14.5v176h-168q-11 0 -14.5 4.5t-3.5 16.5v77q0 14 3.5 18t14.5 4h168v176q0 11 5 14.5t16 3.5h93q14 0 17.5 -3.5t3.5 -14.5v-176h168q11 0 14.5 -4t3.5 -18v-77v0z
" />
    <glyph glyph-name="comma" unicode="," horiz-adv-x="282" 
d="M163 -113q-3 -11 -7 -14.5t-15 -3.5h-54q-24 0 -23 17l12 256q1 11 5.5 16.5t18.5 5.5h114q17 0 20 -6.5t1 -15.5z" />
    <glyph glyph-name="hyphen" unicode="-" horiz-adv-x="397" 
d="M341 251q0 -11 -3.5 -16t-14.5 -5h-254q-11 0 -14.5 5t-3.5 16v90q0 13 3.5 17t14.5 4h254q11 0 14.5 -4t3.5 -17v-90v0z" />
    <glyph glyph-name="period" unicode="." horiz-adv-x="298" 
d="M243 78q0 -38 -26.5 -64t-65.5 -26q-19 0 -36 7t-29.5 19t-20 28.5t-7.5 35.5t7.5 35.5t20 28.5t29.5 19t36 7q39 0 65.5 -26t26.5 -64z" />
    <glyph glyph-name="slash" unicode="/" horiz-adv-x="461" 
d="M140 -79q-4 -10 -10.5 -13.5t-21.5 -3.5h-80q-22 0 -16 18l313 840q3 9 8.5 12.5t19.5 3.5h84q9 0 14 -3.5t1 -14.5z" />
    <glyph glyph-name="zero" unicode="0" 
d="M612 337q0 -78 -17.5 -142t-53.5 -110t-90 -71t-126 -25t-125.5 24.5t-89 70t-53 109.5t-17.5 142q0 79 18 143t54 110t89.5 71t125.5 25q73 0 126.5 -24.5t89 -70t52.5 -109.5t17 -143zM463 335q0 49 -7.5 90.5t-24 71.5t-42.5 47t-64 17t-63.5 -16.5t-41.5 -46.5
t-23 -71t-7 -90q0 -48 7 -89t23 -71.5t42.5 -47.5t64.5 -17t64 17t42 47t23 70.5t7 88.5z" />
    <glyph glyph-name="one" unicode="1" 
d="M535 20q0 -11 -3.5 -15.5t-14.5 -4.5h-366q-11 0 -14.5 4.5t-3.5 15.5v79q0 14 3.5 17t14.5 3h106v420l-106 -18q-12 -2 -16 1.5t-4 14.5v73q0 9 2.5 15t15.5 10l166 45q17 5 33 5.5t28 -5t19 -17.5t7 -31v-513h115q11 0 14.5 -3t3.5 -17v-79v0z" />
    <glyph glyph-name="two" unicode="2" 
d="M570 20q0 -11 -3.5 -15.5t-14.5 -4.5h-391q-44 0 -67.5 18.5t-23.5 74.5q0 37 25.5 80t69.5 85q41 40 85 71t77 52q29 18 47.5 32.5t29 27t14.5 24.5t4 26q0 12 -5 24t-16 21t-29.5 15t-46.5 6q-38 0 -76.5 -12.5t-79.5 -39.5q-8 -5 -15 -5t-13 8l-46 70q-10 16 4 26
q107 80 238 80q50 0 93 -11.5t75 -35t50 -58.5t18 -82q0 -37 -12 -67.5t-34 -56t-51.5 -47t-65.5 -42.5q-25 -14 -51 -32.5t-49.5 -39.5t-43 -44.5t-29.5 -48.5h315q11 0 14.5 -3t3.5 -17v-79v0z" />
    <glyph glyph-name="three" unicode="3" 
d="M447 354q65 -17 93.5 -60.5t28.5 -94.5q0 -48 -19.5 -87t-54 -66.5t-83.5 -42t-107 -14.5q-70 0 -129 16t-107 54q-8 8 -8.5 12.5t4.5 13.5l44 72q7 11 13.5 12.5t19.5 -6.5q36 -26 77 -36.5t76 -10.5q60 0 91.5 27.5t31.5 75.5q0 32 -26 56.5t-81 24.5h-26q-24 0 -30 6
t-6 27v40q0 23 5.5 29.5t22.5 6.5h29q47 0 72.5 22t25.5 56q0 19 -8 32t-21.5 21t-30.5 12t-35 4q-35 0 -75.5 -11t-74.5 -34q-13 -8 -19.5 -7t-12.5 12l-40 67q-6 9 -6 14.5t8 12.5q24 19 52.5 33t59 23t61.5 13.5t60 4.5q45 0 86.5 -9.5t73.5 -30.5t51 -54.5t19 -80.5
q0 -24 -7.5 -47t-21.5 -43t-33.5 -35.5t-42.5 -24.5v-5z" />
    <glyph glyph-name="four" unicode="4" 
d="M617 153q0 -11 -5 -15t-16 -4h-65v-115q0 -11 -4 -15t-18 -4h-102q-21 0 -21 19v114h-280q-12 0 -23.5 2t-20 8t-14 17t-5.5 29v25q0 19 5.5 38.5t19.5 36.5l270 346q7 9 15 18t18.5 16.5t24 12t31.5 4.5h48q31 0 43.5 -14t12.5 -49v-372h64q11 0 16.5 -3t5.5 -17v-78z
M385 493l-4 3l-189 -241l2 -5h191v243z" />
    <glyph glyph-name="five" unicode="5" 
d="M591 228q0 -59 -21.5 -104t-59 -75t-88.5 -45.5t-109 -15.5q-65 0 -129.5 13.5t-121.5 59.5q-14 11 -6 24q4 6 11 17t14.5 23t14.5 22.5l11 16.5q7 10 14.5 9.5t19.5 -8.5q37 -26 79.5 -37t80.5 -11q68 0 104.5 28.5t36.5 78.5q0 47 -31 71t-76 24q-22 0 -39 -3
t-32.5 -7.5t-30.5 -11t-31 -13.5q-12 -5 -28 -6.5t-30 3.5l-35 10q-23 8 -30.5 21.5t-5.5 36.5l26 250q4 39 23 56.5t51 17.5h349q13 0 17.5 -3t4.5 -19v-79q0 -13 -5 -17.5t-17 -4.5h-292l-15 -130q33 11 67 14.5t64 3.5q53 0 98 -14.5t77.5 -41.5t51 -66t18.5 -88z" />
    <glyph glyph-name="six" unicode="6" 
d="M610 223q0 -60 -22.5 -104t-60 -73t-86 -43t-100.5 -14q-74 0 -128.5 22t-90.5 63.5t-54 100t-18 130.5q0 81 20 150.5t61.5 121t104.5 80.5t150 29q33 0 72 -4.5t70 -15.5q7 -2 11 -6.5t-1 -20.5l-22 -79q-4 -12 -11 -12.5t-15 1.5q-22 6 -47.5 9.5t-50.5 3.5
q-75 0 -122 -37.5t-62 -108.5q14 4 32.5 7.5t38 6.5t39 4.5t35.5 1.5q53 0 100 -12t82 -38t55 -66t20 -97zM461 218q0 47 -28.5 73.5t-85.5 26.5q-39 0 -72.5 -5.5t-74.5 -16.5v-23q0 -74 38 -117t103 -43q52 0 86 26.5t34 78.5z" />
    <glyph glyph-name="seven" unicode="7" 
d="M522 674q52 0 52 -45v-31q0 -31 -16 -63l-283 -513q-8 -13 -16 -17.5t-25 -4.5h-110q-12 0 -16 8t1 17l291 525h-319q-12 0 -16.5 4.5t-4.5 18.5v77q0 15 4 19.5t17 4.5h441z" />
    <glyph glyph-name="eight" unicode="8" 
d="M480 361q30 -10 50.5 -27.5t34 -39.5t19.5 -46t6 -46q0 -46 -18 -85t-52.5 -67.5t-84.5 -44.5t-114 -16q-63 0 -112.5 15t-84 42t-52.5 65t-18 85q0 27 8 52.5t23 47.5t35 39t44 26v3q-24 9 -40 24t-25.5 32.5t-14 35t-4.5 32.5q0 48 20 85t53.5 62t77.5 38t92 13
q56 0 100.5 -13.5t76 -38t48 -59.5t16.5 -77q0 -15 -4.5 -33.5t-14.5 -37t-26 -35.5t-39 -29v-2zM440 207q0 46 -33.5 71.5t-84.5 25.5t-84.5 -27t-33.5 -72q0 -17 6 -34.5t20 -31t36 -22t55 -8.5q34 0 56.5 9t36.5 23t20 31.5t6 34.5zM419 481q0 33 -23.5 57t-74.5 24
t-73.5 -25.5t-22.5 -58.5q0 -30 26.5 -51.5t68.5 -21.5q44 0 71.5 23t27.5 53z" />
    <glyph glyph-name="nine" unicode="9" 
d="M194 458q0 -47 29.5 -73.5t83.5 -26.5q40 0 73.5 5t72.5 16q2 9 2 14v10q0 36 -11 65.5t-29.5 50.5t-44.5 32.5t-56 11.5q-24 0 -45.5 -7t-38 -20t-26.5 -33t-10 -45zM45 453q0 60 22.5 103.5t60 72.5t85.5 43t100 14q73 0 127.5 -22t91 -63.5t54.5 -100t18 -130.5
q0 -81 -20 -150.5t-61.5 -120.5t-105 -80.5t-150.5 -29.5q-32 0 -70.5 4.5t-69.5 15.5q-7 3 -11.5 7t0.5 20l22 80q3 11 10 12t16 -1q20 -5 47 -9t51 -4q74 0 121.5 37.5t62.5 108.5q-14 -5 -31.5 -8.5t-36.5 -6.5t-38 -4.5t-35 -1.5q-53 0 -100.5 12t-83 38t-56 66.5
t-20.5 97.5z" />
    <glyph glyph-name="colon" unicode=":" horiz-adv-x="298" 
d="M243 434q0 -19 -7 -35t-19.5 -28t-29.5 -19t-36 -7t-36 6.5t-29.5 18.5t-20 28.5t-7.5 35.5t7.5 35t20 28t29.5 19t36 7q39 0 65.5 -25.5t26.5 -63.5zM243 79q0 -19 -7 -35t-19.5 -28t-29.5 -19t-36 -7t-36 6.5t-29.5 18.5t-20 28.5t-7.5 35.5q0 18 7.5 34.5t20 28.5
t29.5 19t36 7q39 0 65.5 -25.5t26.5 -63.5z" />
    <glyph glyph-name="semicolon" unicode=";" horiz-adv-x="296" 
d="M248 434q0 -38 -26.5 -63.5t-65.5 -25.5t-65.5 25.5t-26.5 63.5t26.5 63.5t65.5 25.5t65.5 -25.5t26.5 -63.5zM166 -111q-3 -11 -7 -15.5t-16 -4.5h-53q-25 0 -24 19l13 252q1 11 5.5 17.5t18.5 6.5h114q17 0 19.5 -7.5t0.5 -16.5z" />
    <glyph glyph-name="less" unicode="&#x3c;" 
d="M253 346l302 -139q17 -8 20.5 -14.5t3.5 -22.5v-79q0 -10 -4 -16.5t-19 1.5l-447 210q-17 8 -25.5 16.5t-9.5 21.5v33q0 21 9 29.5t26 16.5l447 211q15 8 19 1t4 -18v-77q0 -14 -3 -20.5t-19 -14.5z" />
    <glyph glyph-name="equal" unicode="=" 
d="M568 404q0 -11 -3.5 -16t-14.5 -5h-447q-19 0 -19 21v77q0 13 3.5 17t15.5 4h447q11 0 14.5 -4t3.5 -17v-77zM569 197q0 -11 -3.5 -16.5t-14.5 -5.5h-448q-19 0 -19 20v79q0 11 3 15t14 4h451q11 0 14 -4.5t3 -15.5v-76z" />
    <glyph glyph-name="greater" unicode="&#x3e;" 
d="M96 485q-15 8 -18 14.5t-3 20.5v77q0 11 4 18t19 -1l446 -211q17 -8 26.5 -16.5t9.5 -29.5v-33q-1 -13 -9.5 -21.5t-26.5 -16.5l-447 -210q-14 -8 -18 -1.5t-4 16.5v79q0 16 3.5 22.5t20.5 14.5l301 139z" />
    <glyph glyph-name="question" unicode="?" horiz-adv-x="579" 
d="M296 707q46 0 88.5 -9.5t75 -30.5t52 -54t19.5 -80q0 -26 -8.5 -48.5t-22 -42.5t-30.5 -38.5t-35 -35.5q-18 -18 -35.5 -34.5t-31 -32.5t-22 -32.5t-8.5 -34.5v-23q0 -8 -3 -11.5t-13 -3.5h-109q-11 0 -13 4.5t-2 12.5v32q0 28 9.5 51.5t24 43.5t32.5 37.5t36 34.5
q26 24 45.5 49t19.5 57q0 23 -20 40.5t-62 17.5q-74 0 -153 -48q-8 -5 -14 -5.5t-12 8.5l-44 77q-4 7 -3.5 12.5t9.5 11.5q27 20 56.5 34t59.5 23t59 13.5t55 4.5zM355 70q0 -37 -26.5 -61.5t-64.5 -24.5t-65 24t-27 62q0 18 7.5 34t20 28t29.5 19t36 7q16 0 32 -5.5
t29 -16.5t21 -27.5t8 -38.5z" />
    <glyph glyph-name="at" unicode="@" horiz-adv-x="982" 
d="M657 254q0 -7 1.5 -16.5t7 -18.5t16 -15t29.5 -6q50 0 74 41.5t24 106.5q0 66 -20.5 120t-59 93t-93 60t-122.5 21q-77 0 -139.5 -24.5t-106.5 -67.5t-68.5 -100t-24.5 -123q0 -69 23 -126t65.5 -98t102 -63.5t133.5 -22.5q25 0 59.5 5.5t72.5 19.5q8 3 13 3t8 -8l21 -57
q3 -8 0.5 -12t-10.5 -9q-18 -9 -40 -16t-44.5 -11t-44 -6t-38.5 -2q-98 0 -176 29.5t-132.5 83t-84 127t-29.5 162.5q0 88 33.5 163t93 129.5t140 85.5t173.5 31q91 0 164 -27t124 -77.5t78.5 -121.5t27.5 -158q0 -56 -15.5 -101t-43.5 -76.5t-67 -48.5t-87 -17
q-50 0 -83 16.5t-44 42.5q-24 -17 -56.5 -28t-64.5 -11q-77 0 -117 32.5t-40 98.5q0 61 41 101.5t126 40.5h84v10q0 10 -2 20t-9 17t-19.5 11.5t-34.5 4.5q-23 0 -52.5 -4t-53.5 -9q-14 -3 -19 -1.5t-7 11.5l-11 53q-3 11 0 15.5t14 9.5q33 10 68.5 15.5t76.5 5.5
q86 0 125.5 -37t39.5 -109v-158zM540 319h-63q-11 0 -22.5 -1.5t-22 -7.5t-17 -16.5t-6.5 -28.5q0 -26 17.5 -35.5t42.5 -9.5q11 0 33 4t38 15v80z" />
    <glyph glyph-name="A" unicode="A" horiz-adv-x="655" 
d="M441 146h-229l-39 -127q-3 -10 -8.5 -14.5t-19.5 -4.5h-117q-11 0 -13.5 6t-0.5 14l208 627q5 17 11.5 27.5t15 16.5t20 8.5t26.5 2.5h60q17 0 29 -1.5t21 -7.5t15.5 -17t12.5 -29l208 -627q2 -6 0 -13t-13 -7h-119q-11 0 -18.5 2.5t-10.5 13.5zM248 270h157l-38 127
l-37 143h-6l-38 -143z" />
    <glyph glyph-name="B" unicode="B" horiz-adv-x="680" 
d="M518 383q28 -11 48.5 -29.5t33.5 -41t19 -48.5t6 -51q0 -48 -18.5 -87t-51 -67t-76 -43.5t-93.5 -15.5h-251q-36 0 -48 14.5t-12 46.5v578q0 32 12 47t48 15h245q45 0 84.5 -10t68.5 -31.5t45.5 -55t16.5 -80.5q0 -42 -21.5 -78.5t-55.5 -55.5v-7zM468 223q0 40 -24.5 65
t-72.5 25h-144v-179h144q28 0 47 8.5t30 21.5t15.5 29t4.5 30zM227 435h136q12 0 25.5 3t24.5 10.5t18 21t7 34.5q0 30 -19 47t-51 17h-141v-133z" />
    <glyph glyph-name="C" unicode="C" horiz-adv-x="643" 
d="M388 127q48 0 85 11.5t69 23.5q14 6 20 2.5t11 -14.5l34 -72q7 -14 5 -21t-11 -12q-54 -33 -113.5 -44.5t-117.5 -11.5q-82 0 -141.5 24.5t-98 70.5t-57 112.5t-18.5 149.5q0 82 23.5 149t65.5 115t101.5 74t131.5 26q51 0 100 -8.5t96 -34.5q11 -6 13 -12t-5 -23
l-31 -69q-5 -14 -10.5 -17t-19.5 2q-36 13 -67 19.5t-69 6.5q-41 0 -72.5 -17.5t-53 -48t-32.5 -72t-11 -90.5t8.5 -89t29 -69t53.5 -45t82 -16z" />
    <glyph glyph-name="D" unicode="D" horiz-adv-x="697" 
d="M135 0q-36 0 -48 14.5t-12 46.5v578q0 32 12 47t48 15h187q88 0 149 -28t99 -75t55 -110.5t17 -133.5q0 -69 -15 -133t-51 -113t-95.5 -78.5t-147.5 -29.5h-198zM485 354q0 46 -8 85t-28.5 67.5t-55.5 45t-88 16.5h-78v-434h81q52 0 86.5 16.5t54.5 45.5t28 69.5t8 88.5z
" />
    <glyph glyph-name="E" unicode="E" horiz-adv-x="613" 
d="M576 23q0 -12 -4 -17.5t-16 -5.5h-296q-56 0 -91.5 16t-56.5 42t-29 59t-8 67v332q0 36 10 69t31.5 59t56.5 41.5t86 15.5h287q12 0 15.5 -5t3.5 -19v-85q0 -13 -4 -17.5t-15 -4.5h-254q-39 0 -52 -18t-13 -44v-77h287q12 0 15.5 -5t3.5 -19v-78q0 -12 -3.5 -17.5
t-15.5 -5.5h-287v-114q0 -35 16.5 -47.5t48.5 -12.5h264q13 0 16.5 -4.5t3.5 -19.5v-85v0z" />
    <glyph glyph-name="F" unicode="F" horiz-adv-x="591" 
d="M227 21q0 -14 -4 -17.5t-19 -3.5h-106q-12 0 -17.5 4.5t-5.5 16.5v495q0 36 9.5 69t31 59t56.5 41.5t87 15.5h292q13 0 16.5 -5t3.5 -19v-85q0 -13 -4.5 -17.5t-15.5 -4.5h-259q-39 0 -52 -17.5t-13 -44.5v-92h284q12 0 15.5 -4.5t3.5 -19.5v-78q0 -12 -4 -17.5t-15 -5.5
h-284v-270v0z" />
    <glyph glyph-name="G" unicode="G" horiz-adv-x="692" 
d="M384 126q19 0 48 2.5t56 12.5l1 148q-35 2 -70 -4t-68 -20q-14 -5 -19.5 -5t-10.5 11l-26 81q-3 8 -2 14t12 11q35 17 82.5 28.5t95.5 11.5q26 0 48 -1.5t39 -5.5q22 -5 35 -14.5t20 -24t9 -33t2 -40.5v-210q0 -14 -4 -25.5t-20 -21.5q-30 -18 -65 -28t-68.5 -15.5
t-62.5 -7t-46 -1.5q-82 0 -141.5 24.5t-98 71t-57 112.5t-18.5 150q0 82 21 149t62.5 114.5t102 73.5t138.5 26q52 0 103 -8.5t98 -34.5q11 -6 13 -12t-6 -23l-31 -71q-5 -14 -10.5 -17t-19.5 2q-36 13 -69.5 19t-71.5 6q-44 0 -76 -17t-53 -47t-31 -71t-10 -90
q0 -50 8 -90.5t27.5 -69t52 -44.5t81.5 -16z" />
    <glyph glyph-name="H" unicode="H" horiz-adv-x="726" 
d="M651 21q0 -13 -4.5 -17t-19.5 -4h-105q-13 0 -18 4.5t-5 16.5v280h-271v-280q0 -13 -4.5 -17t-19.5 -4h-106q-12 0 -17.5 4.5t-5.5 16.5v658q0 12 5.5 16.5t17.5 4.5h106q15 0 19.5 -4t4.5 -17v-249h271v249q0 12 5 16.5t18 4.5h105q15 0 19.5 -4t4.5 -17v-658v0z" />
    <glyph glyph-name="I" unicode="I" horiz-adv-x="329" 
d="M241 21q0 -13 -4.5 -17t-19.5 -4h-106q-12 0 -17.5 4.5t-5.5 16.5v658q0 12 5.5 16.5t17.5 4.5h106q15 0 19.5 -4t4.5 -17v-658v0z" />
    <glyph glyph-name="J" unicode="J" horiz-adv-x="590" 
d="M240 -11q-21 0 -49.5 2.5t-59 8.5t-60 16t-53.5 24q-8 5 -9.5 9t4.5 18l36 82q5 11 9.5 11.5t14.5 -3.5q34 -14 74 -23t80 -9q42 0 68 12t41 34.5t20 54t5 69.5v385q0 14 6 17t17 3h106q13 0 18 -3t5 -17v-410q0 -65 -14.5 -116.5t-46.5 -88.5t-84 -56.5t-128 -19.5z" />
    <glyph glyph-name="K" unicode="K" horiz-adv-x="683" 
d="M436 446l233 -421q7 -11 4 -18t-14 -7h-116q-21 0 -30.5 2.5t-19.5 20.5l-161 299l-106 -127v-174q0 -14 -4 -17.5t-19 -3.5h-105q-12 0 -17.5 4.5t-5.5 16.5v658q0 12 5.5 16.5t17.5 4.5h105q15 0 19 -3.5t4 -17.5v-268l4 -2l94 119l125 156q9 10 18 13t29 3h129
q9 0 12.5 -5.5t-3.5 -13.5z" />
    <glyph glyph-name="L" unicode="L" horiz-adv-x="578" 
d="M260 0q-56 0 -91.5 16t-56.5 42t-29 59t-8 67v496q0 12 5.5 16.5t17.5 4.5h106q15 0 19.5 -4t4.5 -17v-485q0 -38 18.5 -51t48.5 -13h254q11 0 15 -3.5t4 -17.5v-89q0 -21 -19 -21h-289v0z" />
    <glyph glyph-name="M" unicode="M" horiz-adv-x="870" 
d="M651 403h-6l-41 -93l-83 -184q-11 -26 -22.5 -35t-34.5 -9h-55q-25 0 -34.5 9t-21.5 35l-62 130l-62 135h-6v-371q0 -14 -5 -17t-18 -3h-102q-11 0 -17 3t-6 17v611q0 38 14.5 54t49.5 16h58q28 0 41.5 -10.5t25.5 -36.5l109 -244l62 -142h4l68 156l102 228
q12 27 26.5 38t46.5 11h49q32 0 48 -13.5t16 -51.5v-616q0 -14 -5 -17t-18 -3h-99q-11 0 -16.5 3t-5.5 17v383z" />
    <glyph glyph-name="N" unicode="N" horiz-adv-x="744" 
d="M226 435v-414q0 -13 -4.5 -17t-18.5 -4h-105q-12 0 -17.5 4.5t-5.5 16.5v610q0 39 14 54.5t51 15.5h42q15 0 25.5 -1.5t18.5 -6.5t15 -14t16 -23l170 -259l86 -135h5v418q0 12 4.5 16.5t18.5 4.5h105q23 0 23 -21v-611q0 -32 -13 -50.5t-52 -18.5h-42q-15 0 -25.5 1.5
t-18.5 6.5t-15 13.5t-16 22.5l-160 242l-96 149h-5z" />
    <glyph glyph-name="O" unicode="O" horiz-adv-x="730" 
d="M675 352q0 -86 -18.5 -153t-57.5 -114t-98 -71.5t-140 -24.5q-155 0 -230.5 94t-75.5 266q0 84 21.5 151.5t61.5 114t97 71.5t129 25q78 0 136.5 -25t97 -71.5t58 -113t19.5 -149.5zM516 349q0 45 -6.5 86t-23.5 72t-46 49.5t-75 18.5q-38 0 -66.5 -17.5t-47.5 -47.5
t-28 -70t-9 -85q0 -53 7.5 -95t25 -72t46.5 -46t73 -16q43 0 72 18.5t46 49t24.5 71t7.5 84.5z" />
    <glyph glyph-name="P" unicode="P" horiz-adv-x="644" 
d="M227 21q0 -14 -4.5 -17.5t-19.5 -3.5h-105q-12 0 -17.5 4.5t-5.5 16.5v619q0 28 12 44.5t48 16.5h245q54 0 97.5 -16.5t74 -45.5t46.5 -69t16 -88q0 -26 -8 -64.5t-34.5 -75t-77 -62.5t-134.5 -26h-133v-233zM457 472q0 14 -4 30.5t-15.5 31t-31 24t-49.5 9.5h-130v-190
h131q51 0 75 27.5t24 67.5z" />
    <glyph glyph-name="Q" unicode="Q" horiz-adv-x="730" 
d="M675 352q0 -86 -18.5 -153t-57.5 -114t-98 -71.5t-140 -24.5q-155 0 -230.5 94t-75.5 266q0 84 21.5 151.5t61.5 114t97 71.5t129 25q78 0 136.5 -25t97 -71.5t58 -113t19.5 -149.5zM516 349q0 45 -6.5 86t-23.5 72t-46 49.5t-75 18.5q-38 0 -66.5 -17.5t-47.5 -47.5
t-28 -70t-9 -85q0 -53 7.5 -95t25 -72t46.5 -46t73 -16q43 0 72 18.5t46 49t24.5 71t7.5 84.5zM332 -163q-11 0 -14 4.5t-3 14.5v77q0 11 3 15t14 4h113q89 0 155.5 -19t101.5 -45q8 -6 10 -11t-3 -14l-37 -68q-5 -10 -11.5 -11.5t-19.5 5.5q-39 20 -94 34t-130 14h-85z" />
    <glyph glyph-name="R" unicode="R" horiz-adv-x="669" 
d="M516 328q34 -15 48 -42.5t23 -62.5l51 -200q2 -6 -0.5 -14.5t-14.5 -8.5h-105q-11 0 -23 2.5t-17 17.5l-44 177q-13 49 -38.5 68t-70.5 19h-97v-263q0 -14 -4 -17.5t-19 -3.5h-107q-12 0 -17.5 4.5t-5.5 16.5v619q0 30 12 45.5t48 15.5h245q109 0 168.5 -55t59.5 -148
q0 -51 -24 -96t-69 -69zM452 488q0 13 -4 27t-13.5 25.5t-26.5 19t-43 7.5h-136v-160h133q44 0 67 22.5t23 58.5z" />
    <glyph glyph-name="S" unicode="S" horiz-adv-x="600" 
d="M62 509q0 42 14.5 79t43.5 64.5t74 43.5t106 16q28 0 58.5 -3t60 -9t56.5 -14.5t49 -19.5q12 -6 13.5 -11.5t-3.5 -20.5l-26 -75q-5 -14 -10 -16t-17 1q-47 14 -93.5 23t-87.5 9q-44 0 -62 -16t-18 -39q0 -13 6 -24t19.5 -21.5t36 -21.5t55.5 -24q51 -20 94 -40.5
t73.5 -46.5t48 -61t17.5 -84q0 -53 -19 -92t-53 -65t-82.5 -39t-106.5 -13q-32 0 -67 3.5t-69.5 11t-67.5 19.5t-61 29q-8 5 -9.5 11t3.5 19l34 80q5 12 11 14t17 -3q20 -8 44 -16.5t49.5 -15t52 -11t52.5 -4.5q31 0 52 6t34 15.5t18 22t5 26.5q0 15 -5.5 27t-18 23.5
t-34 22t-53.5 22.5q-53 20 -96 41t-74 46.5t-47.5 57t-16.5 73.5z" />
    <glyph glyph-name="T" unicode="T" horiz-adv-x="574" 
d="M563 590q0 -20 -20 -20h-181v-549q0 -13 -4.5 -17t-19.5 -4h-107q-12 0 -17.5 4.5t-5.5 16.5v549h-177q-19 0 -19 20v89q0 13 4 17t15 4h512q12 0 16 -4t4 -17v-89v0z" />
    <glyph glyph-name="U" unicode="U" horiz-adv-x="717" 
d="M642 97q0 -35 -15.5 -60t-57.5 -36q-20 -5 -44 -7.5t-48 -3.5t-45 -1.5t-34 -0.5q-86 0 -147.5 14.5t-100.5 49.5t-57 93t-18 146l-1 388q0 12 6 16.5t17 4.5h107q15 0 19.5 -4t4.5 -17v-397q0 -41 7 -71.5t25 -50.5t48.5 -29.5t78.5 -9.5q7 0 19 0.5t26.5 1t30 2
t28.5 4.5v550q0 12 5.5 16.5t17.5 4.5h106q15 0 18.5 -4t3.5 -17v-582z" />
    <glyph glyph-name="V" unicode="V" horiz-adv-x="664" 
d="M329 167h7l47 175l107 344q3 10 9.5 12.5t17.5 2.5h122q10 0 11.5 -6t-0.5 -11l-215 -631q-6 -18 -12.5 -28t-15 -15.5t-19.5 -7.5t-25 -2h-62q-15 0 -26 2t-19.5 8t-15.5 16.5t-13 27.5l-213 630q-2 7 0.5 12t11.5 5h120q14 0 19 -4.5t8 -13.5l105 -339z" />
    <glyph glyph-name="W" unicode="W" horiz-adv-x="904" 
d="M452 503l-42 -184l-61 -266q-8 -35 -22.5 -45t-44.5 -10h-58q-14 0 -25 1t-19 6t-14 15t-10 29l-142 633q-3 14 1 17t15 3h122q14 0 21.5 -3.5t10.5 -18.5l50 -290l30 -179h7l38 181l54 252q8 32 21 44.5t45 12.5h58q30 0 40.5 -12.5t17.5 -40.5l56 -263l36 -170h6
l28 170l51 293q2 15 7.5 19t18.5 4h129q9 0 13 -3.5t0 -16.5l-142 -630q-5 -19 -10.5 -29.5t-13.5 -16t-19 -6.5t-25 -1h-55q-15 0 -26 1.5t-19 7.5t-14 17t-11 29l-58 266l-39 184h-6z" />
    <glyph glyph-name="X" unicode="X" horiz-adv-x="618" 
d="M308 240l-121 -217q-9 -14 -17 -18.5t-27 -4.5h-123q-9 0 -11.5 6.5t1.5 13.5l213 344l-195 318q-5 6 -2 12.5t14 6.5h117q20 0 27.5 -4t15.5 -18l110 -195l109 195q8 14 15.5 18t27.5 4h115q11 0 13.5 -6.5t-2.5 -13.5l-193 -316l213 -345q4 -7 1 -13.5t-11 -6.5h-125
q-18 0 -26.5 4.5t-16.5 18.5z" />
    <glyph glyph-name="Y" unicode="Y" horiz-adv-x="625" 
d="M316 397l66 148l66 137q5 10 10.5 14.5t16.5 4.5h127q14 0 14.5 -6t-2.5 -12l-223 -425v-238q0 -11 -4 -15.5t-18 -4.5h-109q-21 0 -21 20v236l-229 426q-3 5 -0.5 12t13.5 7h126q14 0 19.5 -5t10.5 -17l67 -139l64 -143h6z" />
    <glyph glyph-name="Z" unicode="Z" horiz-adv-x="629" 
d="M592 611q0 -23 -11 -42.5t-24 -35.5l-326 -396l2 -7h344q11 0 14.5 -4t3.5 -18v-87q0 -12 -3.5 -16.5t-14.5 -4.5h-489q-29 0 -43.5 12.5t-14.5 41.5v24q0 24 8.5 41.5t23.5 35.5l338 410l-1 6h-304q-19 0 -19 21v87q0 14 3.5 18t15.5 4h437q32 0 46 -12t14 -45v-33z" />
    <glyph glyph-name="bracketleft" unicode="[" horiz-adv-x="365" 
d="M328 -73q0 -10 -2.5 -13.5t-12.5 -3.5h-218q-11 0 -15 5.5t-4 15.5v768q0 10 4 15.5t15 5.5h218q10 0 12.5 -4t2.5 -12v-76q0 -8 -2.5 -11.5t-14.5 -3.5h-97v-596h99q10 0 12.5 -3.5t2.5 -11.5v-75z" />
    <glyph glyph-name="backslash" unicode="\" horiz-adv-x="461" 
d="M451 -77q6 -19 -16 -19h-80q-14 0 -21 3.5t-11 14.5l-311 837q-5 10 0.5 14.5t14.5 4.5h83q14 0 19.5 -4.5t9.5 -13.5l312 -837v0z" />
    <glyph glyph-name="bracketright" unicode="]" horiz-adv-x="371" 
d="M319 -69q0 -10 -4.5 -15.5t-16.5 -5.5h-217q-10 0 -12.5 3.5t-2.5 14.5v74q0 8 3 11.5t13 3.5h98v596h-98q-10 0 -13 3.5t-3 11.5v74q0 11 3 14.5t13 3.5h216q12 0 16.5 -5.5t4.5 -15.5v-768v0z" />
    <glyph glyph-name="asciicircum" unicode="^" horiz-adv-x="583" 
d="M536 399q6 -9 2 -14.5t-12 -5.5h-94q-10 0 -17 3t-12 12l-114 198h-3l-111 -194q-7 -12 -13.5 -16t-19.5 -4h-92q-10 0 -12.5 5.5t2.5 13.5l183 301q7 11 17.5 20.5t27.5 9.5h38q23 0 31.5 -7.5t16.5 -21.5l182 -300v0z" />
    <glyph glyph-name="underscore" unicode="_" horiz-adv-x="500" 
d="M518 -126q0 -11 -3.5 -16t-14.5 -5h-500q-11 0 -14 5t-3 16v33q0 14 3 18t14 4h500q11 0 14.5 -4t3.5 -18v-33v0z" />
    <glyph glyph-name="grave" unicode="`" horiz-adv-x="547" 
d="M335 611q5 -10 2 -13.5t-11 -5.5l-55 -20q-8 -2 -12.5 -0.5t-10.5 9.5l-116 172q-4 5 -2.5 10.5t9.5 7.5l104 26q11 2 15.5 -1t7.5 -10l69 -175v0z" />
    <glyph glyph-name="a" unicode="a" horiz-adv-x="576" 
d="M511 65q0 -13 -3.5 -22t-17.5 -17q-23 -11 -49.5 -18t-54 -11t-55.5 -6t-53 -2q-68 0 -112.5 13t-71.5 35.5t-38 53t-11 65.5q0 39 13 71.5t39 56.5t65.5 37.5t93.5 13.5h110v16q0 14 -3 27t-12.5 22.5t-26.5 15.5t-45 6q-15 0 -34 -1.5t-38 -4t-37 -6t-32 -7.5
q-13 -3 -18 0t-7 13l-16 70q-3 11 -0.5 15.5t10.5 7.5q45 16 94.5 23t98.5 7q109 0 160 -46.5t51 -137.5v-290zM365 238h-79q-14 0 -30 -2t-29.5 -9.5t-22.5 -21.5t-9 -38q0 -35 23.5 -49t63.5 -14q6 0 16 0.5t21.5 2t23.5 4t22 6.5v121z" />
    <glyph glyph-name="b" unicode="b" horiz-adv-x="604" 
d="M559 267q0 -58 -14.5 -108.5t-46 -88t-81.5 -59.5t-120 -22q-54 0 -111 9t-103 30q-12 5 -15 12t-3 18v653q0 12 5 16t17 4h103q11 0 16 -3.5t5 -16.5v-188q26 8 57 12t61 4q61 0 104.5 -21t71.5 -57.5t41 -86.5t13 -107zM408 264q0 76 -29 113t-81 37q-13 0 -38 -2.5
t-49 -10.5v-278q20 -6 42 -8t36 -2q55 0 87 34t32 117z" />
    <glyph glyph-name="c" unicode="c" horiz-adv-x="511" 
d="M308 119q32 0 62.5 7.5t52.5 15.5q13 5 17.5 3.5t8.5 -12.5l28 -75q5 -10 4.5 -16t-11.5 -12q-44 -24 -94 -32.5t-91 -8.5q-118 0 -179 68t-61 204q0 64 17.5 115.5t49.5 87.5t78.5 55t103.5 19q42 0 83 -8.5t75 -25.5q13 -6 14.5 -11t-3.5 -17l-28 -77q-5 -11 -11 -12
t-20 3q-26 8 -51 13t-48 5q-30 0 -50.5 -12t-33.5 -32t-19 -46.5t-6 -56.5q0 -31 5 -57t18 -45t34.5 -29.5t54.5 -10.5z" />
    <glyph glyph-name="d" unicode="d" horiz-adv-x="604" 
d="M45 258q0 56 14 107t43 89.5t75 61t109 22.5q26 0 50.5 -2t55.5 -9v183q0 12 4.5 16t17.5 4h102q11 0 16.5 -3.5t5.5 -16.5v-616v-22.5t-2 -22.5q-1 -11 -15 -20t-35.5 -15.5t-48 -11.5t-52.5 -7.5t-49 -4t-38 -1.5q-72 0 -120.5 20t-78 56t-42 85t-12.5 108zM196 256
q0 -80 31.5 -112t87.5 -32q14 0 37.5 3t39.5 9v279q-26 6 -46 8t-36 2q-51 0 -82.5 -37t-31.5 -120z" />
    <glyph glyph-name="e" unicode="e" horiz-adv-x="568" 
d="M293 538q117 0 175.5 -58.5t58.5 -167.5q0 -52 -20 -71t-55 -19h-256q1 -32 10.5 -53t25.5 -34t37.5 -18t46.5 -5q29 0 59 7t56 18q12 4 16.5 2.5t8.5 -9.5l32 -72q4 -9 1.5 -14t-10.5 -10q-37 -24 -86 -34.5t-91 -10.5q-131 0 -194 65t-63 206q0 66 17.5 117.5t50 87.5
t78 54.5t102.5 18.5zM296 418q-41 0 -67 -29t-30 -74h187q0 22 -4.5 41t-14.5 32.5t-27 21.5t-44 8z" />
    <glyph glyph-name="f" unicode="f" horiz-adv-x="404" 
d="M386 621q-2 -9 -6.5 -11t-12.5 0q-17 3 -36.5 5t-31.5 2q-34 0 -44.5 -13.5t-10.5 -33.5v-45h120q9 0 12 -3t3 -13v-77q0 -8 -2.5 -12t-14.5 -4h-118v-398q0 -12 -4.5 -15t-15.5 -3h-104q-10 0 -15.5 3t-5.5 16v397h-73q-11 0 -13 4.5t-2 12.5v57q0 9 3.5 13.5t14.5 7.5
l70 16v57q0 69 38.5 113t124.5 44q7 0 22 -0.5t33 -2t37.5 -5t37.5 -8.5q11 -4 12 -8.5t-1 -12.5z" />
    <glyph glyph-name="g" unicode="g" horiz-adv-x="604" 
d="M539 54q0 -71 -18.5 -120.5t-54 -82.5t-87.5 -52t-119 -28q-11 -2 -15 0.5t-6 12.5l-13 96q-2 11 1.5 13.5t11.5 4.5q28 5 55.5 12t49 19.5t35 32t13.5 48.5v6q-26 -8 -56.5 -11.5t-60.5 -3.5q-60 0 -103.5 19t-71.5 53.5t-41.5 82.5t-13.5 107q0 57 15.5 107t47.5 87
t81.5 58t118.5 21q54 0 109.5 -8.5t101.5 -29.5q13 -7 16.5 -13.5t3.5 -17.5v-413zM196 266q0 -77 29.5 -109t81.5 -32q12 0 37 2.5t49 10.5v264q-20 6 -41.5 8.5t-35.5 2.5q-27 0 -49.5 -8t-38 -25t-24 -45t-8.5 -69z" />
    <glyph glyph-name="h" unicode="h" horiz-adv-x="609" 
d="M545 18q0 -12 -4 -15t-18 -3h-104q-11 0 -16 3.5t-5 14.5v280q0 26 -4.5 47.5t-16 36.5t-30.5 23.5t-48 8.5q-20 0 -45 -3t-44 -10v-383q0 -12 -3.5 -15t-17.5 -3h-103q-11 0 -16 3.5t-5 14.5v694q0 19 20 19h104q14 0 17.5 -4t3.5 -15v-189q26 8 59.5 12t57.5 4
q109 0 163.5 -58t54.5 -164v-299v0z" />
    <glyph glyph-name="i" unicode="i" horiz-adv-x="312" 
d="M242 662q0 -35 -24.5 -58.5t-59.5 -23.5q-34 0 -58.5 23.5t-24.5 58.5q0 18 6.5 33t18 26t26.5 17.5t32 6.5t32.5 -6.5t27 -17.5t18 -26t6.5 -33zM229 18q0 -11 -4 -14.5t-18 -3.5h-102q-11 0 -16 3.5t-5 14.5v489q0 11 5 14.5t16 3.5h102q14 0 18 -3.5t4 -14.5v-489z
" />
    <glyph glyph-name="j" unicode="j" horiz-adv-x="319" 
d="M234 76q0 -72 -15 -122t-41.5 -84.5t-61.5 -55.5t-74 -34q-15 -5 -21 -3.5t-10 11.5l-33 86q-5 13 -2 17.5t14 10.5q30 15 49 32t30.5 38t15.5 46t4 57v432q0 11 4.5 14.5t15.5 3.5h105q14 0 17 -3.5t3 -14.5v-431zM247 662q0 -35 -24 -58.5t-59 -23.5t-59.5 23.5
t-24.5 58.5q0 18 6.5 33t18 26t27 17.5t32.5 6.5q35 0 59 -24t24 -59z" />
    <glyph glyph-name="k" unicode="k" horiz-adv-x="552" 
d="M387 348l155 -328q8 -20 -15 -20h-116q-12 0 -18.5 3.5t-11.5 15.5l-95 214l-76 -86v-25.5v-35t-0.5 -36.5t-0.5 -31q0 -11 -3.5 -15t-17.5 -4h-103q-21 0 -21 19v694q0 11 5 14.5t16 3.5h104q14 0 17 -3t3 -15v-370l4 -2l143 170q8 8 13.5 11t19.5 3h122q14 0 15.5 -6.5
t-5.5 -14.5z" />
    <glyph glyph-name="l" unicode="l" horiz-adv-x="330" 
d="M318 27q2 -11 -1 -14.5t-14 -8.5q-21 -8 -51.5 -11.5t-53.5 -3.5q-30 0 -53.5 6.5t-39.5 22t-24.5 42.5t-8.5 68v584q0 14 5.5 16.5t16.5 2.5h102q11 0 16.5 -3.5t5.5 -14.5v-555q0 -25 7 -35.5t30 -10.5q8 0 19 1t18 2q9 1 12.5 -1.5t4.5 -10.5z" />
    <glyph glyph-name="m" unicode="m" horiz-adv-x="932" 
d="M210 18q0 -11 -3.5 -14.5t-17.5 -3.5h-103q-11 0 -16 3.5t-5 14.5v427q0 34 11 54t51 29q9 2 25.5 3.5t36 3t39.5 2.5t34 1q62 0 107.5 -11t79.5 -36q33 22 80.5 35t95.5 13q65 0 111 -18t75 -51t42.5 -78.5t13.5 -99.5v-274q0 -11 -4 -14.5t-18 -3.5h-102q-11 0 -16 3.5
t-5 14.5v257q0 68 -24 104t-89 36q-19 0 -46.5 -5t-43.5 -13q9 -25 12.5 -53.5t3.5 -61.5v-264q0 -11 -4 -14.5t-18 -3.5h-103q-11 0 -16 3.5t-5 14.5v270q0 31 -5 55t-17.5 40.5t-35 25.5t-57.5 9q-11 0 -30.5 -1t-33.5 -4v-395v0z" />
    <glyph glyph-name="n" unicode="n" horiz-adv-x="609" 
d="M278 418q-10 0 -28.5 -0.5t-39.5 -4.5v-395q0 -11 -3.5 -14.5t-17.5 -3.5h-103q-11 0 -16 3.5t-5 14.5v429q0 34 12 53.5t50 27.5q10 2 28.5 3.5t39.5 3t41.5 2.5t35.5 1q70 0 121 -14t84.5 -44.5t50 -80t16.5 -120.5v-261q0 -11 -3.5 -14.5t-17.5 -3.5h-104
q-11 0 -16 3.5t-5 14.5v270q0 33 -5.5 57t-19 40.5t-37 24.5t-58.5 8z" />
    <glyph glyph-name="o" unicode="o" horiz-adv-x="595" 
d="M550 265q0 -132 -63 -204t-192 -72q-130 0 -190 72t-60 202q0 64 17.5 115.5t50 86.5t79 54t105.5 19q126 0 189.5 -72.5t63.5 -200.5zM399 262q0 34 -5 62t-17 48t-31 31.5t-47 11.5q-53 0 -78.5 -40.5t-25.5 -109.5q0 -75 23.5 -114t77.5 -39q28 0 47.5 11.5t32 32
t18 47.5t5.5 59z" />
    <glyph glyph-name="p" unicode="p" horiz-adv-x="604" 
d="M211 -187q0 -11 -3.5 -14t-17.5 -3h-104q-11 0 -16 3t-5 14v652q0 11 3.5 17.5t16.5 13.5q48 22 107.5 31t113.5 9q71 0 119.5 -21.5t78 -58t42.5 -86.5t13 -107q0 -56 -14 -105.5t-43 -86.5t-73.5 -58.5t-104.5 -21.5q-30 0 -55.5 2.5t-57.5 9.5v-190zM407 266
q0 41 -8 69t-23.5 45t-38 24t-50.5 7q-14 0 -36.5 -3t-39.5 -8v-273q26 -7 46.5 -9t36.5 -2q50 0 81.5 34t31.5 116z" />
    <glyph glyph-name="q" unicode="q" horiz-adv-x="604" 
d="M539 -187q0 -11 -3.5 -15t-17.5 -4h-104q-21 0 -21 19v194q-26 -8 -57 -12t-61 -4q-61 0 -104.5 19.5t-71.5 55t-41 84t-13 105.5q0 60 15 111t46.5 89t81.5 59.5t120 21.5q54 0 109.5 -9t101.5 -30q13 -6 16.5 -13t3.5 -17v-654zM196 263q0 -77 29.5 -112t81.5 -35
q12 0 37 2.5t49 10.5v272q-20 6 -41.5 8.5t-35.5 2.5q-55 -1 -87.5 -34t-32.5 -115z" />
    <glyph glyph-name="r" unicode="r" horiz-adv-x="467" 
d="M217 18q0 -12 -4 -15t-18 -3h-102q-11 0 -16 3.5t-5 14.5v426q0 39 13.5 59.5t57.5 27.5q18 2 37 3.5t39 1.5q66 0 130.5 -17t114.5 -54q8 -6 7.5 -11.5t-3.5 -11.5l-52 -83q-6 -10 -11 -9t-16 8q-28 21 -60 34.5t-72 14.5q-21 0 -40 -3v-386v0z" />
    <glyph glyph-name="s" unicode="s" horiz-adv-x="497" 
d="M461 150q0 -81 -57.5 -121t-150.5 -40q-52 0 -109.5 11.5t-101.5 37.5q-8 5 -9.5 10.5t3.5 15.5l29 69q5 11 10.5 13.5t16.5 -2.5q16 -7 36 -13.5t41.5 -11.5t41.5 -8t36 -3q36 0 50.5 12.5t14.5 31.5q0 20 -20.5 34t-70.5 33q-40 15 -70.5 31t-51.5 34.5t-32 42
t-11 54.5q0 33 12 61.5t36 49.5t60.5 33.5t86.5 12.5q45 0 91.5 -8.5t84.5 -25.5q11 -5 12 -10.5t-3 -17.5l-25 -64q-4 -11 -9 -12.5t-16 2.5q-37 11 -68 17t-64 6q-27 0 -39 -12.5t-12 -25.5q0 -20 18.5 -33t64.5 -30q36 -14 68 -28.5t55.5 -34t37.5 -46.5t14 -65z" />
    <glyph glyph-name="t" unicode="t" horiz-adv-x="421" 
d="M409 26q1 -7 1 -11.5t-11 -8.5q-37 -11 -74 -14t-63 -3q-86 0 -123 36.5t-37 107.5v285h-70q-11 0 -14 5.5t-3 13.5v54q0 10 2.5 13.5t13.5 6.5l74 17l7 94q1 12 6.5 17t16.5 8l92 30q9 2 14.5 -2t5.5 -16v-134h110q11 0 13.5 -4.5t2.5 -12.5v-71q0 -10 -2 -14.5
t-14 -4.5h-110v-254q0 -29 14.5 -40t43.5 -11q7 0 17 1t20.5 2t20.5 2t17 2q16 3 17 -10l12 -84v0z" />
    <glyph glyph-name="u" unicode="u" horiz-adv-x="600" 
d="M322 108q10 0 28.5 1t39.5 4v394q0 11 3.5 15t17.5 4h103q21 0 21 -19v-427q0 -34 -13.5 -54t-48.5 -28q-12 -2 -30 -4t-38.5 -3.5t-40.5 -2t-35 -0.5q-72 0 -122.5 14t-82 45t-45.5 80.5t-14 120.5v259q0 11 3.5 15t17.5 4h104q21 0 21 -19v-268q0 -33 4 -57.5t16 -41
t34 -24.5t57 -8z" />
    <glyph glyph-name="v" unicode="v" horiz-adv-x="557" 
d="M387 48q-11 -34 -26 -43.5t-43 -9.5h-75q-24 0 -38.5 10t-26.5 43l-164 459q-4 11 -0.5 14.5t13.5 3.5h113q16 0 21 -3.5t9 -14.5l64 -205l46 -169h6l46 170l61 203q3 11 7.5 15t20.5 4h111q17 0 11 -16z" />
    <glyph glyph-name="w" unicode="w" horiz-adv-x="794" 
d="M396 327l-41 -138l-45 -142q-12 -32 -24.5 -42t-39.5 -10h-55q-24 0 -38.5 10t-23.5 44l-114 459q-3 11 1 14.5t14 3.5h113q12 0 17.5 -2t8.5 -14l34 -178l27 -162h6l35 126l45 156q8 25 20 36.5t40 11.5h52q26 0 35 -13t17 -35l46 -154l36 -129h6l24 159l33 181
q2 11 6 13.5t16 2.5l117 1q10 0 13.5 -3.5t1.5 -14.5l-115 -459q-9 -34 -24 -44t-39 -10h-52q-14 0 -23.5 1.5t-17 7t-13 16t-11.5 27.5l-44 144l-39 136h-5z" />
    <glyph glyph-name="x" unicode="x" horiz-adv-x="523" 
d="M261 176l-89 -154q-6 -11 -13.5 -16.5t-22.5 -5.5h-114q-11 0 -14 6t3 16l169 255l-151 230q-4 5 -2.5 11.5t11.5 6.5h120q14 0 21.5 -4t12.5 -15l70 -129l71 129q6 11 13 15t21 4h118q11 0 12 -6t-1 -11l-154 -229l170 -258q5 -8 3 -14.5t-14 -6.5h-117q-17 0 -23.5 5.5
t-12.5 16.5z" />
    <glyph glyph-name="y" unicode="y" horiz-adv-x="559" 
d="M348 -87q-23 -69 -66 -98.5t-114 -29.5q-20 0 -46.5 3t-52.5 11q-12 3 -15.5 7t-0.5 15l17 79q3 12 7 13t15 -1q16 -3 27 -4t22 -1q35 0 55 11.5t31 46.5l18 54h-29q-23 0 -33 8t-19 35l-152 444q-4 11 0.5 15t12.5 4h117q15 0 20.5 -3.5t8.5 -14.5l57 -202l47 -174h6
l51 177l60 197q3 11 8 15.5t20 4.5h119q17 0 11 -16l-202 -597v1z" />
    <glyph glyph-name="z" unicode="z" horiz-adv-x="504" 
d="M473 450q0 -15 -4.5 -29.5t-15.5 -27.5l-240 -270l2 -5h244q11 0 15 -3.5t4 -14.5v-81q0 -11 -3.5 -15t-14.5 -4h-389q-25 0 -36.5 11.5t-11.5 31.5v30q0 15 4.5 30t19.5 32l239 270l-2 4h-218q-12 0 -15 4t-3 15v78q0 19 19 19h356q25 0 37.5 -7.5t12.5 -32.5v-35z" />
    <glyph glyph-name="braceleft" unicode="{" horiz-adv-x="420" 
d="M366 -82q0 -14 -13 -14q-110 2 -163.5 49t-53.5 147v102q0 36 -15.5 53.5t-39.5 19.5q-8 2 -11.5 4.5t-3.5 10.5v68q0 7 3 9.5t12 4.5q24 2 39.5 19t15.5 54v80q0 100 51.5 146t164.5 48q14 1 14 -13v-77q0 -13 -13 -15q-27 -1 -43 -7.5t-24.5 -18t-10.5 -27t-2 -35.5
v-68q0 -110 -73 -137v-3q37 -14 55 -46t18 -89v-84q0 -20 2.5 -35.5t11 -27t24 -18.5t41.5 -8q14 -1 14 -12v-80v0z" />
    <glyph glyph-name="bar" unicode="|" horiz-adv-x="268" 
d="M196 -144q0 -12 -3.5 -16.5t-17.5 -4.5h-77q-20 0 -20 21v914q0 21 20 21h77q14 0 17.5 -4.5t3.5 -16.5v-914v0z" />
    <glyph glyph-name="braceright" unicode="}" horiz-adv-x="420" 
d="M368 291q0 -14 -15 -15q-23 -2 -39 -20t-16 -54v-102q0 -100 -53.5 -146t-164.5 -49q-8 0 -10 3t-2 11v80q0 11 13 12q26 1 41.5 8t24 18.5t11 27t2.5 35.5v84q0 57 18.5 89t55.5 46v3q-74 26 -74 137v68q0 20 -2 36t-10 27t-24 17.5t-43 8.5q-13 0 -13 14v77q0 13 13 13
q114 -2 165.5 -48t51.5 -146v-80q0 -37 15.5 -54.5t38.5 -19.5q10 -1 13 -4t3 -10v-67v0z" />
    <glyph glyph-name="asciitilde" unicode="~" 
d="M580 305q-26 -42 -66.5 -68t-86.5 -26q-27 0 -53 9t-51 20t-49 20t-45 9q-23 0 -40.5 -8.5t-35.5 -28.5q-5 -6 -9.5 -8t-11.5 3l-56 42q-6 5 -6 9.5t4 10.5q32 47 68.5 68.5t81.5 21.5q28 0 54.5 -9t51.5 -20t48 -20t44 -9q23 0 39.5 12t34.5 33q9 13 21 5l60 -44
q7 -5 7 -10t-4 -12z" />
    <glyph glyph-name="exclamdown" unicode="&#xa1;" horiz-adv-x="301" 
d="M227 -160q1 -9 -2.5 -16t-19.5 -7h-105q-15 0 -20 6.5t-4 16.5l22 429q1 12 6.5 16.5t19.5 4.5h60q20 0 21 -19zM243 440q0 -37 -26 -62t-64 -25t-64 25t-26 62t26 62t64 25t64 -25t26 -62z" />
    <glyph glyph-name="cent" unicode="&#xa2;" 
d="M325 -11q-112 4 -170 71.5t-58 200.5q0 123 61 195.5t167 80.5v82q0 9 3.5 11.5t10.5 2.5h31q8 0 10.5 -2.5t2.5 -11.5v-83q32 -3 63.5 -11t57.5 -21q13 -6 14.5 -11t-3.5 -17l-28 -77q-5 -11 -11 -12t-20 3q-19 6 -37.5 10t-35.5 6v-286q26 2 50 8.5t42 13.5
q13 5 17.5 3.5t8.5 -12.5l28 -75q5 -10 4.5 -16t-11.5 -12q-32 -18 -68.5 -27t-70.5 -12v-86q0 -9 -2.5 -11.5t-10.5 -2.5h-31q-7 0 -10.5 2.5t-3.5 11.5v84zM248 261q0 -53 16 -90t61 -48v280q-42 -12 -59.5 -51.5t-17.5 -90.5z" />
    <glyph glyph-name="sterling" unicode="&#xa3;" 
d="M388 553q-40 0 -69 -18t-29 -56q0 -17 4 -43.5t12 -53.5h157q11 0 14 -3t3 -17v-55q0 -11 -3 -14.5t-14 -3.5h-150q2 -25 0 -48q-2 -29 -8.5 -60.5t-27.5 -57.5h283q11 0 14.5 -3t3.5 -17v-85q0 -11 -3.5 -14.5t-14.5 -3.5h-429q-21 0 -35 9.5t-14 29.5v29q0 20 6 32.5
t22 29.5q28 26 38 53t14 56q3 19 2 50h-67q-11 0 -14.5 3.5t-3.5 14.5v55q0 11 3.5 15.5t14.5 4.5h54q-5 23 -11.5 51.5t-6.5 57.5q0 49 19 85t52 59t78.5 34.5t98.5 11.5q51 0 96 -10t83 -31q13 -8 13 -13.5t-7 -20.5l-27 -62q-5 -13 -10.5 -15.5t-20.5 2.5
q-32 11 -60.5 16.5t-59.5 5.5z" />
    <glyph glyph-name="currency" unicode="&#xa4;" horiz-adv-x="526" 
d="M257 498q61 0 110 -29q4 5 12 12.5t15.5 15.5t14 14t8.5 8q17 18 36 -1l44 -41q19 -20 3 -37l-54 -53q29 -49 29 -108q0 -61 -29 -110q3 -4 10.5 -11t15.5 -14.5t15 -15t11 -11.5q18 -15 -2 -37l-43 -44q-18 -16 -36 2l-51 51q-24 -14 -52 -22t-57 -8t-55 7.5t-49 20.5
l-11.5 -11.5t-15.5 -16t-15.5 -16.5t-11.5 -11q-18 -16 -35 2l-8.5 8.5t-14 13.5t-14 13.5t-7.5 8.5q-11 10 -10 18.5t10 17.5l51 50q-17 25 -25 54t-8 61t7 60t23 51l-46 47q-9 9 -10.5 17.5t9.5 19.5q4 3 16.5 15.5l28.5 28.5q10 10 18 10t16 -8l48 -50q50 28 109 28z
M256 383q-22 0 -41.5 -8.5t-34 -23t-22.5 -34t-8 -41.5t8.5 -41.5t22.5 -34t33.5 -23t41.5 -8.5t41.5 8.5t34 23t23 34t8.5 41.5t-8.5 41.5t-23 34t-34 23t-41.5 8.5z" />
    <glyph glyph-name="yen" unicode="&#xa5;" 
d="M87 318q-11 0 -13 4t-2 14v44q0 9 2 13.5t13 4.5h87l-130 256q-3 5 -0.5 11.5t14.5 6.5h120q15 0 20 -4t10 -15l62 -138l55 -134h5l55 135l61 139q4 9 9.5 13t16.5 4h125q13 0 13.5 -6t-2.5 -12l-128 -256h93q11 0 13 -4.5t2 -13.5v-44q0 -10 -2 -14t-13 -4h-486z
M573 270q11 0 13 -4.5t2 -13.5v-44q0 -10 -2 -14t-13 -4h-170v-173q0 -11 -3.5 -14t-17.5 -3h-106q-20 0 -20 17v173h-169q-11 0 -13 4t-2 14v44q0 9 2 13.5t13 4.5h486z" />
    <glyph glyph-name="brokenbar" unicode="&#xa6;" horiz-adv-x="268" 
d="M196 -144q0 -12 -3.5 -16.5t-17.5 -4.5h-77q-20 0 -20 21v409q0 19 20 19h77q14 0 17.5 -4t3.5 -15v-409zM196 356q0 -11 -3.5 -15.5t-17.5 -4.5h-77q-20 0 -20 20v411q0 20 20 20h77q14 0 17.5 -4.5t3.5 -15.5v-411z" />
    <glyph glyph-name="section" unicode="&#xa7;" horiz-adv-x="623" 
d="M237 423q-10 -8 -16.5 -21t-6.5 -28q0 -13 5.5 -25t18 -26t32 -31.5t47.5 -41.5q15 -14 36 -32.5t36 -29.5q21 21 21 44q0 16 -6 29.5t-18 27.5t-30.5 30.5t-42.5 37.5q-22 20 -40.5 35.5t-35.5 30.5zM263 -12q43 0 61.5 16t18.5 35q0 21 -24 46t-56 51q-37 28 -71 55.5
t-59.5 55t-40.5 56.5t-15 60q0 35 19.5 73.5t62.5 63.5q-12 18 -19.5 37.5t-7.5 39.5q0 31 12 60t36.5 51t61 35t86.5 13q42 0 83.5 -6t82.5 -25q10 -5 11 -10.5t-4 -17.5l-24 -60q-4 -11 -8.5 -13.5t-16.5 2.5q-26 10 -53 15.5t-51 5.5q-78 0 -78 -45q0 -13 8.5 -26.5
t22 -27t30.5 -27.5t35 -29q41 -33 74.5 -62t57 -56t36.5 -54t13 -56q0 -35 -21.5 -70t-59.5 -59q14 -21 22 -40.5t8 -41.5q0 -30 -12.5 -58.5t-39 -50.5t-68.5 -35t-101 -13q-44 0 -84 8t-78 28q-15 9 -6 25l28 65q4 10 8.5 12t15.5 -3q23 -8 46 -15.5t58 -7.5z" />
    <glyph glyph-name="dieresis" unicode="&#xa8;" horiz-adv-x="565" 
d="M474 666q0 -15 -6 -28t-16.5 -23t-23.5 -16t-28 -6t-28.5 6t-24 16t-16.5 23t-6 28q0 30 22.5 52t52.5 22q15 0 28 -6t23.5 -16t16.5 -23.5t6 -28.5zM269 666q0 -15 -6 -28t-16.5 -23t-24 -16t-28.5 -6t-28 6t-23.5 16t-16.5 23t-6 28t6 28.5t16.5 23.5t23.5 16t28 6
t28.5 -6t24 -16t16.5 -23.5t6 -28.5z" />
    <glyph glyph-name="copyright" unicode="&#xa9;" horiz-adv-x="836" 
d="M423 121q-45 0 -80.5 16.5t-61 46.5t-39 70.5t-13.5 88.5q0 50 14 91t39.5 70.5t61 45.5t78.5 16q45 0 83.5 -18t59.5 -44q5 -8 4 -10.5t-7 -8.5l-30 -32q-5 -5 -9.5 -7t-12.5 6q-18 16 -40.5 26t-46.5 10q-52 0 -77 -39.5t-25 -105.5q0 -63 25 -103t76 -40q25 0 46.5 10
t37.5 25q10 10 13.5 8.5t11.5 -8.5l35 -32q9 -8 0 -19q-20 -24 -58.5 -43.5t-84.5 -19.5zM782 350q0 -77 -28 -143t-76.5 -114.5t-115 -76t-144.5 -27.5t-144 27.5t-115 76t-76.5 114.5t-27.5 143t27.5 143t76.5 114.5t115 76t144 27.5t144.5 -27.5t115 -76t76.5 -114.5
t28 -143zM710 350q0 63 -22 116.5t-61 92.5t-92.5 61t-116.5 22t-116.5 -22t-92.5 -61t-61 -92.5t-22 -116.5q0 -64 22 -118t61 -93t92.5 -60.5t116.5 -21.5t116.5 21.5t92.5 60.5t61 93t22 118z" />
    <glyph glyph-name="ordfeminine" unicode="&#xaa;" horiz-adv-x="398" 
d="M356 314q0 -11 -3 -18t-15 -13q-32 -14 -72 -19.5t-76 -5.5q-47 0 -78.5 9t-50.5 24t-26.5 36t-7.5 45q0 53 36.5 85t112.5 32h67v5q0 18 -9.5 28.5t-41.5 10.5q-19 0 -47 -2.5t-47 -7.5q-9 -2 -15.5 -1t-9.5 11l-11 50q-2 9 1 13.5t13 8.5q28 10 62 14t68 4
q77 0 113.5 -31.5t36.5 -92.5v-185zM243 418h-47q-8 0 -17.5 -1t-18 -5t-14 -12t-5.5 -21q0 -18 14 -25t39 -7q6 0 21 0.5t28 4.5v66z" />
    <glyph glyph-name="guillemotleft" unicode="&#xab;" horiz-adv-x="576" 
d="M58 254q0 12 4.5 23t11.5 22l88 149q8 13 16 18t29 5h92q9 0 12.5 -6.5t-1.5 -15.5l-116 -196l123 -203q7 -11 2.5 -16.5t-15.5 -5.5h-91q-21 0 -29 5t-14 16l-97 162q-6 11 -10.5 22.5t-4.5 20.5zM269 254q0 12 5 23t11 22l89 149q8 13 16 18t29 5h91q10 0 13.5 -6.5
t-2.5 -15.5l-115 -196l123 -203q7 -11 2.5 -16.5t-15.5 -5.5h-92q-20 0 -28 5t-14 16l-97 162q-6 11 -11 22.5t-5 20.5z" />
    <glyph glyph-name="logicalnot" unicode="&#xac;" 
d="M580 110q0 -11 -4 -15.5t-18 -4.5h-82q-21 0 -21 20v174h-362q-11 0 -15.5 4.5t-4.5 16.5v77q0 14 4.5 18t15.5 4h467q10 0 15 -4t5 -18v-272z" />
    <glyph glyph-name="sfthyphen" unicode="&#xad;" horiz-adv-x="397" 
d="M341 251q0 -11 -3.5 -16t-14.5 -5h-254q-11 0 -14.5 5t-3.5 16v90q0 13 3.5 17t14.5 4h254q11 0 14.5 -4t3.5 -17v-90v0z" />
    <glyph glyph-name="registered" unicode="&#xae;" horiz-adv-x="582" 
d="M529 478q0 -50 -19 -92.5t-51 -74t-75.5 -49t-92.5 -17.5q-51 0 -94.5 17.5t-75.5 49t-50 74t-18 92.5q0 51 18.5 94t51 75t76.5 50t94 18q51 0 94 -18t74.5 -50t49.5 -75.5t18 -93.5zM474 479q0 39 -14 73.5t-38.5 59.5t-58 39.5t-72.5 14.5t-72.5 -14.5t-58.5 -39.5
t-39 -59.5t-14 -73.5t14 -73t38.5 -59t58.5 -39.5t73 -14.5t72.5 14t58 38.5t38.5 58.5t14 75zM405 361q1 -4 0.5 -7t-6.5 -3h-43q-5 0 -8.5 1t-5.5 8q-1 4 -3.5 13t-5 18.5t-5 18.5t-3.5 14q-8 32 -39 32h-33v-96q0 -6 -2 -7.5t-8 -1.5h-41q-9 0 -9 9v229q0 25 26 25h88
q42 0 64 -21.5t22 -56.5q0 -20 -10 -38t-29 -26v-1q16 -5 22.5 -15t9.5 -23zM333 532q0 11 -6.5 20t-24.5 9h-49v-57h48q16 0 24 8t8 20z" />
    <glyph glyph-name="macron" unicode="&#xaf;" horiz-adv-x="397" 
d="M356 604q0 -21 -20 -21h-271q-20 0 -20 21v60q0 14 4.5 17.5t15.5 3.5h271q11 0 15.5 -3.5t4.5 -17.5v-60v0z" />
    <glyph glyph-name="degree" unicode="&#xb0;" horiz-adv-x="461" 
d="M400 539q0 -36 -13 -66t-35.5 -52t-53.5 -34t-66 -12t-65.5 12t-53 34t-35 52t-12.5 66q0 35 12.5 65t35 51.5t53 34t66.5 12.5q35 0 65.5 -12.5t53 -34t35.5 -51.5t13 -65zM315 539q0 36 -23 59t-59 23q-35 0 -58 -23t-23 -59q0 -38 23 -61.5t58 -23.5q36 0 59 23.5
t23 61.5z" />
    <glyph glyph-name="plusminus" unicode="&#xb1;" 
d="M577 19q0 -20 -20 -20h-463q-21 0 -21 20v81q0 13 4.5 16.5t16.5 3.5h463q11 0 15.5 -3.5t4.5 -16.5v-81zM581 368q0 -21 -21 -21h-165v-173q0 -12 -4 -16.5t-18 -4.5h-92q-21 0 -21 21v173h-166q-20 0 -20 21v78q0 14 4.5 18t15.5 4h166v173q0 21 21 21h92q14 0 18 -4.5
t4 -16.5v-173h165q12 0 16.5 -4t4.5 -18v-78z" />
    <glyph glyph-name="twosuperior" unicode="&#xb2;" horiz-adv-x="425" 
d="M377 376q0 -11 -3 -15t-14 -4h-258q-29 0 -45.5 12.5t-16.5 46.5q0 23 17.5 51.5t46.5 53.5q26 23 51.5 40t46.5 30q35 19 45.5 31.5t10.5 25.5q0 11 -10.5 19.5t-35.5 8.5t-51 -8.5t-51 -22.5q-8 -5 -14.5 -5t-11.5 9l-27 47q-5 8 -4.5 14t9.5 12q32 23 73.5 35.5
t80.5 12.5q34 0 63.5 -7t51 -21t33.5 -36t12 -52q0 -46 -30.5 -76t-75.5 -56q-25 -14 -51.5 -34t-42.5 -42h182q14 0 16.5 -3t2.5 -14v-53z" />
    <glyph glyph-name="threesuperior" unicode="&#xb3;" horiz-adv-x="425" 
d="M316 572q34 -13 46.5 -39t12.5 -52q0 -60 -48.5 -94.5t-128.5 -34.5q-38 0 -80.5 9.5t-72.5 29.5q-11 8 -11.5 13t4.5 15l28 51q5 6 10 6t16 -5q23 -12 47.5 -19t47.5 -7q37 0 54.5 13.5t17.5 34.5q0 17 -12 28t-43 11h-22q-17 0 -21.5 4.5t-4.5 20.5v28q0 13 5.5 17.5
t18.5 4.5h21q50 0 50 37q0 17 -15 24t-34 7q-43 0 -89 -22q-14 -6 -20.5 -8t-12.5 9l-25 46q-5 9 -4 14t10 13q33 23 75.5 33t79.5 10q30 0 57 -6t48 -19.5t33.5 -34t12.5 -50.5q0 -24 -12.5 -47.5t-38.5 -37.5v-3z" />
    <glyph glyph-name="acute" unicode="&#xb4;" horiz-adv-x="525" 
d="M181 591q-9 3 -10 7.5t2 12.5l70 174q5 14 12.5 14t18.5 -3l95 -25q16 -4 8 -18l-117 -172q-6 -9 -10.5 -10t-12.5 1z" />
    <glyph glyph-name="mu" unicode="&#xb5;" horiz-adv-x="600" 
d="M189 526q14 0 17.5 -4t3.5 -15v-312q0 -24 4.5 -41t17 -27t35.5 -14.5t60 -4.5q10 0 26 1t37 4v394q0 11 3.5 15t17.5 4h103q21 0 21 -19v-423q0 -22 -3.5 -37t-12 -24.5t-22 -15.5t-33.5 -10q-13 -2 -30 -4t-34 -3t-33.5 -1.5t-27.5 -0.5q-31 0 -69 3.5t-64 11.5v-189
q0 -11 -4 -14.5t-16 -3.5h-100q-11 0 -16 3.5t-5 14.5v693q0 11 4.5 15t16.5 4h103v0z" />
    <glyph glyph-name="paragraph" unicode="&#xb6;" horiz-adv-x="584" 
d="M520 54q0 -106 -60 -154.5t-169 -55.5q-7 0 -11.5 1.5t-6.5 12.5l-10 77q-2 14 13 17q37 4 60.5 13.5t37.5 24t19.5 34t5.5 45.5v619q0 7 5 10.5t12 3.5h87q17 0 17 -14v-634zM248 321q-45 0 -81 14.5t-60.5 40t-37.5 60t-13 74.5q0 39 13.5 74t38.5 61t60.5 41.5
t79.5 15.5h85q14 0 14 -15v-351q0 -9 -3 -12t-11 -3h-85z" />
    <glyph glyph-name="periodcentered" unicode="&#xb7;" horiz-adv-x="296" 
d="M240 293q0 -37 -26.5 -63t-65.5 -26q-19 0 -36 7t-29.5 19t-19.5 28t-7 35t7 35.5t19.5 28.5t29.5 19t36 7q39 0 65.5 -26t26.5 -64z" />
    <glyph glyph-name="cedilla" unicode="&#xb8;" horiz-adv-x="515" 
d="M282 -54q37 -2 61.5 -11t39.5 -22t21 -28.5t6 -31.5q0 -20 -7.5 -39t-24 -34t-42.5 -24t-64 -9q-16 0 -33 2t-33 5t-30 7t-24 8q-8 3 -8.5 7t2.5 14l12 36q4 11 7 11.5t11 -1.5q20 -7 37 -10.5t36 -3.5q24 0 38 8t14 26q0 17 -17 24t-42 7q-17 0 -22.5 0.5t-10.5 5.5
q-6 5 -5 13t4 17l41 105q2 2 4 5t9 3h46q8 0 8 -3.5t-2 -5.5z" />
    <glyph glyph-name="onesuperior" unicode="&#xb9;" horiz-adv-x="425" 
d="M355 376q0 -11 -3 -15t-16 -4h-238q-12 0 -15 3.5t-3 14.5v54q0 11 3 14t15 3h59v218l-59 -11q-12 -2 -16 2t-4 12v51q0 9 2.5 14.5t14.5 8.5l112 28q27 7 45.5 1t18.5 -37v-287h65q13 0 16 -3t3 -14v-53z" />
    <glyph glyph-name="ordmasculine" unicode="&#xba;" horiz-adv-x="411" 
d="M384 441q0 -87 -44.5 -135t-135.5 -48q-92 0 -134.5 47.5t-42.5 135.5q0 85 47 133.5t131 48.5q88 0 133.5 -48.5t45.5 -133.5zM266 440q0 40 -13 64.5t-47 24.5q-32 0 -47 -23.5t-15 -63.5q0 -44 14 -67t46 -23q34 0 48 25t14 63z" />
    <glyph glyph-name="guillemotright" unicode="&#xbb;" horiz-adv-x="576" 
d="M521 254q0 -9 -5 -20.5t-11 -22.5l-97 -162q-6 -11 -14 -16t-28 -5h-92q-11 0 -15.5 5.5t2.5 16.5l123 203l-115 196q-6 9 -2.5 15.5t13.5 6.5h91q21 0 29 -5t16 -18l88 -149q7 -11 12 -22t5 -23zM309 254q0 -9 -5 -20.5t-11 -22.5l-97 -162q-5 -11 -13.5 -16t-28.5 -5
h-92q-11 0 -15.5 5.5t2.5 16.5l124 203l-116 196q-6 9 -2.5 15.5t13.5 6.5h92q20 0 28 -5t16 -18l89 -149q6 -11 11 -22t5 -23z" />
    <glyph glyph-name="onequarter" unicode="&#xbc;" horiz-adv-x="970" 
d="M879 94q0 -8 -2 -12.5t-14 -4.5h-38v-59q0 -13 -5 -15.5t-15 -2.5h-75q-9 0 -13.5 3.5t-4.5 14.5v58h-171q-8 0 -16 0.5t-14.5 4.5t-10.5 11.5t-4 21.5v21q0 25 17 45l171 201q11 12 24.5 22t39.5 10h36q23 0 32 -8.5t9 -31.5v-208h37q13 0 15 -4t2 -13v-54zM326 -14
q-5 -9 -12.5 -13.5t-21.5 -4.5h-51q-11 0 -13.5 5.5t2.5 13.5l414 704q5 8 9 11.5t15 3.5h59q9 0 12.5 -5t-2.5 -15zM368 286q0 -11 -3 -15t-16 -4h-238q-12 0 -15 3.5t-3 14.5v54q0 11 3 14t15 3h59v218l-59 -11q-12 -2 -16 2t-4 12v51q0 9 2.5 14.5t14.5 8.5l112 28
q27 7 45.5 1t18.5 -37v-287h65q13 0 16 -3t3 -14v-53zM708 275l-89 -106l1 -4h92v109z" />
    <glyph glyph-name="onehalf" unicode="&#xbd;" horiz-adv-x="970" 
d="M349 286q0 -11 -3 -15t-16 -4h-238q-12 0 -15 3.5t-3 14.5v54q0 11 3 14t15 3h59v218l-59 -11q-12 -2 -16 2t-4 12v51q0 9 2.5 14.5t14.5 8.5l112 28q27 7 45.5 1t18.5 -37v-287h65q13 0 16 -3t3 -14v-53zM311 -14q-5 -9 -12.5 -13.5t-21.5 -4.5h-51q-11 0 -13.5 5.5
t2.5 13.5l414 704q5 8 9 11.5t15 3.5h59q9 0 12.5 -5t-2.5 -15zM897 19q0 -11 -3 -15t-14 -4h-258q-29 0 -45.5 12.5t-16.5 46.5q0 23 17.5 51.5t46.5 53.5q26 23 51.5 40t46.5 30q35 19 45.5 31.5t10.5 25.5q0 11 -10.5 19.5t-35.5 8.5t-51 -8.5t-51 -22.5q-8 -5 -14.5 -5
t-11.5 9l-27 47q-5 8 -4.5 14t9.5 12q32 23 73.5 35.5t80.5 12.5q34 0 63.5 -7t51 -21t33.5 -36t12 -52q0 -46 -30.5 -76t-75.5 -56q-25 -14 -51.5 -34t-42.5 -42h182q14 0 16.5 -3t2.5 -14v-53z" />
    <glyph glyph-name="threequarters" unicode="&#xbe;" horiz-adv-x="970" 
d="M916 94q0 -8 -2 -12.5t-14 -4.5h-38v-59q0 -13 -5 -15.5t-15 -2.5h-75q-9 0 -13.5 3.5t-4.5 14.5v58h-171q-8 0 -16 0.5t-14.5 4.5t-10.5 11.5t-4 21.5v21q0 25 17 45l171 201q11 12 24.5 22t39.5 10h36q23 0 32 -8.5t9 -31.5v-208h37q13 0 15 -4t2 -13v-54zM336 482
q34 -13 46.5 -39t12.5 -52q0 -60 -48.5 -94.5t-128.5 -34.5q-38 0 -80.5 9.5t-72.5 29.5q-11 8 -11.5 13t4.5 15l28 51q5 6 10 6t16 -5q23 -12 47.5 -19t47.5 -7q37 0 54.5 13.5t17.5 34.5q0 17 -12 28t-43 11h-22q-17 0 -21.5 4.5t-4.5 20.5v28q0 13 5.5 17.5t18.5 4.5h21
q50 0 50 37q0 17 -15 24t-34 7q-43 0 -89 -22q-14 -6 -20.5 -8t-12.5 9l-25 46q-5 9 -4 14t10 13q33 23 75.5 33t79.5 10q30 0 57 -6t48 -19.5t33.5 -34t12.5 -50.5q0 -24 -12.5 -47.5t-38.5 -37.5v-3zM339 -14q-5 -9 -12.5 -13.5t-21.5 -4.5h-51q-11 0 -13.5 5.5t2.5 13.5
l414 704q5 8 9 11.5t15 3.5h59q9 0 12.5 -5t-2.5 -15zM745 275l-89 -106l1 -4h92v109z" />
    <glyph glyph-name="questiondown" unicode="&#xbf;" horiz-adv-x="567" 
d="M287 -197q-46 0 -88.5 9.5t-75.5 30.5t-52.5 54t-19.5 80q0 27 9 50t23.5 44t33 39.5l36.5 36.5q18 16 34.5 32t29 32t20.5 32t8 33v22q0 9 3 12t13 3h108q11 0 13.5 -4t2.5 -11v-32q0 -29 -9.5 -53t-24.5 -44t-33.5 -37.5t-36.5 -33.5q-26 -25 -44.5 -49.5t-18.5 -56.5
q0 -22 20 -40t62 -18q38 0 73.5 11t75.5 37q9 5 15.5 6.5t11.5 -7.5l47 -79q4 -7 3.5 -12.5t-9.5 -11.5q-27 -20 -56.5 -34t-59.5 -23t-59.5 -13.5t-54.5 -4.5zM227 440q0 18 7 34t19.5 27.5t29.5 18t36 6.5q38 0 64.5 -24t26.5 -62q0 -19 -7.5 -35t-20 -28t-29.5 -18.5
t-36 -6.5q-16 0 -32 5.5t-29 16.5t-21 27.5t-8 38.5z" />
    <glyph glyph-name="Agrave" unicode="&#xc0;" horiz-adv-x="655" 
d="M441 146h-229l-39 -127q-3 -10 -8.5 -14.5t-19.5 -4.5h-117q-11 0 -13.5 6t-0.5 14l208 627q5 17 11.5 27.5t15 16.5t20 8.5t26.5 2.5h60q17 0 29 -1.5t21 -7.5t15.5 -17t12.5 -29l208 -627q2 -6 0 -13t-13 -7h-119q-11 0 -18.5 2.5t-10.5 13.5zM248 270h157l-38 127
l-37 143h-6l-38 -143zM403 810q8 -7 7.5 -11t-5.5 -10l-38 -46q-5 -5 -9.5 -6.5t-14.5 3.5l-193 99q-6 2 -7 7.5t5 11.5l69 79q8 8 13 6t11 -7z" />
    <glyph glyph-name="Aacute" unicode="&#xc1;" horiz-adv-x="655" 
d="M441 146h-229l-39 -127q-3 -10 -8.5 -14.5t-19.5 -4.5h-117q-11 0 -13.5 6t-0.5 14l208 627q5 17 11.5 27.5t15 16.5t20 8.5t26.5 2.5h60q17 0 29 -1.5t21 -7.5t15.5 -17t12.5 -29l208 -627q2 -6 0 -13t-13 -7h-119q-11 0 -18.5 2.5t-10.5 13.5zM417 936q6 5 11 7t13 -6
l69 -79q6 -6 5 -11.5t-7 -7.5l-193 -99q-10 -5 -14.5 -3.5t-9.5 6.5l-38 46q-5 6 -5.5 10t7.5 11zM248 270h157l-38 127l-37 143h-6l-38 -143z" />
    <glyph glyph-name="Acircumflex" unicode="&#xc2;" horiz-adv-x="655" 
d="M441 146h-229l-39 -127q-3 -10 -8.5 -14.5t-19.5 -4.5h-117q-11 0 -13.5 6t-0.5 14l208 627q5 17 11.5 27.5t15 16.5t20 8.5t26.5 2.5h60q17 0 29 -1.5t21 -7.5t15.5 -17t12.5 -29l208 -627q2 -6 0 -13t-13 -7h-119q-11 0 -18.5 2.5t-10.5 13.5zM248 270h157l-38 127
l-37 143h-6l-38 -143zM515 796q9 -8 9 -13.5t-7 -12.5l-28 -31q-6 -7 -13 -5.5t-15 6.5l-142 77l-138 -75q-8 -5 -14 -5.5t-13 7.5l-26 27q-6 8 -6.5 12.5t6.5 11.5l133 115q14 12 29.5 19t28.5 7q29 0 61 -26z" />
    <glyph glyph-name="Atilde" unicode="&#xc3;" horiz-adv-x="655" 
d="M441 146h-229l-39 -127q-3 -10 -8.5 -14.5t-19.5 -4.5h-117q-11 0 -13.5 6t-0.5 14l208 627q5 17 11.5 27.5t15 16.5t20 8.5t26.5 2.5h60q17 0 29 -1.5t21 -7.5t15.5 -17t12.5 -29l208 -627q2 -6 0 -13t-13 -7h-119q-11 0 -18.5 2.5t-10.5 13.5zM248 270h157l-38 127
l-37 143h-6l-38 -143zM394 747q-18 0 -36 6.5t-35 14t-34 14t-35 6.5q-27 0 -47 -31q-6 -9 -10.5 -11.5t-12.5 2.5l-44 25q-9 5 -9.5 10t3.5 13q19 38 46.5 61.5t72.5 23.5q19 0 36 -6.5t33.5 -14t32.5 -13.5t32 -6t26.5 7.5t20.5 24.5q6 11 9 12t12 -2l50 -17
q10 -3 11 -7.5t-3 -14.5q-19 -42 -46.5 -69.5t-72.5 -27.5z" />
    <glyph glyph-name="Adieresis" unicode="&#xc4;" horiz-adv-x="655" 
d="M441 146h-229l-39 -127q-3 -10 -8.5 -14.5t-19.5 -4.5h-117q-11 0 -13.5 6t-0.5 14l208 627q5 17 11.5 27.5t15 16.5t20 8.5t26.5 2.5h60q17 0 29 -1.5t21 -7.5t15.5 -17t12.5 -29l208 -627q2 -6 0 -13t-13 -7h-119q-11 0 -18.5 2.5t-10.5 13.5zM248 270h157l-38 127
l-37 143h-6l-38 -143zM503 812q0 -15 -6 -28t-16.5 -23t-23.5 -16t-28 -6t-28.5 6t-24 16t-16.5 23t-6 28q0 30 22.5 52t52.5 22q15 0 28 -6t23.5 -16t16.5 -23.5t6 -28.5zM298 812q0 -15 -6 -28t-16.5 -23t-24 -16t-28.5 -6t-28 6t-23.5 16t-16.5 23t-6 28t6 28.5
t16.5 23.5t23.5 16t28 6t28.5 -6t24 -16t16.5 -23.5t6 -28.5z" />
    <glyph glyph-name="Aring" unicode="&#xc5;" horiz-adv-x="655" 
d="M441 146h-229l-39 -127q-3 -10 -8.5 -14.5t-19.5 -4.5h-117q-11 0 -13.5 6t-0.5 14l208 627q5 17 11.5 27.5t15 16.5t20 8.5t26.5 2.5h60q17 0 29 -1.5t21 -7.5t15.5 -17t12.5 -29l208 -627q2 -6 0 -13t-13 -7h-119q-11 0 -18.5 2.5t-10.5 13.5zM248 270h157l-38 127
l-37 143h-6l-38 -143zM375 835q0 21 -14 35t-35 14t-34.5 -14t-13.5 -35q0 -23 13.5 -36.5t34.5 -13.5q20 0 34.5 13.5t14.5 36.5zM450 835q0 -26 -9.5 -47.5t-26 -37.5t-39.5 -24.5t-49 -8.5q-52 0 -87.5 32.5t-35.5 85.5q0 25 9.5 47t26 37.5t39 24.5t48.5 9t49 -8.5
t39.5 -24.5t26 -37.5t9.5 -47.5z" />
    <glyph glyph-name="AE" unicode="&#xc6;" horiz-adv-x="925" 
d="M893 21q0 -11 -3.5 -16t-14.5 -5h-290q-46 0 -78 8.5t-52.5 26.5t-31.5 46t-14 66h-192l-42 -128q-3 -10 -8 -14.5t-18 -4.5h-121q-8 0 -12.5 5t0.5 15l184 541q13 39 30.5 65.5t42 43t56.5 24t74 7.5h460q11 0 14.5 -4t3.5 -18v-89q0 -11 -3.5 -15.5t-14.5 -4.5h-236
q-40 0 -53.5 -18.5t-13.5 -46.5v-74h273q11 0 14.5 -4t3.5 -18v-82q0 -11 -3.5 -16t-14.5 -5h-273v-111q0 -35 17.5 -49t49.5 -14h248q11 0 14.5 -4t3.5 -18v-89zM252 266h157v251q0 17 1.5 33.5t6.5 27.5q-41 0 -57.5 -13.5t-23.5 -34.5l-35 -106z" />
    <glyph glyph-name="Ccedilla" unicode="&#xc7;" horiz-adv-x="643" 
d="M388 127q48 0 85 11.5t69 23.5q14 6 20 2.5t11 -14.5l34 -72q7 -14 5 -21t-11 -12q-49 -30 -102.5 -42t-106.5 -14l-17 -43q37 -2 61.5 -11t39.5 -22t21 -28.5t6 -31.5q0 -20 -7.5 -39t-24 -34t-42.5 -24t-64 -9q-16 0 -33 2t-33 5t-30 7t-24 8q-8 3 -8.5 7t2.5 14l12 36
q4 11 7 11.5t11 -1.5q20 -7 37 -10.5t36 -3.5q24 0 38 8t14 26q0 17 -17 24t-42 7q-17 0 -22.5 0.5t-10.5 5.5q-6 5 -5 13t4 17l26 68q-71 6 -122 33.5t-84.5 73t-49.5 108t-16 140.5q0 82 23.5 149t65.5 115t101.5 74t131.5 26q51 0 100 -8.5t96 -34.5q11 -6 13 -12t-5 -23
l-31 -69q-5 -14 -10.5 -17t-19.5 2q-36 13 -67 19.5t-69 6.5q-41 0 -72.5 -17.5t-53 -48t-32.5 -72t-11 -90.5t8.5 -89t29 -69t53.5 -45t82 -16z" />
    <glyph glyph-name="Egrave" unicode="&#xc8;" horiz-adv-x="613" 
d="M576 23q0 -12 -4 -17.5t-16 -5.5h-296q-56 0 -91.5 16t-56.5 42t-29 59t-8 67v332q0 36 10 69t31.5 59t56.5 41.5t86 15.5h287q12 0 15.5 -5t3.5 -19v-85q0 -13 -4 -17.5t-15 -4.5h-254q-39 0 -52 -18t-13 -44v-77h287q12 0 15.5 -5t3.5 -19v-78q0 -12 -3.5 -17.5
t-15.5 -5.5h-287v-114q0 -35 16.5 -47.5t48.5 -12.5h264q13 0 16.5 -4.5t3.5 -19.5v-85zM430 810q8 -7 7.5 -11t-5.5 -10l-38 -46q-5 -5 -9.5 -6.5t-14.5 3.5l-193 99q-6 2 -7 7.5t5 11.5l69 79q8 8 13 6t11 -7z" />
    <glyph glyph-name="Eacute" unicode="&#xc9;" horiz-adv-x="613" 
d="M576 23q0 -12 -4 -17.5t-16 -5.5h-296q-56 0 -91.5 16t-56.5 42t-29 59t-8 67v332q0 36 10 69t31.5 59t56.5 41.5t86 15.5h287q12 0 15.5 -5t3.5 -19v-85q0 -13 -4 -17.5t-15 -4.5h-254q-39 0 -52 -18t-13 -44v-77h287q12 0 15.5 -5t3.5 -19v-78q0 -12 -3.5 -17.5
t-15.5 -5.5h-287v-114q0 -35 16.5 -47.5t48.5 -12.5h264q13 0 16.5 -4.5t3.5 -19.5v-85zM421 936q6 5 11 7t13 -6l69 -79q6 -6 5 -11.5t-7 -7.5l-193 -99q-10 -5 -14.5 -3.5t-9.5 6.5l-38 46q-5 6 -5.5 10t7.5 11z" />
    <glyph glyph-name="Ecircumflex" unicode="&#xca;" horiz-adv-x="613" 
d="M576 23q0 -12 -4 -17.5t-16 -5.5h-296q-56 0 -91.5 16t-56.5 42t-29 59t-8 67v332q0 36 10 69t31.5 59t56.5 41.5t86 15.5h287q12 0 15.5 -5t3.5 -19v-85q0 -13 -4 -17.5t-15 -4.5h-254q-39 0 -52 -18t-13 -44v-77h287q12 0 15.5 -5t3.5 -19v-78q0 -12 -3.5 -17.5
t-15.5 -5.5h-287v-114q0 -35 16.5 -47.5t48.5 -12.5h264q13 0 16.5 -4.5t3.5 -19.5v-85zM539 796q9 -8 9 -13.5t-7 -12.5l-28 -31q-6 -7 -13 -5.5t-15 6.5l-142 77l-138 -75q-8 -5 -14 -5.5t-13 7.5l-26 27q-6 8 -6.5 12.5t6.5 11.5l133 115q14 12 29.5 19t28.5 7
q29 0 61 -26z" />
    <glyph glyph-name="Edieresis" unicode="&#xcb;" horiz-adv-x="613" 
d="M576 23q0 -12 -4 -17.5t-16 -5.5h-296q-56 0 -91.5 16t-56.5 42t-29 59t-8 67v332q0 36 10 69t31.5 59t56.5 41.5t86 15.5h287q12 0 15.5 -5t3.5 -19v-85q0 -13 -4 -17.5t-15 -4.5h-254q-39 0 -52 -18t-13 -44v-77h287q12 0 15.5 -5t3.5 -19v-78q0 -12 -3.5 -17.5
t-15.5 -5.5h-287v-114q0 -35 16.5 -47.5t48.5 -12.5h264q13 0 16.5 -4.5t3.5 -19.5v-85zM531 812q0 -15 -6 -28t-16.5 -23t-23.5 -16t-28 -6t-28.5 6t-24 16t-16.5 23t-6 28q0 30 22.5 52t52.5 22q15 0 28 -6t23.5 -16t16.5 -23.5t6 -28.5zM326 812q0 -15 -6 -28t-16.5 -23
t-24 -16t-28.5 -6t-28 6t-23.5 16t-16.5 23t-6 28t6 28.5t16.5 23.5t23.5 16t28 6t28.5 -6t24 -16t16.5 -23.5t6 -28.5z" />
    <glyph glyph-name="Igrave" unicode="&#xcc;" horiz-adv-x="329" 
d="M241 21q0 -13 -4.5 -17t-19.5 -4h-106q-12 0 -17.5 4.5t-5.5 16.5v658q0 12 5.5 16.5t17.5 4.5h106q15 0 19.5 -4t4.5 -17v-658zM232 810q8 -7 7.5 -11t-5.5 -10l-38 -46q-5 -5 -9.5 -6.5t-14.5 3.5l-193 99q-6 2 -7 7.5t5 11.5l69 79q8 8 13 6t11 -7z" />
    <glyph glyph-name="Iacute" unicode="&#xcd;" horiz-adv-x="329" 
d="M241 21q0 -13 -4.5 -17t-19.5 -4h-106q-12 0 -17.5 4.5t-5.5 16.5v658q0 12 5.5 16.5t17.5 4.5h106q15 0 19.5 -4t4.5 -17v-658zM251 936q6 5 11 7t13 -6l69 -79q6 -6 5 -11.5t-7 -7.5l-193 -99q-10 -5 -14.5 -3.5t-9.5 6.5l-38 46q-5 6 -5.5 10t7.5 11z" />
    <glyph glyph-name="Icircumflex" unicode="&#xce;" horiz-adv-x="329" 
d="M241 21q0 -13 -4.5 -17t-19.5 -4h-106q-12 0 -17.5 4.5t-5.5 16.5v658q0 12 5.5 16.5t17.5 4.5h106q15 0 19.5 -4t4.5 -17v-658zM360 796q9 -8 9 -13.5t-7 -12.5l-28 -31q-6 -7 -13 -5.5t-15 6.5l-142 77l-138 -75q-8 -5 -14 -5.5t-13 7.5l-26 27q-6 8 -6.5 12.5
t6.5 11.5l133 115q14 12 29.5 19t28.5 7q29 0 61 -26z" />
    <glyph glyph-name="Idieresis" unicode="&#xcf;" horiz-adv-x="329" 
d="M241 21q0 -13 -4.5 -17t-19.5 -4h-106q-12 0 -17.5 4.5t-5.5 16.5v658q0 12 5.5 16.5t17.5 4.5h106q15 0 19.5 -4t4.5 -17v-658zM343 815q0 -15 -6 -28t-16.5 -23t-23.5 -16t-28 -6t-28.5 6t-24 16t-16.5 23t-6 28q0 30 22.5 52t52.5 22q15 0 28 -6t23.5 -16t16.5 -23.5
t6 -28.5zM138 815q0 -15 -6 -28t-16.5 -23t-24 -16t-28.5 -6t-28 6t-23.5 16t-16.5 23t-6 28t6 28.5t16.5 23.5t23.5 16t28 6t28.5 -6t24 -16t16.5 -23.5t6 -28.5z" />
    <glyph glyph-name="Eth" unicode="&#xd0;" horiz-adv-x="697" 
d="M141 0q-36 0 -51 14.5t-15 46.5v246h-41q-20 0 -20 21v54q0 13 4.5 17t15.5 4h41v236q0 32 15 47t51 15h181q88 0 149 -28t99 -75t55 -110.5t17 -133.5q0 -69 -15 -133t-51 -113t-95.5 -78.5t-147.5 -29.5h-192zM485 354q0 46 -8 85t-28.5 67.5t-55.5 45t-88 16.5h-77
v-165h116q11 0 15 -4t4 -17v-54q0 -21 -19 -21h-116v-173h80q52 0 86.5 16.5t54.5 45.5t28 69.5t8 88.5z" />
    <glyph glyph-name="Ntilde" unicode="&#xd1;" horiz-adv-x="744" 
d="M226 435v-414q0 -13 -4.5 -17t-18.5 -4h-105q-12 0 -17.5 4.5t-5.5 16.5v610q0 39 14 54.5t51 15.5h42q15 0 25.5 -1.5t18.5 -6.5t15 -14t16 -23l170 -259l86 -135h5v418q0 12 4.5 16.5t18.5 4.5h105q23 0 23 -21v-611q0 -32 -13 -50.5t-52 -18.5h-42q-15 0 -25.5 1.5
t-18.5 6.5t-15 13.5t-16 22.5l-160 242l-96 149h-5zM443 754q-18 0 -36 6.5t-35 14t-34 14t-35 6.5q-27 0 -47 -31q-6 -9 -10.5 -11.5t-12.5 2.5l-44 25q-9 5 -9.5 10t3.5 13q19 38 46.5 61.5t72.5 23.5q19 0 36 -6.5t33.5 -14t32.5 -13.5t32 -6t26.5 7.5t20.5 24.5
q6 11 9 12t12 -2l50 -17q10 -3 11 -7.5t-3 -14.5q-19 -42 -46.5 -69.5t-72.5 -27.5z" />
    <glyph glyph-name="Ograve" unicode="&#xd2;" horiz-adv-x="730" 
d="M675 352q0 -86 -18.5 -153t-57.5 -114t-98 -71.5t-140 -24.5q-155 0 -230.5 94t-75.5 266q0 84 21.5 151.5t61.5 114t97 71.5t129 25q78 0 136.5 -25t97 -71.5t58 -113t19.5 -149.5zM516 349q0 45 -6.5 86t-23.5 72t-46 49.5t-75 18.5q-38 0 -66.5 -17.5t-47.5 -47.5
t-28 -70t-9 -85q0 -53 7.5 -95t25 -72t46.5 -46t73 -16q43 0 72 18.5t46 49t24.5 71t7.5 84.5zM446 813q8 -7 7.5 -11t-5.5 -10l-38 -46q-5 -5 -9.5 -6.5t-14.5 3.5l-193 99q-6 2 -7 7.5t5 11.5l69 79q8 8 13 6t11 -7z" />
    <glyph glyph-name="Oacute" unicode="&#xd3;" horiz-adv-x="730" 
d="M675 352q0 -86 -18.5 -153t-57.5 -114t-98 -71.5t-140 -24.5q-155 0 -230.5 94t-75.5 266q0 84 21.5 151.5t61.5 114t97 71.5t129 25q78 0 136.5 -25t97 -71.5t58 -113t19.5 -149.5zM516 349q0 45 -6.5 86t-23.5 72t-46 49.5t-75 18.5q-38 0 -66.5 -17.5t-47.5 -47.5
t-28 -70t-9 -85q0 -53 7.5 -95t25 -72t46.5 -46t73 -16q43 0 72 18.5t46 49t24.5 71t7.5 84.5zM468 942q6 5 11 7t13 -6l69 -79q6 -6 5 -11.5t-7 -7.5l-193 -99q-10 -5 -14.5 -3.5t-9.5 6.5l-38 46q-5 6 -5.5 10t7.5 11z" />
    <glyph glyph-name="Ocircumflex" unicode="&#xd4;" horiz-adv-x="730" 
d="M675 352q0 -86 -18.5 -153t-57.5 -114t-98 -71.5t-140 -24.5q-155 0 -230.5 94t-75.5 266q0 84 21.5 151.5t61.5 114t97 71.5t129 25q78 0 136.5 -25t97 -71.5t58 -113t19.5 -149.5zM516 349q0 45 -6.5 86t-23.5 72t-46 49.5t-75 18.5q-38 0 -66.5 -17.5t-47.5 -47.5
t-28 -70t-9 -85q0 -53 7.5 -95t25 -72t46.5 -46t73 -16q43 0 72 18.5t46 49t24.5 71t7.5 84.5zM555 796q9 -8 9 -13.5t-7 -12.5l-28 -31q-6 -7 -13 -5.5t-15 6.5l-142 77l-138 -75q-8 -5 -14 -5.5t-13 7.5l-26 27q-6 8 -6.5 12.5t6.5 11.5l133 115q14 12 29.5 19t28.5 7
q29 0 61 -26z" />
    <glyph glyph-name="Otilde" unicode="&#xd5;" horiz-adv-x="730" 
d="M675 352q0 -86 -18.5 -153t-57.5 -114t-98 -71.5t-140 -24.5q-155 0 -230.5 94t-75.5 266q0 84 21.5 151.5t61.5 114t97 71.5t129 25q78 0 136.5 -25t97 -71.5t58 -113t19.5 -149.5zM516 349q0 45 -6.5 86t-23.5 72t-46 49.5t-75 18.5q-38 0 -66.5 -17.5t-47.5 -47.5
t-28 -70t-9 -85q0 -53 7.5 -95t25 -72t46.5 -46t73 -16q43 0 72 18.5t46 49t24.5 71t7.5 84.5zM438 753q-18 0 -36 6.5t-35 14t-34 14t-35 6.5q-27 0 -47 -31q-6 -9 -10.5 -11.5t-12.5 2.5l-44 25q-9 5 -9.5 10t3.5 13q19 38 46.5 61.5t72.5 23.5q19 0 36 -6.5t33.5 -14
t32.5 -13.5t32 -6t26.5 7.5t20.5 24.5q6 11 9 12t12 -2l50 -17q10 -3 11 -7.5t-3 -14.5q-19 -42 -46.5 -69.5t-72.5 -27.5z" />
    <glyph glyph-name="Odieresis" unicode="&#xd6;" horiz-adv-x="730" 
d="M675 352q0 -86 -18.5 -153t-57.5 -114t-98 -71.5t-140 -24.5q-155 0 -230.5 94t-75.5 266q0 84 21.5 151.5t61.5 114t97 71.5t129 25q78 0 136.5 -25t97 -71.5t58 -113t19.5 -149.5zM516 349q0 45 -6.5 86t-23.5 72t-46 49.5t-75 18.5q-38 0 -66.5 -17.5t-47.5 -47.5
t-28 -70t-9 -85q0 -53 7.5 -95t25 -72t46.5 -46t73 -16q43 0 72 18.5t46 49t24.5 71t7.5 84.5zM543 817q0 -15 -6 -28t-16.5 -23t-23.5 -16t-28 -6t-28.5 6t-24 16t-16.5 23t-6 28q0 30 22.5 52t52.5 22q15 0 28 -6t23.5 -16t16.5 -23.5t6 -28.5zM338 817q0 -15 -6 -28
t-16.5 -23t-24 -16t-28.5 -6t-28 6t-23.5 16t-16.5 23t-6 28t6 28.5t16.5 23.5t23.5 16t28 6t28.5 -6t24 -16t16.5 -23.5t6 -28.5z" />
    <glyph glyph-name="multiply" unicode="&#xd7;" 
d="M105 179q-15 14 0 29l136 136l-134 134q-15 15 0 29l55 55q10 10 16 9.5t14 -8.5l134 -135l135 136q14 14 29 0l57 -56q9 -11 8.5 -16.5t-8.5 -13.5l-135 -135l133 -133q8 -9 8.5 -15t-9.5 -16l-54 -55q-15 -14 -29 0l-134 134l-136 -136q-8 -8 -14 -8.5t-16 9.5l-56 56
v0z" />
    <glyph glyph-name="Oslash" unicode="&#xd8;" horiz-adv-x="730" 
d="M112 4q-7 -8 -11 -8.5t-9 4.5l-22 18q-7 5 -7 9t7 13l48 59q-63 91 -63 250q0 84 21.5 151.5t61.5 114t97 71.5t129 25q63 0 112.5 -16.5t87.5 -47.5l42 52q12 16 23 5l21 -17q6 -5 7 -9.5t-7 -12.5l-47 -58q36 -47 54 -111t18 -144q0 -86 -18.5 -153t-57.5 -114
t-98 -71.5t-140 -24.5q-131 0 -205 68zM516 349q-1 35 -5 68t-15 61l-241 -301q18 -25 45.5 -38t67.5 -13q43 0 71.5 18.5t45.5 49t24 71t7 84.5zM214 355q0 -35 3.5 -65t12.5 -55l238 297q-17 20 -42.5 31.5t-60.5 11.5q-38 0 -66.5 -17.5t-47.5 -47.5t-28 -70t-9 -85z" />
    <glyph glyph-name="Ugrave" unicode="&#xd9;" horiz-adv-x="717" 
d="M642 97q0 -35 -15.5 -60t-57.5 -36q-20 -5 -44 -7.5t-48 -3.5t-45 -1.5t-34 -0.5q-86 0 -147.5 14.5t-100.5 49.5t-57 93t-18 146l-1 388q0 12 6 16.5t17 4.5h107q15 0 19.5 -4t4.5 -17v-397q0 -41 7 -71.5t25 -50.5t48.5 -29.5t78.5 -9.5q7 0 19 0.5t26.5 1t30 2
t28.5 4.5v550q0 12 5.5 16.5t17.5 4.5h106q15 0 18.5 -4t3.5 -17v-582zM444 810q8 -7 7.5 -11t-5.5 -10l-38 -46q-5 -5 -9.5 -6.5t-14.5 3.5l-193 99q-6 2 -7 7.5t5 11.5l69 79q8 8 13 6t11 -7z" />
    <glyph glyph-name="Uacute" unicode="&#xda;" horiz-adv-x="717" 
d="M642 97q0 -35 -15.5 -60t-57.5 -36q-20 -5 -44 -7.5t-48 -3.5t-45 -1.5t-34 -0.5q-86 0 -147.5 14.5t-100.5 49.5t-57 93t-18 146l-1 388q0 12 6 16.5t17 4.5h107q15 0 19.5 -4t4.5 -17v-397q0 -41 7 -71.5t25 -50.5t48.5 -29.5t78.5 -9.5q7 0 19 0.5t26.5 1t30 2
t28.5 4.5v550q0 12 5.5 16.5t17.5 4.5h106q15 0 18.5 -4t3.5 -17v-582zM451 936q6 5 11 7t13 -6l69 -79q6 -6 5 -11.5t-7 -7.5l-193 -99q-10 -5 -14.5 -3.5t-9.5 6.5l-38 46q-5 6 -5.5 10t7.5 11z" />
    <glyph glyph-name="Ucircumflex" unicode="&#xdb;" horiz-adv-x="717" 
d="M642 97q0 -35 -15.5 -60t-57.5 -36q-20 -5 -44 -7.5t-48 -3.5t-45 -1.5t-34 -0.5q-86 0 -147.5 14.5t-100.5 49.5t-57 93t-18 146l-1 388q0 12 6 16.5t17 4.5h107q15 0 19.5 -4t4.5 -17v-397q0 -41 7 -71.5t25 -50.5t48.5 -29.5t78.5 -9.5q7 0 19 0.5t26.5 1t30 2
t28.5 4.5v550q0 12 5.5 16.5t17.5 4.5h106q15 0 18.5 -4t3.5 -17v-582zM557 796q9 -8 9 -13.5t-7 -12.5l-28 -31q-6 -7 -13 -5.5t-15 6.5l-142 77l-138 -75q-8 -5 -14 -5.5t-13 7.5l-26 27q-6 8 -6.5 12.5t6.5 11.5l133 115q14 12 29.5 19t28.5 7q29 0 61 -26z" />
    <glyph glyph-name="Udieresis" unicode="&#xdc;" horiz-adv-x="717" 
d="M642 97q0 -35 -15.5 -60t-57.5 -36q-20 -5 -44 -7.5t-48 -3.5t-45 -1.5t-34 -0.5q-86 0 -147.5 14.5t-100.5 49.5t-57 93t-18 146l-1 388q0 12 6 16.5t17 4.5h107q15 0 19.5 -4t4.5 -17v-397q0 -41 7 -71.5t25 -50.5t48.5 -29.5t78.5 -9.5q7 0 19 0.5t26.5 1t30 2
t28.5 4.5v550q0 12 5.5 16.5t17.5 4.5h106q15 0 18.5 -4t3.5 -17v-582zM543 812q0 -15 -6 -28t-16.5 -23t-23.5 -16t-28 -6t-28.5 6t-24 16t-16.5 23t-6 28q0 30 22.5 52t52.5 22q15 0 28 -6t23.5 -16t16.5 -23.5t6 -28.5zM338 812q0 -15 -6 -28t-16.5 -23t-24 -16t-28.5 -6
t-28 6t-23.5 16t-16.5 23t-6 28t6 28.5t16.5 23.5t23.5 16t28 6t28.5 -6t24 -16t16.5 -23.5t6 -28.5z" />
    <glyph glyph-name="Yacute" unicode="&#xdd;" horiz-adv-x="625" 
d="M316 397l66 148l66 137q5 10 10.5 14.5t16.5 4.5h127q14 0 14.5 -6t-2.5 -12l-223 -425v-238q0 -11 -4 -15.5t-18 -4.5h-109q-21 0 -21 20v236l-229 426q-3 5 -0.5 12t13.5 7h126q14 0 19.5 -5t10.5 -17l67 -139l64 -143h6zM405 936q6 5 11 7t13 -6l69 -79q6 -6 5 -11.5
t-7 -7.5l-193 -99q-10 -5 -14.5 -3.5t-9.5 6.5l-38 46q-5 6 -5.5 10t7.5 11z" />
    <glyph glyph-name="Thorn" unicode="&#xde;" horiz-adv-x="644" 
d="M380 592q54 0 97 -16.5t73.5 -45.5t46.5 -69t16 -87q0 -24 -7 -60.5t-30 -71t-65.5 -61.5t-112.5 -33q-26 -3 -54 -3h-116v-126q0 -11 -3.5 -15t-16.5 -4h-107q-9 0 -18.5 2.5t-7.5 16.5v667q0 20 20 20h104q14 0 18 -4.5t4 -15.5v-94h159zM456 363q0 14 -4 30.5t-15 31
t-30.5 24t-50.5 9.5h-128v-189h130q51 0 74.5 27t23.5 67z" />
    <glyph glyph-name="germandbls" unicode="&#xdf;" horiz-adv-x="604" 
d="M447 401q24 -9 44.5 -26t35.5 -41t23.5 -53t8.5 -61q0 -69 -21.5 -117t-57.5 -78t-82 -43t-94 -11q-20 1 -24 4t-4 15v79q0 10 3 14t15 6q56 3 84.5 38t28.5 92q0 23 -5 44.5t-16.5 38t-30.5 27t-47 11.5q-21 2 -29.5 9.5t-8.5 25.5v35q0 17 9 28.5t29 11.5q34 0 53 22.5
t19 60.5q0 13 -4 27.5t-14 26.5t-25.5 19.5t-38.5 7.5t-39.5 -9t-27 -23.5t-15.5 -33.5t-5 -39v-485q0 -13 -4 -18.5t-20 -5.5h-102q-13 0 -16 6t-3 18v468q0 55 16.5 100t47 76t73.5 48t94 17q57 0 99.5 -14.5t71.5 -40t43.5 -60.5t14.5 -75q0 -16 -4 -35t-13.5 -38.5
t-24.5 -36.5t-37 -28v-4z" />
    <glyph glyph-name="agrave" unicode="&#xe0;" horiz-adv-x="576" 
d="M511 65q0 -13 -3.5 -22t-17.5 -17q-23 -11 -49.5 -18t-54 -11t-55.5 -6t-53 -2q-68 0 -112.5 13t-71.5 35.5t-38 53t-11 65.5q0 39 13 71.5t39 56.5t65.5 37.5t93.5 13.5h110v16q0 14 -3 27t-12.5 22.5t-26.5 15.5t-45 6q-15 0 -34 -1.5t-38 -4t-37 -6t-32 -7.5
q-13 -3 -18 0t-7 13l-16 70q-3 11 -0.5 15.5t10.5 7.5q45 16 94.5 23t98.5 7q109 0 160 -46.5t51 -137.5v-290zM365 238h-79q-14 0 -30 -2t-29.5 -9.5t-22.5 -21.5t-9 -38q0 -35 23.5 -49t63.5 -14q6 0 16 0.5t21.5 2t23.5 4t22 6.5v121zM368 611q5 -10 2 -13.5t-11 -5.5
l-55 -20q-8 -2 -12.5 -0.5t-10.5 9.5l-116 172q-4 5 -2.5 10.5t9.5 7.5l104 26q11 2 15.5 -1t7.5 -10z" />
    <glyph glyph-name="aacute" unicode="&#xe1;" horiz-adv-x="576" 
d="M511 65q0 -13 -3.5 -22t-17.5 -17q-23 -11 -49.5 -18t-54 -11t-55.5 -6t-53 -2q-68 0 -112.5 13t-71.5 35.5t-38 53t-11 65.5q0 39 13 71.5t39 56.5t65.5 37.5t93.5 13.5h110v16q0 14 -3 27t-12.5 22.5t-26.5 15.5t-45 6q-15 0 -34 -1.5t-38 -4t-37 -6t-32 -7.5
q-13 -3 -18 0t-7 13l-16 70q-3 11 -0.5 15.5t10.5 7.5q45 16 94.5 23t98.5 7q109 0 160 -46.5t51 -137.5v-290zM365 238h-79q-14 0 -30 -2t-29.5 -9.5t-22.5 -21.5t-9 -38q0 -35 23.5 -49t63.5 -14q6 0 16 0.5t21.5 2t23.5 4t22 6.5v121zM250 591q-9 3 -10 7.5t2 12.5
l70 174q5 14 12.5 14t18.5 -3l95 -25q16 -4 8 -18l-117 -172q-6 -9 -10.5 -10t-12.5 1z" />
    <glyph glyph-name="acircumflex" unicode="&#xe2;" horiz-adv-x="576" 
d="M511 65q0 -13 -3.5 -22t-17.5 -17q-23 -11 -49.5 -18t-54 -11t-55.5 -6t-53 -2q-68 0 -112.5 13t-71.5 35.5t-38 53t-11 65.5q0 39 13 71.5t39 56.5t65.5 37.5t93.5 13.5h110v16q0 14 -3 27t-12.5 22.5t-26.5 15.5t-45 6q-15 0 -34 -1.5t-38 -4t-37 -6t-32 -7.5
q-13 -3 -18 0t-7 13l-16 70q-3 11 -0.5 15.5t10.5 7.5q45 16 94.5 23t98.5 7q109 0 160 -46.5t51 -137.5v-290zM365 238h-79q-14 0 -30 -2t-29.5 -9.5t-22.5 -21.5t-9 -38q0 -35 23.5 -49t63.5 -14q6 0 16 0.5t21.5 2t23.5 4t22 6.5v121zM494 622q8 -8 7.5 -13.5t-8.5 -13.5
l-29 -28q-7 -5 -12.5 -5t-15.5 7l-139 98l-134 -100q-8 -5 -13.5 -5t-13.5 7l-30 28q-6 7 -5.5 11.5t5.5 12.5l131 137q14 14 29 22.5t30 8.5q22 0 36 -7t29 -24z" />
    <glyph glyph-name="atilde" unicode="&#xe3;" horiz-adv-x="576" 
d="M511 65q0 -13 -3.5 -22t-17.5 -17q-23 -11 -49.5 -18t-54 -11t-55.5 -6t-53 -2q-68 0 -112.5 13t-71.5 35.5t-38 53t-11 65.5q0 39 13 71.5t39 56.5t65.5 37.5t93.5 13.5h110v16q0 14 -3 27t-12.5 22.5t-26.5 15.5t-45 6q-15 0 -34 -1.5t-38 -4t-37 -6t-32 -7.5
q-13 -3 -18 0t-7 13l-16 70q-3 11 -0.5 15.5t10.5 7.5q45 16 94.5 23t98.5 7q109 0 160 -46.5t51 -137.5v-290zM365 238h-79q-14 0 -30 -2t-29.5 -9.5t-22.5 -21.5t-9 -38q0 -35 23.5 -49t63.5 -14q6 0 16 0.5t21.5 2t23.5 4t22 6.5v121zM362 605q-18 0 -36 6.5t-35 14
t-34 14t-35 6.5q-27 0 -47 -31q-6 -9 -10.5 -11.5t-12.5 2.5l-44 25q-9 5 -9.5 10t3.5 13q19 38 46.5 61.5t72.5 23.5q19 0 36 -6.5t33.5 -14t32.5 -13.5t32 -6t26.5 7.5t20.5 24.5q6 11 9 12t12 -2l50 -17q10 -3 11 -7.5t-3 -14.5q-19 -42 -46.5 -69.5t-72.5 -27.5z" />
    <glyph glyph-name="adieresis" unicode="&#xe4;" horiz-adv-x="576" 
d="M511 65q0 -13 -3.5 -22t-17.5 -17q-23 -11 -49.5 -18t-54 -11t-55.5 -6t-53 -2q-68 0 -112.5 13t-71.5 35.5t-38 53t-11 65.5q0 39 13 71.5t39 56.5t65.5 37.5t93.5 13.5h110v16q0 14 -3 27t-12.5 22.5t-26.5 15.5t-45 6q-15 0 -34 -1.5t-38 -4t-37 -6t-32 -7.5
q-13 -3 -18 0t-7 13l-16 70q-3 11 -0.5 15.5t10.5 7.5q45 16 94.5 23t98.5 7q109 0 160 -46.5t51 -137.5v-290zM365 238h-79q-14 0 -30 -2t-29.5 -9.5t-22.5 -21.5t-9 -38q0 -35 23.5 -49t63.5 -14q6 0 16 0.5t21.5 2t23.5 4t22 6.5v121zM476 671q0 -15 -6 -28t-16.5 -23
t-23.5 -16t-28 -6t-28.5 6t-24 16t-16.5 23t-6 28q0 30 22.5 52t52.5 22q15 0 28 -6t23.5 -16t16.5 -23.5t6 -28.5zM271 671q0 -15 -6 -28t-16.5 -23t-24 -16t-28.5 -6t-28 6t-23.5 16t-16.5 23t-6 28t6 28.5t16.5 23.5t23.5 16t28 6t28.5 -6t24 -16t16.5 -23.5t6 -28.5z
" />
    <glyph glyph-name="aring" unicode="&#xe5;" horiz-adv-x="576" 
d="M511 65q0 -13 -3.5 -22t-17.5 -17q-23 -11 -49.5 -18t-54 -11t-55.5 -6t-53 -2q-68 0 -112.5 13t-71.5 35.5t-38 53t-11 65.5q0 39 13 71.5t39 56.5t65.5 37.5t93.5 13.5h110v16q0 14 -3 27t-12.5 22.5t-26.5 15.5t-45 6q-15 0 -34 -1.5t-38 -4t-37 -6t-32 -7.5
q-13 -3 -18 0t-7 13l-16 70q-3 11 -0.5 15.5t10.5 7.5q45 16 94.5 23t98.5 7q109 0 160 -46.5t51 -137.5v-290zM365 238h-79q-14 0 -30 -2t-29.5 -9.5t-22.5 -21.5t-9 -38q0 -35 23.5 -49t63.5 -14q6 0 16 0.5t21.5 2t23.5 4t22 6.5v121zM351 687q0 21 -14 35t-35 14
t-34.5 -14t-13.5 -35q0 -23 13.5 -36.5t34.5 -13.5q20 0 34.5 13.5t14.5 36.5zM426 687q0 -26 -9.5 -47.5t-26 -37.5t-39.5 -24.5t-49 -8.5q-52 0 -87.5 32.5t-35.5 85.5q0 25 9.5 47t26 37.5t39 24.5t48.5 9t49 -8.5t39.5 -24.5t26 -37.5t9.5 -47.5z" />
    <glyph glyph-name="ae" unicode="&#xe6;" horiz-adv-x="881" 
d="M606 539q115 0 173.5 -59t58.5 -166q0 -51 -19.5 -69t-54.5 -19h-256q1 -36 10.5 -58.5t25.5 -35t37.5 -16.5t46.5 -4q29 0 59 7t56 17q11 5 16 4t9 -10l31 -72q4 -9 2 -14t-10 -10q-37 -24 -86.5 -34.5t-91.5 -10.5q-49 0 -89.5 10.5t-70.5 37.5q-44 -26 -97.5 -37
t-98.5 -11q-62 0 -103 13.5t-65 36t-34 52t-10 61.5q0 37 12 68.5t36.5 54.5t62.5 36.5t91 13.5h114q2 7 3 13.5t1 11.5q1 71 -91 71q-31 0 -71.5 -5t-69.5 -13q-11 -2 -16.5 -0.5t-7.5 12.5l-16 71q-2 10 0 14.5t10 7.5q45 16 93.5 23.5t98.5 7.5q110 0 158 -57
q30 29 70 43t83 14zM279 103q17 0 46 4t53 17q-18 45 -21 107h-77q-14 0 -29 -2.5t-27.5 -9.5t-20.5 -20.5t-8 -35.5q0 -32 22 -46t62 -14zM609 419q-41 0 -67.5 -26.5t-30.5 -70.5h187q-1 17 -5 34.5t-14 31.5t-27 22.5t-43 8.5z" />
    <glyph glyph-name="ccedilla" unicode="&#xe7;" horiz-adv-x="511" 
d="M308 119q32 0 62.5 7.5t52.5 15.5q13 5 17.5 3.5t8.5 -12.5l28 -75q5 -10 4.5 -16t-11.5 -12q-39 -22 -84.5 -30.5t-83.5 -10.5l-17 -43q37 -2 61.5 -11t39.5 -22t21 -28.5t6 -31.5q0 -20 -7.5 -39t-24 -34t-42.5 -24t-64 -9q-16 0 -33 2t-33 5t-30 7t-24 8q-8 3 -8.5 7
t2.5 14l12 36q4 11 7 11.5t11 -1.5q20 -7 37 -10.5t36 -3.5q24 0 38 8t14 26q0 17 -17 24t-42 7q-17 0 -22.5 0.5t-10.5 5.5q-6 5 -5 13t4 17l27 70q-95 13 -144 80t-49 188q0 64 17.5 115.5t49.5 87.5t78.5 55t103.5 19q42 0 83 -8.5t75 -25.5q13 -6 14.5 -11t-3.5 -17
l-28 -77q-5 -11 -11 -12t-20 3q-26 8 -51 13t-48 5q-30 0 -50.5 -12t-33.5 -32t-19 -46.5t-6 -56.5q0 -31 5 -57t18 -45t34.5 -29.5t54.5 -10.5z" />
    <glyph glyph-name="egrave" unicode="&#xe8;" horiz-adv-x="568" 
d="M293 538q117 0 175.5 -58.5t58.5 -167.5q0 -52 -20 -71t-55 -19h-256q1 -32 10.5 -53t25.5 -34t37.5 -18t46.5 -5q29 0 59 7t56 18q12 4 16.5 2.5t8.5 -9.5l32 -72q4 -9 1.5 -14t-10.5 -10q-37 -24 -86 -34.5t-91 -10.5q-131 0 -194 65t-63 206q0 66 17.5 117.5t50 87.5
t78 54.5t102.5 18.5zM352 611q5 -10 2 -13.5t-11 -5.5l-55 -20q-8 -2 -12.5 -0.5t-10.5 9.5l-116 172q-4 5 -2.5 10.5t9.5 7.5l104 26q11 2 15.5 -1t7.5 -10zM296 418q-41 0 -67 -29t-30 -74h187q0 22 -4.5 41t-14.5 32.5t-27 21.5t-44 8z" />
    <glyph glyph-name="eacute" unicode="&#xe9;" horiz-adv-x="568" 
d="M293 538q117 0 175.5 -58.5t58.5 -167.5q0 -52 -20 -71t-55 -19h-256q1 -32 10.5 -53t25.5 -34t37.5 -18t46.5 -5q29 0 59 7t56 18q12 4 16.5 2.5t8.5 -9.5l32 -72q4 -9 1.5 -14t-10.5 -10q-37 -24 -86 -34.5t-91 -10.5q-131 0 -194 65t-63 206q0 66 17.5 117.5t50 87.5
t78 54.5t102.5 18.5zM244 591q-9 3 -10 7.5t2 12.5l70 174q5 14 12.5 14t18.5 -3l95 -25q16 -4 8 -18l-117 -172q-6 -9 -10.5 -10t-12.5 1zM296 418q-41 0 -67 -29t-30 -74h187q0 22 -4.5 41t-14.5 32.5t-27 21.5t-44 8z" />
    <glyph glyph-name="ecircumflex" unicode="&#xea;" horiz-adv-x="568" 
d="M293 538q117 0 175.5 -58.5t58.5 -167.5q0 -52 -20 -71t-55 -19h-256q1 -32 10.5 -53t25.5 -34t37.5 -18t46.5 -5q29 0 59 7t56 18q12 4 16.5 2.5t8.5 -9.5l32 -72q4 -9 1.5 -14t-10.5 -10q-37 -24 -86 -34.5t-91 -10.5q-131 0 -194 65t-63 206q0 66 17.5 117.5t50 87.5
t78 54.5t102.5 18.5zM492 622q8 -8 7.5 -13.5t-8.5 -13.5l-29 -28q-7 -5 -12.5 -5t-15.5 7l-139 98l-134 -100q-8 -5 -13.5 -5t-13.5 7l-30 28q-6 7 -5.5 11.5t5.5 12.5l131 137q14 14 29 22.5t30 8.5q22 0 36 -7t29 -24zM296 418q-41 0 -67 -29t-30 -74h187q0 22 -4.5 41
t-14.5 32.5t-27 21.5t-44 8z" />
    <glyph glyph-name="edieresis" unicode="&#xeb;" horiz-adv-x="568" 
d="M293 538q117 0 175.5 -58.5t58.5 -167.5q0 -52 -20 -71t-55 -19h-256q1 -32 10.5 -53t25.5 -34t37.5 -18t46.5 -5q29 0 59 7t56 18q12 4 16.5 2.5t8.5 -9.5l32 -72q4 -9 1.5 -14t-10.5 -10q-37 -24 -86 -34.5t-91 -10.5q-131 0 -194 65t-63 206q0 66 17.5 117.5t50 87.5
t78 54.5t102.5 18.5zM477 671q0 -15 -6 -28t-16.5 -23t-23.5 -16t-28 -6t-28.5 6t-24 16t-16.5 23t-6 28q0 30 22.5 52t52.5 22q15 0 28 -6t23.5 -16t16.5 -23.5t6 -28.5zM272 671q0 -15 -6 -28t-16.5 -23t-24 -16t-28.5 -6t-28 6t-23.5 16t-16.5 23t-6 28t6 28.5t16.5 23.5
t23.5 16t28 6t28.5 -6t24 -16t16.5 -23.5t6 -28.5zM296 418q-41 0 -67 -29t-30 -74h187q0 22 -4.5 41t-14.5 32.5t-27 21.5t-44 8z" />
    <glyph glyph-name="igrave" unicode="&#xec;" horiz-adv-x="314" 
d="M230 18q0 -11 -3.5 -14.5t-17.5 -3.5h-103q-11 0 -16 3.5t-5 14.5v489q0 11 5 14.5t16 3.5h103q14 0 17.5 -3.5t3.5 -14.5v-489zM218 611q5 -10 2 -13.5t-11 -5.5l-55 -20q-8 -2 -12.5 -0.5t-10.5 9.5l-116 172q-4 5 -2.5 10.5t9.5 7.5l104 26q11 2 15.5 -1t7.5 -10z" />
    <glyph glyph-name="iacute" unicode="&#xed;" horiz-adv-x="314" 
d="M230 18q0 -11 -3.5 -14.5t-17.5 -3.5h-103q-11 0 -16 3.5t-5 14.5v489q0 11 5 14.5t16 3.5h103q14 0 17.5 -3.5t3.5 -14.5v-489zM109 591q-9 3 -10 7.5t2 12.5l70 174q5 14 12.5 14t18.5 -3l95 -25q16 -4 8 -18l-117 -172q-6 -9 -10.5 -10t-12.5 1z" />
    <glyph glyph-name="icircumflex" unicode="&#xee;" horiz-adv-x="314" 
d="M230 18q0 -11 -3.5 -14.5t-17.5 -3.5h-103q-11 0 -16 3.5t-5 14.5v489q0 11 5 14.5t16 3.5h103q14 0 17.5 -3.5t3.5 -14.5v-489zM356 622q8 -8 7.5 -13.5t-8.5 -13.5l-29 -28q-7 -5 -12.5 -5t-15.5 7l-139 98l-134 -100q-8 -5 -13.5 -5t-13.5 7l-30 28q-6 7 -5.5 11.5
t5.5 12.5l131 137q14 14 29 22.5t30 8.5q22 0 36 -7t29 -24z" />
    <glyph glyph-name="idieresis" unicode="&#xef;" horiz-adv-x="314" 
d="M230 18q0 -11 -3.5 -14.5t-17.5 -3.5h-103q-11 0 -16 3.5t-5 14.5v489q0 11 5 14.5t16 3.5h103q14 0 17.5 -3.5t3.5 -14.5v-489zM339 666q0 -15 -6 -28t-16.5 -23t-23.5 -16t-28 -6t-28.5 6t-24 16t-16.5 23t-6 28q0 30 22.5 52t52.5 22q15 0 28 -6t23.5 -16t16.5 -23.5
t6 -28.5zM134 666q0 -15 -6 -28t-16.5 -23t-24 -16t-28.5 -6t-28 6t-23.5 16t-16.5 23t-6 28t6 28.5t16.5 23.5t23.5 16t28 6t28.5 -6t24 -16t16.5 -23.5t6 -28.5z" />
    <glyph glyph-name="eth" unicode="&#xf0;" horiz-adv-x="597" 
d="M385 466q-11 32 -27.5 60t-38.5 51l-70 -51q-11 -9 -19 3l-16 23q-5 6 -3.5 9.5t6.5 8.5l60 45q-17 14 -34.5 27t-37.5 24q-11 7 -12 12t3 12l27 48q6 10 12.5 10.5t17.5 -4.5q32 -13 59.5 -29t53.5 -35l67 51q8 6 12.5 6t9.5 -7l17 -22q5 -7 4.5 -10t-6.5 -8l-59 -45
q72 -66 106.5 -156t34.5 -191q0 -31 -4 -66t-14.5 -69t-29 -65t-47.5 -55t-70 -38t-97 -14q-72 0 -119.5 21t-75.5 55t-39 77t-11 86q0 46 13.5 91t42.5 79.5t73 56t106 21.5q22 0 47.5 -3.5t52.5 -14.5zM297 361q-29 0 -48.5 -11t-31.5 -28t-17 -38.5t-5 -43.5
q0 -20 2.5 -42.5t12.5 -41t29 -31t51 -12.5t52.5 13t32.5 34t16.5 48t4.5 55q0 21 -2 40t-4 33q-27 15 -51 20t-42 5z" />
    <glyph glyph-name="ntilde" unicode="&#xf1;" horiz-adv-x="609" 
d="M278 418q-10 0 -28.5 -0.5t-39.5 -4.5v-395q0 -11 -3.5 -14.5t-17.5 -3.5h-103q-11 0 -16 3.5t-5 14.5v429q0 34 12 53.5t50 27.5q10 2 28.5 3.5t39.5 3t41.5 2.5t35.5 1q70 0 121 -14t84.5 -44.5t50 -80t16.5 -120.5v-261q0 -11 -3.5 -14.5t-17.5 -3.5h-104
q-11 0 -16 3.5t-5 14.5v270q0 33 -5.5 57t-19 40.5t-37 24.5t-58.5 8zM346 599q-18 0 -36 6.5t-35 14t-34 14t-35 6.5q-27 0 -47 -31q-6 -9 -10.5 -11.5t-12.5 2.5l-44 25q-9 5 -9.5 10t3.5 13q19 38 46.5 61.5t72.5 23.5q19 0 36 -6.5t33.5 -14t32.5 -13.5t32 -6t26.5 7.5
t20.5 24.5q6 11 9 12t12 -2l50 -17q10 -3 11 -7.5t-3 -14.5q-19 -42 -46.5 -69.5t-72.5 -27.5z" />
    <glyph glyph-name="ograve" unicode="&#xf2;" horiz-adv-x="595" 
d="M550 265q0 -132 -63 -204t-192 -72q-130 0 -190 72t-60 202q0 64 17.5 115.5t50 86.5t79 54t105.5 19q126 0 189.5 -72.5t63.5 -200.5zM399 262q0 34 -5 62t-17 48t-31 31.5t-47 11.5q-53 0 -78.5 -40.5t-25.5 -109.5q0 -75 23.5 -114t77.5 -39q28 0 47.5 11.5t32 32
t18 47.5t5.5 59zM369 611q5 -10 2 -13.5t-11 -5.5l-55 -20q-8 -2 -12.5 -0.5t-10.5 9.5l-116 172q-4 5 -2.5 10.5t9.5 7.5l104 26q11 2 15.5 -1t7.5 -10z" />
    <glyph glyph-name="oacute" unicode="&#xf3;" horiz-adv-x="595" 
d="M550 265q0 -132 -63 -204t-192 -72q-130 0 -190 72t-60 202q0 64 17.5 115.5t50 86.5t79 54t105.5 19q126 0 189.5 -72.5t63.5 -200.5zM399 262q0 34 -5 62t-17 48t-31 31.5t-47 11.5q-53 0 -78.5 -40.5t-25.5 -109.5q0 -75 23.5 -114t77.5 -39q28 0 47.5 11.5t32 32
t18 47.5t5.5 59zM246 591q-9 3 -10 7.5t2 12.5l70 174q5 14 12.5 14t18.5 -3l95 -25q16 -4 8 -18l-117 -172q-6 -9 -10.5 -10t-12.5 1z" />
    <glyph glyph-name="ocircumflex" unicode="&#xf4;" horiz-adv-x="595" 
d="M550 265q0 -132 -63 -204t-192 -72q-130 0 -190 72t-60 202q0 64 17.5 115.5t50 86.5t79 54t105.5 19q126 0 189.5 -72.5t63.5 -200.5zM399 262q0 34 -5 62t-17 48t-31 31.5t-47 11.5q-53 0 -78.5 -40.5t-25.5 -109.5q0 -75 23.5 -114t77.5 -39q28 0 47.5 11.5t32 32
t18 47.5t5.5 59zM496 622q8 -8 7.5 -13.5t-8.5 -13.5l-29 -28q-7 -5 -12.5 -5t-15.5 7l-139 98l-134 -100q-8 -5 -13.5 -5t-13.5 7l-30 28q-6 7 -5.5 11.5t5.5 12.5l131 137q14 14 29 22.5t30 8.5q22 0 36 -7t29 -24z" />
    <glyph glyph-name="otilde" unicode="&#xf5;" horiz-adv-x="595" 
d="M550 265q0 -132 -63 -204t-192 -72q-130 0 -190 72t-60 202q0 64 17.5 115.5t50 86.5t79 54t105.5 19q126 0 189.5 -72.5t63.5 -200.5zM399 262q0 34 -5 62t-17 48t-31 31.5t-47 11.5q-53 0 -78.5 -40.5t-25.5 -109.5q0 -75 23.5 -114t77.5 -39q28 0 47.5 11.5t32 32
t18 47.5t5.5 59zM371 605q-18 0 -36 6.5t-35 14t-34 14t-35 6.5q-27 0 -47 -31q-6 -9 -10.5 -11.5t-12.5 2.5l-44 25q-9 5 -9.5 10t3.5 13q19 38 46.5 61.5t72.5 23.5q19 0 36 -6.5t33.5 -14t32.5 -13.5t32 -6t26.5 7.5t20.5 24.5q6 11 9 12t12 -2l50 -17q10 -3 11 -7.5
t-3 -14.5q-19 -42 -46.5 -69.5t-72.5 -27.5z" />
    <glyph glyph-name="odieresis" unicode="&#xf6;" horiz-adv-x="595" 
d="M550 265q0 -132 -63 -204t-192 -72q-130 0 -190 72t-60 202q0 64 17.5 115.5t50 86.5t79 54t105.5 19q126 0 189.5 -72.5t63.5 -200.5zM399 262q0 34 -5 62t-17 48t-31 31.5t-47 11.5q-53 0 -78.5 -40.5t-25.5 -109.5q0 -75 23.5 -114t77.5 -39q28 0 47.5 11.5t32 32
t18 47.5t5.5 59zM474 671q0 -15 -6 -28t-16.5 -23t-23.5 -16t-28 -6t-28.5 6t-24 16t-16.5 23t-6 28q0 30 22.5 52t52.5 22q15 0 28 -6t23.5 -16t16.5 -23.5t6 -28.5zM269 671q0 -15 -6 -28t-16.5 -23t-24 -16t-28.5 -6t-28 6t-23.5 16t-16.5 23t-6 28t6 28.5t16.5 23.5
t23.5 16t28 6t28.5 -6t24 -16t16.5 -23.5t6 -28.5z" />
    <glyph glyph-name="divide" unicode="&#xf7;" 
d="M422 542q0 -38 -27 -64t-66 -26q-38 0 -65 25.5t-27 64.5q0 37 27 62.5t65 25.5q40 0 66.5 -25t26.5 -63zM422 140q0 -19 -7 -35.5t-20 -28.5t-30 -19t-36 -7t-35.5 7t-29 19t-20 28.5t-7.5 35.5q0 18 7.5 34.5t20 28.5t29 19t35.5 7q40 0 66.5 -25.5t26.5 -63.5z
M580 305q0 -21 -20 -21h-467q-20 0 -20 20v80q0 12 4 16t15 4h469q19 0 19 -20v-79z" />
    <glyph glyph-name="oslash" unicode="&#xf8;" horiz-adv-x="595" 
d="M550 265q0 -132 -63 -204t-192 -72q-54 0 -95.5 13t-71.5 37l-40 -44q-10 -10 -17 -2l-15 13q-6 5 -5 9t6 9l41 46q-28 35 -40.5 83.5t-12.5 109.5q0 64 17.5 115.5t50 86.5t79 54t105.5 19q107 0 171 -55l39 45q6 6 9.5 6.5t8.5 -4.5l15 -13q5 -5 5.5 -8.5t-4.5 -9.5
l-43 -48q52 -70 52 -186zM195 265q0 -45 9 -78l168 191q-23 37 -73 37q-53 0 -78.5 -40.5t-25.5 -109.5zM399 262q0 20 -1.5 37.5t-6.5 33.5l-168 -189q24 -32 73 -32q28 0 47.5 11.5t32 32t18 47.5t5.5 59z" />
    <glyph glyph-name="ugrave" unicode="&#xf9;" horiz-adv-x="600" 
d="M322 108q10 0 28.5 1t39.5 4v394q0 11 3.5 15t17.5 4h103q21 0 21 -19v-427q0 -34 -13.5 -54t-48.5 -28q-12 -2 -30 -4t-38.5 -3.5t-40.5 -2t-35 -0.5q-72 0 -122.5 14t-82 45t-45.5 80.5t-14 120.5v259q0 11 3.5 15t17.5 4h104q21 0 21 -19v-268q0 -33 4 -57.5t16 -41
t34 -24.5t57 -8zM370 611q5 -10 2 -13.5t-11 -5.5l-55 -20q-8 -2 -12.5 -0.5t-10.5 9.5l-116 172q-4 5 -2.5 10.5t9.5 7.5l104 26q11 2 15.5 -1t7.5 -10z" />
    <glyph glyph-name="uacute" unicode="&#xfa;" horiz-adv-x="600" 
d="M322 108q10 0 28.5 1t39.5 4v394q0 11 3.5 15t17.5 4h103q21 0 21 -19v-427q0 -34 -13.5 -54t-48.5 -28q-12 -2 -30 -4t-38.5 -3.5t-40.5 -2t-35 -0.5q-72 0 -122.5 14t-82 45t-45.5 80.5t-14 120.5v259q0 11 3.5 15t17.5 4h104q21 0 21 -19v-268q0 -33 4 -57.5t16 -41
t34 -24.5t57 -8zM249 591q-9 3 -10 7.5t2 12.5l70 174q5 14 12.5 14t18.5 -3l95 -25q16 -4 8 -18l-117 -172q-6 -9 -10.5 -10t-12.5 1z" />
    <glyph glyph-name="ucircumflex" unicode="&#xfb;" horiz-adv-x="600" 
d="M322 108q10 0 28.5 1t39.5 4v394q0 11 3.5 15t17.5 4h103q21 0 21 -19v-427q0 -34 -13.5 -54t-48.5 -28q-12 -2 -30 -4t-38.5 -3.5t-40.5 -2t-35 -0.5q-72 0 -122.5 14t-82 45t-45.5 80.5t-14 120.5v259q0 11 3.5 15t17.5 4h104q21 0 21 -19v-268q0 -33 4 -57.5t16 -41
t34 -24.5t57 -8zM504 622q8 -8 7.5 -13.5t-8.5 -13.5l-29 -28q-7 -5 -12.5 -5t-15.5 7l-139 98l-134 -100q-8 -5 -13.5 -5t-13.5 7l-30 28q-6 7 -5.5 11.5t5.5 12.5l131 137q14 14 29 22.5t30 8.5q22 0 36 -7t29 -24z" />
    <glyph glyph-name="udieresis" unicode="&#xfc;" horiz-adv-x="600" 
d="M322 108q10 0 28.5 1t39.5 4v394q0 11 3.5 15t17.5 4h103q21 0 21 -19v-427q0 -34 -13.5 -54t-48.5 -28q-12 -2 -30 -4t-38.5 -3.5t-40.5 -2t-35 -0.5q-72 0 -122.5 14t-82 45t-45.5 80.5t-14 120.5v259q0 11 3.5 15t17.5 4h104q21 0 21 -19v-268q0 -33 4 -57.5t16 -41
t34 -24.5t57 -8zM487 672q0 -15 -6 -28t-16.5 -23t-23.5 -16t-28 -6t-28.5 6t-24 16t-16.5 23t-6 28q0 30 22.5 52t52.5 22q15 0 28 -6t23.5 -16t16.5 -23.5t6 -28.5zM282 672q0 -15 -6 -28t-16.5 -23t-24 -16t-28.5 -6t-28 6t-23.5 16t-16.5 23t-6 28t6 28.5t16.5 23.5
t23.5 16t28 6t28.5 -6t24 -16t16.5 -23.5t6 -28.5z" />
    <glyph glyph-name="yacute" unicode="&#xfd;" horiz-adv-x="559" 
d="M348 -87q-23 -69 -66 -98.5t-114 -29.5q-20 0 -46.5 3t-52.5 11q-12 3 -15.5 7t-0.5 15l17 79q3 12 7 13t15 -1q16 -3 27 -4t22 -1q35 0 55 11.5t31 46.5l18 54h-29q-23 0 -33 8t-19 35l-152 444q-4 11 0.5 15t12.5 4h117q15 0 20.5 -3.5t8.5 -14.5l57 -202l47 -174h6
l51 177l60 197q3 11 8 15.5t20 4.5h119q17 0 11 -16l-202 -597v1zM245 591q-9 3 -10 7.5t2 12.5l70 174q5 14 12.5 14t18.5 -3l95 -25q16 -4 8 -18l-117 -172q-6 -9 -10.5 -10t-12.5 1z" />
    <glyph glyph-name="thorn" unicode="&#xfe;" horiz-adv-x="604" 
d="M211 -187q0 -11 -3.5 -14t-17.5 -3h-104q-11 0 -16 3t-5 14v887q0 11 4.5 15.5t16.5 4.5h104q14 0 17.5 -5t3.5 -16v-171q24 4 48 6t47 2q71 0 119.5 -21.5t78 -58t42.5 -86.5t13 -107q0 -56 -14 -105.5t-43 -86.5t-73.5 -58.5t-104.5 -21.5q-30 0 -55.5 2.5t-57.5 9.5
v-190zM407 266q0 41 -8 69t-23.5 45t-38 24t-50.5 7q-14 0 -36.5 -3t-39.5 -8v-273q26 -7 46.5 -9t36.5 -2q50 0 81.5 34t31.5 116z" />
    <glyph glyph-name="ydieresis" unicode="&#xff;" horiz-adv-x="559" 
d="M348 -87q-23 -69 -66 -98.5t-114 -29.5q-20 0 -46.5 3t-52.5 11q-12 3 -15.5 7t-0.5 15l17 79q3 12 7 13t15 -1q16 -3 27 -4t22 -1q35 0 55 11.5t31 46.5l18 54h-29q-23 0 -33 8t-19 35l-152 444q-4 11 0.5 15t12.5 4h117q15 0 20.5 -3.5t8.5 -14.5l57 -202l47 -174h6
l51 177l60 197q3 11 8 15.5t20 4.5h119q17 0 11 -16l-202 -597v1zM462 669q0 -15 -6 -28t-16.5 -23t-23.5 -16t-28 -6t-28.5 6t-24 16t-16.5 23t-6 28q0 30 22.5 52t52.5 22q15 0 28 -6t23.5 -16t16.5 -23.5t6 -28.5zM257 669q0 -15 -6 -28t-16.5 -23t-24 -16t-28.5 -6
t-28 6t-23.5 16t-16.5 23t-6 28t6 28.5t16.5 23.5t23.5 16t28 6t28.5 -6t24 -16t16.5 -23.5t6 -28.5z" />
    <glyph glyph-name="Amacron" unicode="&#x100;" horiz-adv-x="655" 
d="M441 146h-229l-39 -127q-3 -10 -8.5 -14.5t-19.5 -4.5h-117q-11 0 -13.5 6t-0.5 14l208 627q5 17 11.5 27.5t15 16.5t20 8.5t26.5 2.5h60q17 0 29 -1.5t21 -7.5t15.5 -17t12.5 -29l208 -627q2 -6 0 -13t-13 -7h-119q-11 0 -18.5 2.5t-10.5 13.5zM248 270h157l-38 127
l-37 143h-6l-38 -143zM481 786q0 -21 -20 -21h-271q-20 0 -20 21v60q0 14 4.5 17.5t15.5 3.5h271q11 0 15.5 -3.5t4.5 -17.5v-60z" />
    <glyph glyph-name="amacron" unicode="&#x101;" horiz-adv-x="576" 
d="M511 65q0 -13 -3.5 -22t-17.5 -17q-23 -11 -49.5 -18t-54 -11t-55.5 -6t-53 -2q-68 0 -112.5 13t-71.5 35.5t-38 53t-11 65.5q0 39 13 71.5t39 56.5t65.5 37.5t93.5 13.5h110v16q0 14 -3 27t-12.5 22.5t-26.5 15.5t-45 6q-15 0 -34 -1.5t-38 -4t-37 -6t-32 -7.5
q-13 -3 -18 0t-7 13l-16 70q-3 11 -0.5 15.5t10.5 7.5q45 16 94.5 23t98.5 7q109 0 160 -46.5t51 -137.5v-290zM365 238h-79q-14 0 -30 -2t-29.5 -9.5t-22.5 -21.5t-9 -38q0 -35 23.5 -49t63.5 -14q6 0 16 0.5t21.5 2t23.5 4t22 6.5v121zM447 635q0 -21 -20 -21h-271
q-20 0 -20 21v60q0 14 4.5 17.5t15.5 3.5h271q11 0 15.5 -3.5t4.5 -17.5v-60z" />
    <glyph glyph-name="Abreve" unicode="&#x102;" horiz-adv-x="655" 
d="M441 146h-229l-39 -127q-3 -10 -8.5 -14.5t-19.5 -4.5h-117q-11 0 -13.5 6t-0.5 14l208 627q5 17 11.5 27.5t15 16.5t20 8.5t26.5 2.5h60q17 0 29 -1.5t21 -7.5t15.5 -17t12.5 -29l208 -627q2 -6 0 -13t-13 -7h-119q-11 0 -18.5 2.5t-10.5 13.5zM248 270h157l-38 127
l-37 143h-6l-38 -143zM318 739q-30 0 -56.5 9.5t-50 26t-43 37t-35.5 43.5q-2 3 -4 8.5t7 13.5l39 38q10 8 13.5 5.5t11.5 -8.5q32 -32 63.5 -50t60.5 -18q12 0 24.5 2.5t27.5 10t33 21t42 36.5q10 8 14 7.5t9 -5.5l38 -33q10 -9 8.5 -14t-4.5 -9q-91 -121 -198 -121z" />
    <glyph glyph-name="abreve" unicode="&#x103;" horiz-adv-x="576" 
d="M511 65q0 -13 -3.5 -22t-17.5 -17q-23 -11 -49.5 -18t-54 -11t-55.5 -6t-53 -2q-68 0 -112.5 13t-71.5 35.5t-38 53t-11 65.5q0 39 13 71.5t39 56.5t65.5 37.5t93.5 13.5h110v16q0 14 -3 27t-12.5 22.5t-26.5 15.5t-45 6q-15 0 -34 -1.5t-38 -4t-37 -6t-32 -7.5
q-13 -3 -18 0t-7 13l-16 70q-3 11 -0.5 15.5t10.5 7.5q45 16 94.5 23t98.5 7q109 0 160 -46.5t51 -137.5v-290zM365 238h-79q-14 0 -30 -2t-29.5 -9.5t-22.5 -21.5t-9 -38q0 -35 23.5 -49t63.5 -14q6 0 16 0.5t21.5 2t23.5 4t22 6.5v121zM287 579q-30 0 -56.5 9.5t-50 26
t-43 37t-35.5 43.5q-2 3 -4 8.5t7 13.5l39 38q10 8 13.5 5.5t11.5 -8.5q32 -32 63.5 -50t60.5 -18q12 0 24.5 2.5t27.5 10t33 21t42 36.5q10 8 14 7.5t9 -5.5l38 -33q10 -9 8.5 -14t-4.5 -9q-91 -121 -198 -121z" />
    <glyph glyph-name="Aogonek" unicode="&#x104;" horiz-adv-x="655" 
d="M441 146h-229l-39 -127q-3 -10 -8.5 -14.5t-19.5 -4.5h-117q-11 0 -13.5 6t-0.5 14l208 627q5 17 11.5 27.5t15 16.5t20 8.5t26.5 2.5h60q17 0 29 -1.5t21 -7.5t15.5 -17t12.5 -29l208 -627q2 -6 0 -13t-13 -7h-75q-33 -33 -47 -60.5t-14 -49.5q0 -40 53 -40q10 0 27 1.5
t31 4.5q9 2 13.5 1t6.5 -9l10 -37q3 -9 0 -13.5t-8 -7.5q-30 -12 -63 -17t-62 -5q-60 0 -86 25.5t-27 62.5q0 18 7 39.5t19.5 42.5t30 40t38.5 33q-2 2 -2 5zM248 270h157l-38 127l-37 143h-6l-38 -143z" />
    <glyph glyph-name="aogonek" unicode="&#x105;" horiz-adv-x="576" 
d="M511 65q0 -13 -3.5 -22t-17.5 -17q-1 -1 -3 -1q-30 -31 -42.5 -57t-12.5 -47q0 -40 53 -40q10 0 27 1.5t31 4.5q9 2 13.5 1t6.5 -9l10 -37q3 -9 0 -13.5t-8 -7.5q-30 -12 -63 -17t-62 -5q-60 0 -86 25.5t-27 62.5q0 24 11.5 53t32.5 55q-48 -6 -93 -6q-68 0 -112.5 13
t-71.5 35.5t-38 53t-11 65.5q0 39 13 71.5t39 56.5t65.5 37.5t93.5 13.5h110v16q0 14 -3 27t-12.5 22.5t-26.5 15.5t-45 6q-15 0 -34 -1.5t-38 -4t-37 -6t-32 -7.5q-13 -3 -18 0t-7 13l-16 70q-3 11 -0.5 15.5t10.5 7.5q45 16 94.5 23t98.5 7q109 0 160 -46.5t51 -137.5
v-290zM365 238h-79q-14 0 -30 -2t-29.5 -9.5t-22.5 -21.5t-9 -38q0 -35 23.5 -49t63.5 -14q6 0 16 0.5t21.5 2t23.5 4t22 6.5v121z" />
    <glyph glyph-name="Cacute" unicode="&#x106;" horiz-adv-x="643" 
d="M388 127q48 0 85 11.5t69 23.5q14 6 20 2.5t11 -14.5l34 -72q7 -14 5 -21t-11 -12q-54 -33 -113.5 -44.5t-117.5 -11.5q-82 0 -141.5 24.5t-98 70.5t-57 112.5t-18.5 149.5q0 82 23.5 149t65.5 115t101.5 74t131.5 26q51 0 100 -8.5t96 -34.5q11 -6 13 -12t-5 -23
l-31 -69q-5 -14 -10.5 -17t-19.5 2q-36 13 -67 19.5t-69 6.5q-41 0 -72.5 -17.5t-53 -48t-32.5 -72t-11 -90.5t8.5 -89t29 -69t53.5 -45t82 -16zM450 941q6 5 11 7t13 -6l69 -79q6 -6 5 -11.5t-7 -7.5l-193 -99q-10 -5 -14.5 -3.5t-9.5 6.5l-38 46q-5 6 -5.5 10t7.5 11z" />
    <glyph glyph-name="cacute" unicode="&#x107;" horiz-adv-x="511" 
d="M308 119q32 0 62.5 7.5t52.5 15.5q13 5 17.5 3.5t8.5 -12.5l28 -75q5 -10 4.5 -16t-11.5 -12q-44 -24 -94 -32.5t-91 -8.5q-118 0 -179 68t-61 204q0 64 17.5 115.5t49.5 87.5t78.5 55t103.5 19q42 0 83 -8.5t75 -25.5q13 -6 14.5 -11t-3.5 -17l-28 -77q-5 -11 -11 -12
t-20 3q-26 8 -51 13t-48 5q-30 0 -50.5 -12t-33.5 -32t-19 -46.5t-6 -56.5q0 -31 5 -57t18 -45t34.5 -29.5t54.5 -10.5zM234 591q-9 3 -10 7.5t2 12.5l70 174q5 14 12.5 14t18.5 -3l95 -25q16 -4 8 -18l-117 -172q-6 -9 -10.5 -10t-12.5 1z" />
    <glyph glyph-name="Ccircumflex" unicode="&#x108;" horiz-adv-x="643" 
d="M388 127q48 0 85 11.5t69 23.5q14 6 20 2.5t11 -14.5l34 -72q7 -14 5 -21t-11 -12q-54 -33 -113.5 -44.5t-117.5 -11.5q-82 0 -141.5 24.5t-98 70.5t-57 112.5t-18.5 149.5q0 82 23.5 149t65.5 115t101.5 74t131.5 26q51 0 100 -8.5t96 -34.5q11 -6 13 -12t-5 -23
l-31 -69q-5 -14 -10.5 -17t-19.5 2q-36 13 -67 19.5t-69 6.5q-41 0 -72.5 -17.5t-53 -48t-32.5 -72t-11 -90.5t8.5 -89t29 -69t53.5 -45t82 -16zM561 796q9 -8 9 -13.5t-7 -12.5l-28 -31q-6 -7 -13 -5.5t-15 6.5l-142 77l-138 -75q-8 -5 -14 -5.5t-13 7.5l-26 27
q-6 8 -6.5 12.5t6.5 11.5l133 115q14 12 29.5 19t28.5 7q29 0 61 -26z" />
    <glyph glyph-name="ccircumflex" unicode="&#x109;" horiz-adv-x="511" 
d="M308 119q32 0 62.5 7.5t52.5 15.5q13 5 17.5 3.5t8.5 -12.5l28 -75q5 -10 4.5 -16t-11.5 -12q-44 -24 -94 -32.5t-91 -8.5q-118 0 -179 68t-61 204q0 64 17.5 115.5t49.5 87.5t78.5 55t103.5 19q42 0 83 -8.5t75 -25.5q13 -6 14.5 -11t-3.5 -17l-28 -77q-5 -11 -11 -12
t-20 3q-26 8 -51 13t-48 5q-30 0 -50.5 -12t-33.5 -32t-19 -46.5t-6 -56.5q0 -31 5 -57t18 -45t34.5 -29.5t54.5 -10.5zM483 623q8 -8 7.5 -13.5t-8.5 -13.5l-29 -28q-7 -5 -12.5 -5t-15.5 7l-139 98l-134 -100q-8 -5 -13.5 -5t-13.5 7l-30 28q-6 7 -5.5 11.5t5.5 12.5
l131 137q14 14 29 22.5t30 8.5q22 0 36 -7t29 -24z" />
    <glyph glyph-name="Cdotaccent" unicode="&#x10a;" horiz-adv-x="643" 
d="M388 127q48 0 85 11.5t69 23.5q14 6 20 2.5t11 -14.5l34 -72q7 -14 5 -21t-11 -12q-54 -33 -113.5 -44.5t-117.5 -11.5q-82 0 -141.5 24.5t-98 70.5t-57 112.5t-18.5 149.5q0 82 23.5 149t65.5 115t101.5 74t131.5 26q51 0 100 -8.5t96 -34.5q11 -6 13 -12t-5 -23
l-31 -69q-5 -14 -10.5 -17t-19.5 2q-36 13 -67 19.5t-69 6.5q-41 0 -72.5 -17.5t-53 -48t-32.5 -72t-11 -90.5t8.5 -89t29 -69t53.5 -45t82 -16zM457 825q0 -35 -24.5 -58t-57.5 -23q-34 0 -58.5 23t-24.5 58q0 34 24.5 58t58.5 24q33 0 57.5 -24t24.5 -58z" />
    <glyph glyph-name="cdotaccent" unicode="&#x10b;" horiz-adv-x="511" 
d="M308 119q32 0 62.5 7.5t52.5 15.5q13 5 17.5 3.5t8.5 -12.5l28 -75q5 -10 4.5 -16t-11.5 -12q-44 -24 -94 -32.5t-91 -8.5q-118 0 -179 68t-61 204q0 64 17.5 115.5t49.5 87.5t78.5 55t103.5 19q42 0 83 -8.5t75 -25.5q13 -6 14.5 -11t-3.5 -17l-28 -77q-5 -11 -11 -12
t-20 3q-26 8 -51 13t-48 5q-30 0 -50.5 -12t-33.5 -32t-19 -46.5t-6 -56.5q0 -31 5 -57t18 -45t34.5 -29.5t54.5 -10.5zM371 673q0 -35 -24.5 -58t-57.5 -23q-34 0 -58.5 23t-24.5 58q0 34 24.5 58t58.5 24q33 0 57.5 -24t24.5 -58z" />
    <glyph glyph-name="Ccaron" unicode="&#x10c;" horiz-adv-x="643" 
d="M388 127q48 0 85 11.5t69 23.5q14 6 20 2.5t11 -14.5l34 -72q7 -14 5 -21t-11 -12q-54 -33 -113.5 -44.5t-117.5 -11.5q-82 0 -141.5 24.5t-98 70.5t-57 112.5t-18.5 149.5q0 82 23.5 149t65.5 115t101.5 74t131.5 26q51 0 100 -8.5t96 -34.5q11 -6 13 -12t-5 -23
l-31 -69q-5 -14 -10.5 -17t-19.5 2q-36 13 -67 19.5t-69 6.5q-41 0 -72.5 -17.5t-53 -48t-32.5 -72t-11 -90.5t8.5 -89t29 -69t53.5 -45t82 -16zM567 901q6 -7 6.5 -10.5t-8.5 -11.5l-136 -113q-21 -17 -33.5 -23t-29.5 -6q-10 0 -22.5 3.5t-23.5 13.5l-144 124
q-8 6 -8 10.5t6 10.5l31 34q7 7 12 5.5t13 -6.5l136 -77l147 80q8 4 13 5t11 -7z" />
    <glyph glyph-name="ccaron" unicode="&#x10d;" horiz-adv-x="511" 
d="M308 119q32 0 62.5 7.5t52.5 15.5q13 5 17.5 3.5t8.5 -12.5l28 -75q5 -10 4.5 -16t-11.5 -12q-44 -24 -94 -32.5t-91 -8.5q-118 0 -179 68t-61 204q0 64 17.5 115.5t49.5 87.5t78.5 55t103.5 19q42 0 83 -8.5t75 -25.5q13 -6 14.5 -11t-3.5 -17l-28 -77q-5 -11 -11 -12
t-20 3q-26 8 -51 13t-48 5q-30 0 -50.5 -12t-33.5 -32t-19 -46.5t-6 -56.5q0 -31 5 -57t18 -45t34.5 -29.5t54.5 -10.5zM278 691l140 99q8 6 12.5 7.5t12.5 -5.5l35 -29q8 -7 6.5 -13t-9.5 -14l-144 -145q-8 -9 -20.5 -13.5t-26.5 -5.5q-16 -1 -31.5 4t-26.5 17l-139 145
q-10 12 1 23l31 30q7 7 12.5 6t13.5 -7z" />
    <glyph glyph-name="Dcaron" unicode="&#x10e;" horiz-adv-x="697" 
d="M135 0q-36 0 -48 14.5t-12 46.5v578q0 32 12 47t48 15h187q88 0 149 -28t99 -75t55 -110.5t17 -133.5q0 -69 -15 -133t-51 -113t-95.5 -78.5t-147.5 -29.5h-198zM485 354q0 46 -8 85t-28.5 67.5t-55.5 45t-88 16.5h-78v-434h81q52 0 86.5 16.5t54.5 45.5t28 69.5t8 88.5z
M508 901q6 -7 6.5 -10.5t-8.5 -11.5l-136 -113q-21 -17 -33.5 -23t-29.5 -6q-10 0 -22.5 3.5t-23.5 13.5l-144 124q-8 6 -8 10.5t6 10.5l31 34q7 7 12 5.5t13 -6.5l136 -77l147 80q8 4 13 5t11 -7z" />
    <glyph glyph-name="dcaron" unicode="&#x10f;" horiz-adv-x="754" 
d="M45 258q0 56 14 107t43 89.5t75 61t109 22.5q26 0 50.5 -2t55.5 -9v183q0 12 4.5 16t17.5 4h102q11 0 16.5 -3.5t5.5 -16.5v-616v-22.5t-2 -22.5q-1 -11 -15 -20t-35.5 -15.5t-48 -11.5t-52.5 -7.5t-49 -4t-38 -1.5q-72 0 -120.5 20t-78 56t-42 85t-12.5 108zM196 256
q0 -80 31.5 -112t87.5 -32q14 0 37.5 3t39.5 9v279q-26 6 -46 8t-36 2q-51 0 -82.5 -37t-31.5 -120zM697 492q-4 -11 -7.5 -15.5t-14.5 -4.5h-45q-24 0 -22 18l14 199q0 8 4 14t17 6h101q14 0 17.5 -6t1.5 -14z" />
    <glyph glyph-name="Dcroat" unicode="&#x110;" horiz-adv-x="697" 
d="M135 0q-36 0 -48 14.5t-12 46.5v254h-47q-11 0 -14 4.5t-3 15.5v42q0 14 3 18t14 4h47v240q0 32 12 47t48 15h187q88 0 149 -28t99 -75t55 -110.5t17 -133.5q0 -69 -15 -133t-51 -113t-95.5 -78.5t-147.5 -29.5h-198zM485 354q0 46 -8 85t-28.5 67.5t-55.5 45t-88 16.5
h-77v-169h119q11 0 14 -4t3 -18v-42q0 -11 -3 -15.5t-14 -4.5h-119v-181h80q52 0 86.5 16.5t54.5 45.5t28 69.5t8 88.5z" />
    <glyph glyph-name="dcroat" unicode="&#x111;" horiz-adv-x="604" 
d="M45 249q0 55 13.5 103t40.5 84t69 58t99 26q11 1 20 1h19q19 -1 40 -3.5t46 -7.5v73h-141q-10 0 -12 4t-2 15v28q0 13 1.5 17t12.5 4h141v59q0 12 4.5 16t17.5 4h102q11 0 16.5 -3.5t5.5 -16.5v-59h38q11 0 13.5 -4t2.5 -17v-28q0 -11 -3 -15t-13 -4h-38v-525
q0 -11 -4 -18.5t-18 -12.5l-12 -6q-49 -18 -104 -25t-102 -7q-72 0 -120.5 19t-78 53.5t-42 82.5t-12.5 105zM196 247q0 -38 8 -64t23.5 -42t37.5 -22.5t50 -6.5q14 0 37.5 3t39.5 9v261q-26 8 -46 9.5t-36 1.5q-50 0 -82 -35t-32 -114z" />
    <glyph glyph-name="Emacron" unicode="&#x112;" horiz-adv-x="613" 
d="M576 23q0 -12 -4 -17.5t-16 -5.5h-296q-56 0 -91.5 16t-56.5 42t-29 59t-8 67v332q0 36 10 69t31.5 59t56.5 41.5t86 15.5h287q12 0 15.5 -5t3.5 -19v-85q0 -13 -4 -17.5t-15 -4.5h-254q-39 0 -52 -18t-13 -44v-77h287q12 0 15.5 -5t3.5 -19v-78q0 -12 -3.5 -17.5
t-15.5 -5.5h-287v-114q0 -35 16.5 -47.5t48.5 -12.5h264q13 0 16.5 -4.5t3.5 -19.5v-85zM508 789q0 -21 -20 -21h-271q-20 0 -20 21v60q0 14 4.5 17.5t15.5 3.5h271q11 0 15.5 -3.5t4.5 -17.5v-60z" />
    <glyph glyph-name="emacron" unicode="&#x113;" horiz-adv-x="568" 
d="M293 538q117 0 175.5 -58.5t58.5 -167.5q0 -52 -20 -71t-55 -19h-256q1 -32 10.5 -53t25.5 -34t37.5 -18t46.5 -5q29 0 59 7t56 18q12 4 16.5 2.5t8.5 -9.5l32 -72q4 -9 1.5 -14t-10.5 -10q-37 -24 -86 -34.5t-91 -10.5q-131 0 -194 65t-63 206q0 66 17.5 117.5t50 87.5
t78 54.5t102.5 18.5zM448 633q0 -21 -20 -21h-271q-20 0 -20 21v60q0 14 4.5 17.5t15.5 3.5h271q11 0 15.5 -3.5t4.5 -17.5v-60zM296 418q-41 0 -67 -29t-30 -74h187q0 22 -4.5 41t-14.5 32.5t-27 21.5t-44 8z" />
    <glyph glyph-name="Ebreve" unicode="&#x114;" horiz-adv-x="613" 
d="M576 23q0 -12 -4 -17.5t-16 -5.5h-296q-56 0 -91.5 16t-56.5 42t-29 59t-8 67v332q0 36 10 69t31.5 59t56.5 41.5t86 15.5h287q12 0 15.5 -5t3.5 -19v-85q0 -13 -4 -17.5t-15 -4.5h-254q-39 0 -52 -18t-13 -44v-77h287q12 0 15.5 -5t3.5 -19v-78q0 -12 -3.5 -17.5
t-15.5 -5.5h-287v-114q0 -35 16.5 -47.5t48.5 -12.5h264q13 0 16.5 -4.5t3.5 -19.5v-85zM339 735q-30 0 -56.5 9.5t-50 26t-43 37t-35.5 43.5q-2 3 -4 8.5t7 13.5l39 38q10 8 13.5 5.5t11.5 -8.5q32 -32 63.5 -50t60.5 -18q12 0 24.5 2.5t27.5 10t33 21t42 36.5q10 8 14 7.5
t9 -5.5l38 -33q10 -9 8.5 -14t-4.5 -9q-91 -121 -198 -121z" />
    <glyph glyph-name="ebreve" unicode="&#x115;" horiz-adv-x="568" 
d="M293 538q117 0 175.5 -58.5t58.5 -167.5q0 -52 -20 -71t-55 -19h-256q1 -32 10.5 -53t25.5 -34t37.5 -18t46.5 -5q29 0 59 7t56 18q12 4 16.5 2.5t8.5 -9.5l32 -72q4 -9 1.5 -14t-10.5 -10q-37 -24 -86 -34.5t-91 -10.5q-131 0 -194 65t-63 206q0 66 17.5 117.5t50 87.5
t78 54.5t102.5 18.5zM280 577q-30 0 -56.5 9.5t-50 26t-43 37t-35.5 43.5q-2 3 -4 8.5t7 13.5l39 38q10 8 13.5 5.5t11.5 -8.5q32 -32 63.5 -50t60.5 -18q12 0 24.5 2.5t27.5 10t33 21t42 36.5q10 8 14 7.5t9 -5.5l38 -33q10 -9 8.5 -14t-4.5 -9q-91 -121 -198 -121z
M296 418q-41 0 -67 -29t-30 -74h187q0 22 -4.5 41t-14.5 32.5t-27 21.5t-44 8z" />
    <glyph glyph-name="Edotaccent" unicode="&#x116;" horiz-adv-x="613" 
d="M576 23q0 -12 -4 -17.5t-16 -5.5h-296q-56 0 -91.5 16t-56.5 42t-29 59t-8 67v332q0 36 10 69t31.5 59t56.5 41.5t86 15.5h287q12 0 15.5 -5t3.5 -19v-85q0 -13 -4 -17.5t-15 -4.5h-254q-39 0 -52 -18t-13 -44v-77h287q12 0 15.5 -5t3.5 -19v-78q0 -12 -3.5 -17.5
t-15.5 -5.5h-287v-114q0 -35 16.5 -47.5t48.5 -12.5h264q13 0 16.5 -4.5t3.5 -19.5v-85zM424 821q0 -35 -24.5 -58t-57.5 -23q-34 0 -58.5 23t-24.5 58q0 34 24.5 58t58.5 24q33 0 57.5 -24t24.5 -58z" />
    <glyph glyph-name="edotaccent" unicode="&#x117;" horiz-adv-x="568" 
d="M293 538q117 0 175.5 -58.5t58.5 -167.5q0 -52 -20 -71t-55 -19h-256q1 -32 10.5 -53t25.5 -34t37.5 -18t46.5 -5q29 0 59 7t56 18q12 4 16.5 2.5t8.5 -9.5l32 -72q4 -9 1.5 -14t-10.5 -10q-37 -24 -86 -34.5t-91 -10.5q-131 0 -194 65t-63 206q0 66 17.5 117.5t50 87.5
t78 54.5t102.5 18.5zM375 673q0 -35 -24.5 -58t-57.5 -23q-34 0 -58.5 23t-24.5 58q0 34 24.5 58t58.5 24q33 0 57.5 -24t24.5 -58zM296 418q-41 0 -67 -29t-30 -74h187q0 22 -4.5 41t-14.5 32.5t-27 21.5t-44 8z" />
    <glyph glyph-name="Eogonek" unicode="&#x118;" horiz-adv-x="613" 
d="M576 23q0 -12 -4 -17.5t-16 -5.5h-3q-32 -32 -45 -58.5t-13 -48.5q0 -40 53 -40q10 0 27 1.5t31 4.5q9 2 13.5 1t6.5 -9l10 -37q3 -9 0 -13.5t-8 -7.5q-30 -12 -63 -17t-62 -5q-60 0 -86 25.5t-27 62.5q0 33 20.5 72.5t55.5 68.5h-206q-56 0 -91.5 16t-56.5 42t-29 59
t-8 67v332q0 36 10 69t31.5 59t56.5 41.5t86 15.5h287q12 0 15.5 -5t3.5 -19v-85q0 -13 -4 -17.5t-15 -4.5h-254q-39 0 -52 -18t-13 -44v-77h287q12 0 15.5 -5t3.5 -19v-78q0 -12 -3.5 -17.5t-15.5 -5.5h-287v-114q0 -35 16.5 -47.5t48.5 -12.5h264q13 0 16.5 -4.5
t3.5 -19.5v-85v0z" />
    <glyph glyph-name="eogonek" unicode="&#x119;" horiz-adv-x="568" 
d="M293 538q117 0 175.5 -58.5t58.5 -167.5q0 -52 -20 -71t-55 -19h-256q1 -32 10.5 -53t25.5 -34t37.5 -18t46.5 -5q29 0 59 7t56 18q12 4 16.5 2.5t8.5 -9.5l32 -72q4 -9 1.5 -14t-10.5 -10q-4 -3 -12 -7q-33 -33 -46.5 -60t-13.5 -49q0 -40 53 -40q10 0 27 1.5t31 4.5
q9 2 13.5 1t6.5 -9l10 -37q3 -9 0 -13.5t-8 -7.5q-30 -12 -63 -17t-62 -5q-60 0 -86 25.5t-27 62.5q0 24 11.5 53t31.5 55q-23 -3 -43 -3q-131 0 -194 65t-63 206q0 66 17.5 117.5t50 87.5t78 54.5t102.5 18.5zM296 418q-41 0 -67 -29t-30 -74h187q0 22 -4.5 41t-14.5 32.5
t-27 21.5t-44 8z" />
    <glyph glyph-name="Ecaron" unicode="&#x11a;" horiz-adv-x="613" 
d="M576 23q0 -12 -4 -17.5t-16 -5.5h-296q-56 0 -91.5 16t-56.5 42t-29 59t-8 67v332q0 36 10 69t31.5 59t56.5 41.5t86 15.5h287q12 0 15.5 -5t3.5 -19v-85q0 -13 -4 -17.5t-15 -4.5h-254q-39 0 -52 -18t-13 -44v-77h287q12 0 15.5 -5t3.5 -19v-78q0 -12 -3.5 -17.5
t-15.5 -5.5h-287v-114q0 -35 16.5 -47.5t48.5 -12.5h264q13 0 16.5 -4.5t3.5 -19.5v-85zM531 901q6 -7 6.5 -10.5t-8.5 -11.5l-136 -113q-21 -17 -33.5 -23t-29.5 -6q-10 0 -22.5 3.5t-23.5 13.5l-144 124q-8 6 -8 10.5t6 10.5l31 34q7 7 12 5.5t13 -6.5l136 -77l147 80
q8 4 13 5t11 -7z" />
    <glyph glyph-name="ecaron" unicode="&#x11b;" horiz-adv-x="568" 
d="M293 538q117 0 175.5 -58.5t58.5 -167.5q0 -52 -20 -71t-55 -19h-256q1 -32 10.5 -53t25.5 -34t37.5 -18t46.5 -5q29 0 59 7t56 18q12 4 16.5 2.5t8.5 -9.5l32 -72q4 -9 1.5 -14t-10.5 -10q-37 -24 -86 -34.5t-91 -10.5q-131 0 -194 65t-63 206q0 66 17.5 117.5t50 87.5
t78 54.5t102.5 18.5zM282 691l140 99q8 6 12.5 7.5t12.5 -5.5l35 -29q8 -7 6.5 -13t-9.5 -14l-144 -145q-8 -9 -20.5 -13.5t-26.5 -5.5q-16 -1 -31.5 4t-26.5 17l-139 145q-10 12 1 23l31 30q7 7 12.5 6t13.5 -7zM296 418q-41 0 -67 -29t-30 -74h187q0 22 -4.5 41
t-14.5 32.5t-27 21.5t-44 8z" />
    <glyph glyph-name="Gcircumflex" unicode="&#x11c;" horiz-adv-x="692" 
d="M384 126q19 0 48 2.5t56 12.5l1 148q-35 2 -70 -4t-68 -20q-14 -5 -19.5 -5t-10.5 11l-26 81q-3 8 -2 14t12 11q35 17 82.5 28.5t95.5 11.5q26 0 48 -1.5t39 -5.5q22 -5 35 -14.5t20 -24t9 -33t2 -40.5v-210q0 -14 -4 -25.5t-20 -21.5q-30 -18 -65 -28t-68.5 -15.5
t-62.5 -7t-46 -1.5q-82 0 -141.5 24.5t-98 71t-57 112.5t-18.5 150q0 82 21 149t62.5 114.5t102 73.5t138.5 26q52 0 103 -8.5t98 -34.5q11 -6 13 -12t-6 -23l-31 -71q-5 -14 -10.5 -17t-19.5 2q-36 13 -69.5 19t-71.5 6q-44 0 -76 -17t-53 -47t-31 -71t-10 -90
q0 -50 8 -90.5t27.5 -69t52 -44.5t81.5 -16zM556 796q9 -8 9 -13.5t-7 -12.5l-28 -31q-6 -7 -13 -5.5t-15 6.5l-142 77l-138 -75q-8 -5 -14 -5.5t-13 7.5l-26 27q-6 8 -6.5 12.5t6.5 11.5l133 115q14 12 29.5 19t28.5 7q29 0 61 -26z" />
    <glyph glyph-name="gcircumflex" unicode="&#x11d;" horiz-adv-x="604" 
d="M539 54q0 -71 -18.5 -120.5t-54 -82.5t-87.5 -52t-119 -28q-11 -2 -15 0.5t-6 12.5l-13 96q-2 11 1.5 13.5t11.5 4.5q28 5 55.5 12t49 19.5t35 32t13.5 48.5v6q-26 -8 -56.5 -11.5t-60.5 -3.5q-60 0 -103.5 19t-71.5 53.5t-41.5 82.5t-13.5 107q0 57 15.5 107t47.5 87
t81.5 58t118.5 21q54 0 109.5 -8.5t101.5 -29.5q13 -7 16.5 -13.5t3.5 -17.5v-413zM196 266q0 -77 29.5 -109t81.5 -32q12 0 37 2.5t49 10.5v264q-20 6 -41.5 8.5t-35.5 2.5q-27 0 -49.5 -8t-38 -25t-24 -45t-8.5 -69zM511 622q8 -8 7.5 -13.5t-8.5 -13.5l-29 -28
q-7 -5 -12.5 -5t-15.5 7l-139 98l-134 -100q-8 -5 -13.5 -5t-13.5 7l-30 28q-6 7 -5.5 11.5t5.5 12.5l131 137q14 14 29 22.5t30 8.5q22 0 36 -7t29 -24z" />
    <glyph glyph-name="Gbreve" unicode="&#x11e;" horiz-adv-x="692" 
d="M384 126q19 0 48 2.5t56 12.5l1 148q-35 2 -70 -4t-68 -20q-14 -5 -19.5 -5t-10.5 11l-26 81q-3 8 -2 14t12 11q35 17 82.5 28.5t95.5 11.5q26 0 48 -1.5t39 -5.5q22 -5 35 -14.5t20 -24t9 -33t2 -40.5v-210q0 -14 -4 -25.5t-20 -21.5q-30 -18 -65 -28t-68.5 -15.5
t-62.5 -7t-46 -1.5q-82 0 -141.5 24.5t-98 71t-57 112.5t-18.5 150q0 82 21 149t62.5 114.5t102 73.5t138.5 26q52 0 103 -8.5t98 -34.5q11 -6 13 -12t-6 -23l-31 -71q-5 -14 -10.5 -17t-19.5 2q-36 13 -69.5 19t-71.5 6q-44 0 -76 -17t-53 -47t-31 -71t-10 -90
q0 -50 8 -90.5t27.5 -69t52 -44.5t81.5 -16zM356 738q-30 0 -56.5 9.5t-50 26t-43 37t-35.5 43.5q-2 3 -4 8.5t7 13.5l39 38q10 8 13.5 5.5t11.5 -8.5q32 -32 63.5 -50t60.5 -18q12 0 24.5 2.5t27.5 10t33 21t42 36.5q10 8 14 7.5t9 -5.5l38 -33q10 -9 8.5 -14t-4.5 -9
q-91 -121 -198 -121z" />
    <glyph glyph-name="gbreve" unicode="&#x11f;" horiz-adv-x="604" 
d="M539 54q0 -71 -18.5 -120.5t-54 -82.5t-87.5 -52t-119 -28q-11 -2 -15 0.5t-6 12.5l-13 96q-2 11 1.5 13.5t11.5 4.5q28 5 55.5 12t49 19.5t35 32t13.5 48.5v6q-26 -8 -56.5 -11.5t-60.5 -3.5q-60 0 -103.5 19t-71.5 53.5t-41.5 82.5t-13.5 107q0 57 15.5 107t47.5 87
t81.5 58t118.5 21q54 0 109.5 -8.5t101.5 -29.5q13 -7 16.5 -13.5t3.5 -17.5v-413zM196 266q0 -77 29.5 -109t81.5 -32q12 0 37 2.5t49 10.5v264q-20 6 -41.5 8.5t-35.5 2.5q-27 0 -49.5 -8t-38 -25t-24 -45t-8.5 -69zM305 580q-30 0 -56.5 9.5t-50 26t-43 37t-35.5 43.5
q-2 3 -4 8.5t7 13.5l39 38q10 8 13.5 5.5t11.5 -8.5q32 -32 63.5 -50t60.5 -18q12 0 24.5 2.5t27.5 10t33 21t42 36.5q10 8 14 7.5t9 -5.5l38 -33q10 -9 8.5 -14t-4.5 -9q-91 -121 -198 -121z" />
    <glyph glyph-name="Gdotaccent" unicode="&#x120;" horiz-adv-x="692" 
d="M384 126q19 0 48 2.5t56 12.5l1 148q-35 2 -70 -4t-68 -20q-14 -5 -19.5 -5t-10.5 11l-26 81q-3 8 -2 14t12 11q35 17 82.5 28.5t95.5 11.5q26 0 48 -1.5t39 -5.5q22 -5 35 -14.5t20 -24t9 -33t2 -40.5v-210q0 -14 -4 -25.5t-20 -21.5q-30 -18 -65 -28t-68.5 -15.5
t-62.5 -7t-46 -1.5q-82 0 -141.5 24.5t-98 71t-57 112.5t-18.5 150q0 82 21 149t62.5 114.5t102 73.5t138.5 26q52 0 103 -8.5t98 -34.5q11 -6 13 -12t-6 -23l-31 -71q-5 -14 -10.5 -17t-19.5 2q-36 13 -69.5 19t-71.5 6q-44 0 -76 -17t-53 -47t-31 -71t-10 -90
q0 -50 8 -90.5t27.5 -69t52 -44.5t81.5 -16zM450 822q0 -35 -24.5 -58t-57.5 -23q-34 0 -58.5 23t-24.5 58q0 34 24.5 58t58.5 24q33 0 57.5 -24t24.5 -58z" />
    <glyph glyph-name="gdotaccent" unicode="&#x121;" horiz-adv-x="604" 
d="M539 54q0 -71 -18.5 -120.5t-54 -82.5t-87.5 -52t-119 -28q-11 -2 -15 0.5t-6 12.5l-13 96q-2 11 1.5 13.5t11.5 4.5q28 5 55.5 12t49 19.5t35 32t13.5 48.5v6q-26 -8 -56.5 -11.5t-60.5 -3.5q-60 0 -103.5 19t-71.5 53.5t-41.5 82.5t-13.5 107q0 57 15.5 107t47.5 87
t81.5 58t118.5 21q54 0 109.5 -8.5t101.5 -29.5q13 -7 16.5 -13.5t3.5 -17.5v-413zM196 266q0 -77 29.5 -109t81.5 -32q12 0 37 2.5t49 10.5v264q-20 6 -41.5 8.5t-35.5 2.5q-27 0 -49.5 -8t-38 -25t-24 -45t-8.5 -69zM399 675q0 -35 -24.5 -58t-57.5 -23q-34 0 -58.5 23
t-24.5 58q0 34 24.5 58t58.5 24q33 0 57.5 -24t24.5 -58z" />
    <glyph glyph-name="Gcommaaccent" unicode="&#x122;" horiz-adv-x="692" 
d="M384 126q19 0 48 2.5t56 12.5l1 148q-35 2 -70 -4t-68 -20q-14 -5 -19.5 -5t-10.5 11l-26 81q-3 8 -2 14t12 11q35 17 82.5 28.5t95.5 11.5q26 0 48 -1.5t39 -5.5q22 -5 35 -14.5t20 -24t9 -33t2 -40.5v-210q0 -14 -4 -25.5t-20 -21.5q-30 -18 -65 -28t-68.5 -15.5
t-62.5 -7t-46 -1.5q-82 0 -141.5 24.5t-98 71t-57 112.5t-18.5 150q0 82 21 149t62.5 114.5t102 73.5t138.5 26q52 0 103 -8.5t98 -34.5q11 -6 13 -12t-6 -23l-31 -71q-5 -14 -10.5 -17t-19.5 2q-36 13 -69.5 19t-71.5 6q-44 0 -76 -17t-53 -47t-31 -71t-10 -90
q0 -50 8 -90.5t27.5 -69t52 -44.5t81.5 -16zM386 -294q-4 -11 -7.5 -15.5t-14.5 -4.5h-45q-24 0 -22 18l14 199q0 8 4 14t17 6h101q14 0 17.5 -6t1.5 -14z" />
    <glyph glyph-name="gcommaaccent" unicode="&#x123;" horiz-adv-x="604" 
d="M309 785q4 11 7.5 15t14.5 4h45q22 0 21 -18l-13 -191q0 -8 -4 -14t-16 -6h-97q-14 0 -17 6.5t-1 13.5zM539 54q0 -71 -18.5 -120.5t-54 -82.5t-87.5 -52t-119 -28q-11 -2 -15 0.5t-6 12.5l-13 96q-2 11 1.5 13.5t11.5 4.5q28 5 55.5 12t49 19.5t35 32t13.5 48.5v6
q-26 -8 -56.5 -11.5t-60.5 -3.5q-60 0 -103.5 19t-71.5 53.5t-41.5 82.5t-13.5 107q0 57 15.5 107t47.5 87t81.5 58t118.5 21q54 0 109.5 -8.5t101.5 -29.5q13 -7 16.5 -13.5t3.5 -17.5v-413zM196 266q0 -77 29.5 -109t81.5 -32q12 0 37 2.5t49 10.5v264q-20 6 -41.5 8.5
t-35.5 2.5q-27 0 -49.5 -8t-38 -25t-24 -45t-8.5 -69z" />
    <glyph glyph-name="Hcircumflex" unicode="&#x124;" horiz-adv-x="726" 
d="M651 21q0 -13 -4.5 -17t-19.5 -4h-105q-13 0 -18 4.5t-5 16.5v280h-271v-280q0 -13 -4.5 -17t-19.5 -4h-106q-12 0 -17.5 4.5t-5.5 16.5v658q0 12 5.5 16.5t17.5 4.5h106q15 0 19.5 -4t4.5 -17v-249h271v249q0 12 5 16.5t18 4.5h105q15 0 19.5 -4t4.5 -17v-658zM553 797
q9 -8 9 -13.5t-7 -12.5l-28 -31q-6 -7 -13 -5.5t-15 6.5l-142 77l-138 -75q-8 -5 -14 -5.5t-13 7.5l-26 27q-6 8 -6.5 12.5t6.5 11.5l133 115q14 12 29.5 19t28.5 7q29 0 61 -26z" />
    <glyph glyph-name="hcircumflex" unicode="&#x125;" horiz-adv-x="609" 
d="M545 18q0 -12 -4 -15t-18 -3h-104q-11 0 -16 3.5t-5 14.5v280q0 26 -4.5 47.5t-16 36.5t-30.5 23.5t-48 8.5q-20 0 -45 -3t-44 -10v-383q0 -12 -3.5 -15t-17.5 -3h-103q-11 0 -16 3.5t-5 14.5v694q0 19 20 19h104q14 0 17.5 -4t3.5 -15v-189q26 8 59.5 12t57.5 4
q109 0 163.5 -58t54.5 -164v-299zM337 796q9 -8 9 -13.5t-7 -12.5l-28 -31q-6 -7 -13 -5.5t-15 6.5l-142 77l-138 -75q-8 -5 -14 -5.5t-13 7.5l-26 27q-6 8 -6.5 12.5t6.5 11.5l133 115q14 12 29.5 19t28.5 7q29 0 61 -26z" />
    <glyph glyph-name="Hbar" unicode="&#x126;" horiz-adv-x="726" 
d="M28 524q-8 0 -10.5 3t-2.5 14v42q0 16 13 16h47v82q0 19 21 19h111q14 0 17.5 -4t3.5 -15v-82h271v82q0 19 20 19h111q14 0 17.5 -4t3.5 -15v-82h39q13 0 13 -16v-42q0 -11 -2.5 -14t-10.5 -3h-39v-505q0 -11 -3.5 -15t-17.5 -4h-111q-20 0 -20 19v285h-271v-285
q0 -11 -3.5 -15t-17.5 -4h-111q-21 0 -21 19v505h-47zM499 432v92h-271v-92h271z" />
    <glyph glyph-name="hbar" unicode="&#x127;" horiz-adv-x="609" 
d="M23 584q-8 0 -10 2.5t-2 10.5v39q0 8 2 10.5t10 2.5h42v63q0 19 20 19h104q14 0 17.5 -4t3.5 -15v-63h176q12 0 12 -15v-35q0 -10 -3 -12.5t-9 -2.5h-176v-96q26 8 59.5 12.5t57.5 4.5q109 0 163.5 -58.5t54.5 -164.5v-264q0 -12 -4 -15t-18 -3h-104q-11 0 -16 3.5
t-5 14.5v246q0 26 -4.5 47.5t-16 36.5t-30.5 23.5t-48 8.5q-20 0 -45 -3t-44 -11v-348q0 -12 -3.5 -15t-17.5 -3h-103q-11 0 -16 3.5t-5 14.5v566h-42v0z" />
    <glyph glyph-name="Itilde" unicode="&#x128;" horiz-adv-x="329" 
d="M241 21q0 -13 -4.5 -17t-19.5 -4h-106q-12 0 -17.5 4.5t-5.5 16.5v658q0 12 5.5 16.5t17.5 4.5h106q15 0 19.5 -4t4.5 -17v-658zM230 761q-18 0 -36 6.5t-35 14t-34 14t-35 6.5q-27 0 -47 -31q-6 -9 -10.5 -11.5t-12.5 2.5l-44 25q-9 5 -9.5 10t3.5 13q19 38 46.5 61.5
t72.5 23.5q19 0 36 -6.5t33.5 -14t32.5 -13.5t32 -6t26.5 7.5t20.5 24.5q6 11 9 12t12 -2l50 -17q10 -3 11 -7.5t-3 -14.5q-19 -42 -46.5 -69.5t-72.5 -27.5z" />
    <glyph glyph-name="itilde" unicode="&#x129;" horiz-adv-x="314" 
d="M230 18q0 -11 -3.5 -14.5t-17.5 -3.5h-103q-11 0 -16 3.5t-5 14.5v489q0 11 5 14.5t16 3.5h103q14 0 17.5 -3.5t3.5 -14.5v-489zM234 598q-18 0 -36 6.5t-35 14t-34 14t-35 6.5q-27 0 -47 -31q-6 -9 -10.5 -11.5t-12.5 2.5l-44 25q-9 5 -9.5 10t3.5 13q19 38 46.5 61.5
t72.5 23.5q19 0 36 -6.5t33.5 -14t32.5 -13.5t32 -6t26.5 7.5t20.5 24.5q6 11 9 12t12 -2l50 -17q10 -3 11 -7.5t-3 -14.5q-19 -42 -46.5 -69.5t-72.5 -27.5z" />
    <glyph glyph-name="Imacron" unicode="&#x12a;" horiz-adv-x="329" 
d="M241 21q0 -13 -4.5 -17t-19.5 -4h-106q-12 0 -17.5 4.5t-5.5 16.5v658q0 12 5.5 16.5t17.5 4.5h106q15 0 19.5 -4t4.5 -17v-658zM319 797q0 -21 -20 -21h-271q-20 0 -20 21v60q0 14 4.5 17.5t15.5 3.5h271q11 0 15.5 -3.5t4.5 -17.5v-60z" />
    <glyph glyph-name="imacron" unicode="&#x12b;" horiz-adv-x="314" 
d="M230 18q0 -11 -3.5 -14.5t-17.5 -3.5h-103q-11 0 -16 3.5t-5 14.5v489q0 11 5 14.5t16 3.5h103q14 0 17.5 -3.5t3.5 -14.5v-489zM315 614q0 -21 -20 -21h-271q-20 0 -20 21v60q0 14 4.5 17.5t15.5 3.5h271q11 0 15.5 -3.5t4.5 -17.5v-60z" />
    <glyph glyph-name="Ibreve" unicode="&#x12c;" horiz-adv-x="329" 
d="M241 21q0 -13 -4.5 -17t-19.5 -4h-106q-12 0 -17.5 4.5t-5.5 16.5v658q0 12 5.5 16.5t17.5 4.5h106q15 0 19.5 -4t4.5 -17v-658zM160 733q-30 0 -56.5 9.5t-50 26t-43 37t-35.5 43.5q-2 3 -4 8.5t7 13.5l39 38q10 8 13.5 5.5t11.5 -8.5q32 -32 63.5 -50t60.5 -18
q12 0 24.5 2.5t27.5 10t33 21t42 36.5q10 8 14 7.5t9 -5.5l38 -33q10 -9 8.5 -14t-4.5 -9q-91 -121 -198 -121z" />
    <glyph glyph-name="ibreve" unicode="&#x12d;" horiz-adv-x="314" 
d="M230 18q0 -11 -3.5 -14.5t-17.5 -3.5h-103q-11 0 -16 3.5t-5 14.5v489q0 11 5 14.5t16 3.5h103q14 0 17.5 -3.5t3.5 -14.5v-489zM154 576q-30 0 -56.5 9.5t-50 26t-43 37t-35.5 43.5q-2 3 -4 8.5t7 13.5l39 38q10 8 13.5 5.5t11.5 -8.5q32 -32 63.5 -50t60.5 -18
q12 0 24.5 2.5t27.5 10t33 21t42 36.5q10 8 14 7.5t9 -5.5l38 -33q10 -9 8.5 -14t-4.5 -9q-91 -121 -198 -121z" />
    <glyph glyph-name="Iogonek" unicode="&#x12e;" horiz-adv-x="329" 
d="M241 21q0 -12 -4 -16.5t-18 -4.5q-32 -32 -45 -58.5t-13 -48.5q0 -40 53 -40q10 0 27 1.5t31 4.5q9 2 13.5 1t6.5 -9l10 -37q3 -9 0 -13.5t-8 -7.5q-30 -12 -63 -17t-62 -5q-60 0 -86 25.5t-27 62.5q0 33 20.5 72.5t55.5 68.5h-21q-12 0 -17.5 4.5t-5.5 16.5v658
q0 12 5.5 16.5t17.5 4.5h106q15 0 19.5 -4t4.5 -17v-658v0z" />
    <glyph glyph-name="iogonek" unicode="&#x12f;" horiz-adv-x="306" 
d="M229 18q0 -11 -4 -14.5t-18 -3.5h-2q-31 -32 -43.5 -58t-12.5 -47q0 -40 53 -40q10 0 27 1.5t31 4.5q9 2 13.5 1t6.5 -9l10 -37q3 -9 0 -13.5t-8 -7.5q-30 -12 -63 -17t-62 -5q-60 0 -86 25.5t-27 62.5q0 16 5 34.5t15 37t23 36t30 31.5h-12q-11 0 -16 3.5t-5 14.5v489
q0 11 5 14.5t16 3.5h102q14 0 18 -3.5t4 -14.5v-489zM242 662q0 -35 -24.5 -58.5t-59.5 -23.5q-34 0 -58.5 23.5t-24.5 58.5q0 18 6.5 33t18 26t26.5 17.5t32 6.5t32.5 -6.5t27 -17.5t18 -26t6.5 -33z" />
    <glyph glyph-name="Idotaccent" unicode="&#x130;" horiz-adv-x="329" 
d="M241 21q0 -13 -4.5 -17t-19.5 -4h-106q-12 0 -17.5 4.5t-5.5 16.5v658q0 12 5.5 16.5t17.5 4.5h106q15 0 19.5 -4t4.5 -17v-658zM243 841q0 -35 -24.5 -58t-57.5 -23q-34 0 -58.5 23t-24.5 58q0 34 24.5 58t58.5 24q33 0 57.5 -24t24.5 -58z" />
    <glyph glyph-name="dotlessi" unicode="&#x131;" horiz-adv-x="314" 
d="M230 18q0 -11 -3.5 -14.5t-17.5 -3.5h-103q-11 0 -16 3.5t-5 14.5v489q0 11 5 14.5t16 3.5h103q14 0 17.5 -3.5t3.5 -14.5v-489v0z" />
    <glyph glyph-name="IJ" unicode="&#x132;" horiz-adv-x="837" 
d="M489 -11q-21 0 -49.5 2.5t-59 8.5t-60 16t-53.5 24q-8 5 -9.5 9t4.5 18l36 82q5 11 9.5 11.5t14.5 -3.5q34 -14 74 -23t80 -9q42 0 68 12t41 34.5t20 54t5 69.5v385q0 14 6 17t17 3h106q13 0 18 -3t5 -17v-410q0 -65 -14.5 -116.5t-46.5 -88.5t-84 -56.5t-128 -19.5z
M228 21q0 -13 -4.5 -17t-19.5 -4h-106q-12 0 -17.5 4.5t-5.5 16.5v658q0 12 5.5 16.5t17.5 4.5h106q15 0 19.5 -4t4.5 -17v-658z" />
    <glyph glyph-name="ij" unicode="&#x133;" horiz-adv-x="590" 
d="M237 662q0 -35 -24.5 -58.5t-59.5 -23.5q-34 0 -58.5 23.5t-24.5 58.5q0 18 6.5 33t18 26t26.5 17.5t32 6.5t32.5 -6.5t27 -17.5t18 -26t6.5 -33zM224 18q0 -11 -4 -14.5t-18 -3.5h-102q-11 0 -16 3.5t-5 14.5v489q0 11 5 14.5t16 3.5h102q14 0 18 -3.5t4 -14.5v-489z
M507 76q0 -72 -15 -122t-41.5 -84.5t-61.5 -55.5t-74 -34q-15 -5 -21 -3.5t-10 11.5l-33 86q-5 13 -2 17.5t14 10.5q30 15 49 32t30.5 38t15.5 46t4 57v432q0 11 4.5 14.5t15.5 3.5h105q14 0 17 -3.5t3 -14.5v-431zM520 662q0 -35 -24 -58.5t-59 -23.5t-59.5 23.5
t-24.5 58.5q0 18 6.5 33t18 26t27 17.5t32.5 6.5q35 0 59 -24t24 -59z" />
    <glyph glyph-name="Jcircumflex" unicode="&#x134;" horiz-adv-x="590" 
d="M240 -11q-21 0 -49.5 2.5t-59 8.5t-60 16t-53.5 24q-8 5 -9.5 9t4.5 18l36 82q5 11 9.5 11.5t14.5 -3.5q34 -14 74 -23t80 -9q42 0 68 12t41 34.5t20 54t5 69.5v385q0 14 6 17t17 3h106q13 0 18 -3t5 -17v-410q0 -65 -14.5 -116.5t-46.5 -88.5t-84 -56.5t-128 -19.5z
M633 796q9 -8 9 -13.5t-7 -12.5l-28 -31q-6 -7 -13 -5.5t-15 6.5l-142 77l-138 -75q-8 -5 -14 -5.5t-13 7.5l-26 27q-6 8 -6.5 12.5t6.5 11.5l133 115q14 12 29.5 19t28.5 7q29 0 61 -26z" />
    <glyph glyph-name="jcircumflex" unicode="&#x135;" horiz-adv-x="329" 
d="M242 76q0 -72 -15.5 -122t-41.5 -84.5t-61 -55.5t-75 -34q-14 -5 -20.5 -3.5t-9.5 11.5l-34 86q-5 13 -2 17.5t14 10.5q30 15 49.5 32t31 38t15.5 46t4 57v432q0 11 4.5 14.5t15.5 3.5h104q14 0 17.5 -3.5t3.5 -14.5v-431zM363 622q8 -8 7.5 -13.5t-8.5 -13.5l-28 -28
q-7 -5 -13 -5t-16 7l-139 98l-134 -100q-8 -5 -13 -5t-13 7l-30 28q-7 7 -7 11.5t7 12.5l130 137q14 14 29.5 22.5t29.5 8.5q22 0 36.5 -7t29.5 -24z" />
    <glyph glyph-name="Kcommaaccent" unicode="&#x136;" horiz-adv-x="683" 
d="M436 446l233 -421q7 -11 4 -18t-14 -7h-116q-21 0 -30.5 2.5t-19.5 20.5l-161 299l-106 -127v-174q0 -14 -4 -17.5t-19 -3.5h-105q-12 0 -17.5 4.5t-5.5 16.5v658q0 12 5.5 16.5t17.5 4.5h105q15 0 19 -3.5t4 -17.5v-268l4 -2l94 119l125 156q9 10 18 13t29 3h129
q9 0 12.5 -5.5t-3.5 -13.5zM366 -264q-4 -11 -7.5 -15.5t-14.5 -4.5h-45q-24 0 -22 18l14 199q0 8 4 14t17 6h101q14 0 17.5 -6t1.5 -14z" />
    <glyph glyph-name="kcommaaccent" unicode="&#x137;" horiz-adv-x="552" 
d="M387 348l155 -328q8 -20 -15 -20h-116q-12 0 -18.5 3.5t-11.5 15.5l-95 214l-76 -86v-25.5v-35t-0.5 -36.5t-0.5 -31q0 -11 -3.5 -15t-17.5 -4h-103q-21 0 -21 19v694q0 11 5 14.5t16 3.5h104q14 0 17 -3t3 -15v-370l4 -2l143 170q8 8 13.5 11t19.5 3h122q14 0 15.5 -6.5
t-5.5 -14.5zM281 -294q-4 -11 -7.5 -15.5t-14.5 -4.5h-45q-24 0 -22 18l14 199q0 8 4 14t17 6h101q14 0 17.5 -6t1.5 -14z" />
    <glyph glyph-name="kgreenlandic" unicode="&#x138;" horiz-adv-x="550" 
d="M209 19q0 -12 -4 -15.5t-18 -3.5h-102q-21 0 -21 19v488q0 11 5 14.5t16 3.5h104q14 0 17 -3.5t3 -14.5v-169q3 0 5 -2q12 14 30.5 38t38.5 49.5t38.5 49t30.5 37.5q8 8 13.5 11.5t19.5 3.5h126q14 0 15.5 -6.5t-5.5 -14.5l-150 -175l168 -310q9 -19 -15 -19h-115
q-12 0 -19 3.5t-12 14.5q-8 15 -22 42.5t-29.5 57.5t-29.5 57.5t-23 42.5l-64 -77v-24v-34.5t-0.5 -36t-0.5 -27.5z" />
    <glyph glyph-name="Lacute" unicode="&#x139;" horiz-adv-x="578" 
d="M260 0q-56 0 -91.5 16t-56.5 42t-29 59t-8 67v496q0 12 5.5 16.5t17.5 4.5h106q15 0 19.5 -4t4.5 -17v-485q0 -38 18.5 -51t48.5 -13h254q11 0 15 -3.5t4 -17.5v-89q0 -21 -19 -21h-289zM256 937q6 5 11 7t13 -6l69 -79q6 -6 5 -11.5t-7 -7.5l-193 -99q-10 -5 -14.5 -3.5
t-9.5 6.5l-38 46q-5 6 -5.5 10t7.5 11z" />
    <glyph glyph-name="lacute" unicode="&#x13a;" horiz-adv-x="330" 
d="M318 27q2 -11 -1 -14.5t-14 -8.5q-21 -8 -51.5 -11.5t-53.5 -3.5q-30 0 -53.5 6.5t-39.5 22t-24.5 42.5t-8.5 68v584q0 14 5.5 16.5t16.5 2.5h102q11 0 16.5 -3.5t5.5 -14.5v-555q0 -25 7 -35.5t30 -10.5q8 0 19 1t18 2q9 1 12.5 -1.5t4.5 -10.5zM256 960q6 5 11 7t13 -6
l69 -79q6 -6 5 -11.5t-7 -7.5l-193 -99q-10 -5 -14.5 -3.5t-9.5 6.5l-38 46q-5 6 -5.5 10t7.5 11z" />
    <glyph glyph-name="Lcommaaccent" unicode="&#x13b;" horiz-adv-x="578" 
d="M260 0q-56 0 -91.5 16t-56.5 42t-29 59t-8 67v496q0 12 5.5 16.5t17.5 4.5h106q15 0 19.5 -4t4.5 -17v-485q0 -38 18.5 -51t48.5 -13h254q11 0 15 -3.5t4 -17.5v-89q0 -21 -19 -21h-289zM315 -294q-4 -11 -7.5 -15.5t-14.5 -4.5h-45q-24 0 -22 18l14 199q0 8 4 14t17 6
h101q14 0 17.5 -6t1.5 -14z" />
    <glyph glyph-name="lcommaaccent" unicode="&#x13c;" horiz-adv-x="330" 
d="M318 27q2 -11 -1 -14.5t-14 -8.5q-21 -8 -51.5 -11.5t-53.5 -3.5q-30 0 -53.5 6.5t-39.5 22t-24.5 42.5t-8.5 68v584q0 14 5.5 16.5t16.5 2.5h102q11 0 16.5 -3.5t5.5 -14.5v-555q0 -25 7 -35.5t30 -10.5q8 0 19 1t18 2q9 1 12.5 -1.5t4.5 -10.5zM174 -294
q-4 -11 -7.5 -15.5t-14.5 -4.5h-45q-24 0 -22 18l14 199q0 8 4 14t17 6h101q14 0 17.5 -6t1.5 -14z" />
    <glyph glyph-name="Lcaron" unicode="&#x13d;" horiz-adv-x="578" 
d="M260 0q-56 0 -91.5 16t-56.5 42t-29 59t-8 67v496q0 12 5.5 16.5t17.5 4.5h106q15 0 19.5 -4t4.5 -17v-485q0 -38 18.5 -51t48.5 -13h254q11 0 15 -3.5t4 -17.5v-89q0 -21 -19 -21h-289zM477 482q-4 -11 -7.5 -15.5t-14.5 -4.5h-45q-24 0 -22 18l14 199q0 8 4 14t17 6
h101q14 0 17.5 -6t1.5 -14z" />
    <glyph glyph-name="lcaron" unicode="&#x13e;" horiz-adv-x="438" 
d="M318 27q2 -11 -1 -14.5t-14 -8.5q-21 -8 -51.5 -11.5t-53.5 -3.5q-30 0 -53.5 6.5t-39.5 22t-24.5 42.5t-8.5 68v584q0 14 5.5 16.5t16.5 2.5h102q11 0 16.5 -3.5t5.5 -14.5v-555q0 -25 7 -35.5t30 -10.5q8 0 19 1t18 2q9 1 12.5 -1.5t4.5 -10.5zM381 492
q-4 -11 -7.5 -15.5t-14.5 -4.5h-45q-24 0 -22 18l14 199q0 8 4 14t17 6h101q14 0 17.5 -6t1.5 -14z" />
    <glyph glyph-name="Ldot" unicode="&#x13f;" horiz-adv-x="578" 
d="M260 0q-56 0 -91.5 16t-56.5 42t-29 59t-8 67v496q0 12 5.5 16.5t17.5 4.5h106q15 0 19.5 -4t4.5 -17v-485q0 -38 18.5 -51t48.5 -13h254q11 0 15 -3.5t4 -17.5v-89q0 -21 -19 -21h-289zM518 385q0 -35 -24.5 -58t-57.5 -23q-34 0 -58.5 23t-24.5 58q0 34 24.5 58
t58.5 24q33 0 57.5 -24t24.5 -58z" />
    <glyph glyph-name="ldot" unicode="&#x140;" horiz-adv-x="440" 
d="M318 27q2 -11 -1 -14.5t-14 -8.5q-21 -8 -51.5 -11.5t-53.5 -3.5q-30 0 -53.5 6.5t-39.5 22t-24.5 42.5t-8.5 68v584q0 14 5.5 16.5t16.5 2.5h102q11 0 16.5 -3.5t5.5 -14.5v-555q0 -25 7 -35.5t30 -10.5q8 0 19 1t18 2q9 1 12.5 -1.5t4.5 -10.5zM448 401
q0 -35 -24.5 -58t-57.5 -23q-34 0 -58.5 23t-24.5 58q0 34 24.5 58t58.5 24q33 0 57.5 -24t24.5 -58z" />
    <glyph glyph-name="Lslash" unicode="&#x141;" horiz-adv-x="578" 
d="M260 1q-56 0 -91.5 16t-56.5 42t-29 59t-8 67v67l-42 -23q-17 -11 -28 6l-19 34q-6 11 -4 16.5t12 11.5l81 47v339q0 19 21 19h110q14 0 18 -4t4 -15v-251l96 55q9 5 16 5.5t14 -10.5l19 -33q6 -10 5 -16t-12 -13l-138 -79v-145q0 -38 17.5 -50.5t49.5 -12.5h254
q11 0 15 -4t4 -18v-89q0 -21 -19 -21h-289v0z" />
    <glyph glyph-name="lslash" unicode="&#x142;" horiz-adv-x="330" 
d="M72 333v378q0 14 5.5 17t16.5 3h102q11 0 16.5 -3t5.5 -16v-294l60 34q9 5 16 5.5t13 -10.5l19 -31q6 -11 5 -17t-13 -13l-100 -58v-165q0 -26 7 -36.5t30 -10.5q8 0 19 1t18 2q9 1 12.5 -1.5t4.5 -10.5l9 -80q2 -11 -1 -14.5t-14 -8.5q-21 -8 -51.5 -11.5t-53.5 -3.5
q-30 0 -53.5 6.5t-39.5 22t-24.5 42.5t-8.5 68v116l-47 -27q-8 -5 -15 -4t-12 11l-18 33q-7 11 -5 17t13 11z" />
    <glyph glyph-name="Nacute" unicode="&#x143;" horiz-adv-x="744" 
d="M226 435v-414q0 -13 -4.5 -17t-18.5 -4h-105q-12 0 -17.5 4.5t-5.5 16.5v610q0 39 14 54.5t51 15.5h42q15 0 25.5 -1.5t18.5 -6.5t15 -14t16 -23l170 -259l86 -135h5v418q0 12 4.5 16.5t18.5 4.5h105q23 0 23 -21v-611q0 -32 -13 -50.5t-52 -18.5h-42q-15 0 -25.5 1.5
t-18.5 6.5t-15 13.5t-16 22.5l-160 242l-96 149h-5zM472 936q6 5 11 7t13 -6l69 -79q6 -6 5 -11.5t-7 -7.5l-193 -99q-10 -5 -14.5 -3.5t-9.5 6.5l-38 46q-5 6 -5.5 10t7.5 11z" />
    <glyph glyph-name="nacute" unicode="&#x144;" horiz-adv-x="609" 
d="M278 418q-10 0 -28.5 -0.5t-39.5 -4.5v-395q0 -11 -3.5 -14.5t-17.5 -3.5h-103q-11 0 -16 3.5t-5 14.5v429q0 34 12 53.5t50 27.5q10 2 28.5 3.5t39.5 3t41.5 2.5t35.5 1q70 0 121 -14t84.5 -44.5t50 -80t16.5 -120.5v-261q0 -11 -3.5 -14.5t-17.5 -3.5h-104
q-11 0 -16 3.5t-5 14.5v270q0 33 -5.5 57t-19 40.5t-37 24.5t-58.5 8zM228 591q-9 3 -10 7.5t2 12.5l70 174q5 14 12.5 14t18.5 -3l95 -25q16 -4 8 -18l-117 -172q-6 -9 -10.5 -10t-12.5 1z" />
    <glyph glyph-name="Ncommaaccent" unicode="&#x145;" horiz-adv-x="744" 
d="M226 435v-414q0 -13 -4.5 -17t-18.5 -4h-105q-12 0 -17.5 4.5t-5.5 16.5v610q0 39 14 54.5t51 15.5h42q15 0 25.5 -1.5t18.5 -6.5t15 -14t16 -23l170 -259l86 -135h5v418q0 12 4.5 16.5t18.5 4.5h105q23 0 23 -21v-611q0 -32 -13 -50.5t-52 -18.5h-42q-15 0 -25.5 1.5
t-18.5 6.5t-15 13.5t-16 22.5l-160 242l-96 149h-5zM357 -264q-4 -11 -7.5 -15.5t-14.5 -4.5h-45q-24 0 -22 18l14 199q0 8 4 14t17 6h101q14 0 17.5 -6t1.5 -14z" />
    <glyph glyph-name="ncommaaccent" unicode="&#x146;" horiz-adv-x="609" 
d="M278 418q-10 0 -28.5 -0.5t-39.5 -4.5v-395q0 -11 -3.5 -14.5t-17.5 -3.5h-103q-11 0 -16 3.5t-5 14.5v429q0 34 12 53.5t50 27.5q10 2 28.5 3.5t39.5 3t41.5 2.5t35.5 1q70 0 121 -14t84.5 -44.5t50 -80t16.5 -120.5v-261q0 -11 -3.5 -14.5t-17.5 -3.5h-104
q-11 0 -16 3.5t-5 14.5v270q0 33 -5.5 57t-19 40.5t-37 24.5t-58.5 8zM314 -294q-4 -11 -7.5 -15.5t-14.5 -4.5h-45q-24 0 -22 18l14 199q0 8 4 14t17 6h101q14 0 17.5 -6t1.5 -14z" />
    <glyph glyph-name="Ncaron" unicode="&#x147;" horiz-adv-x="744" 
d="M226 435v-414q0 -13 -4.5 -17t-18.5 -4h-105q-12 0 -17.5 4.5t-5.5 16.5v610q0 39 14 54.5t51 15.5h42q15 0 25.5 -1.5t18.5 -6.5t15 -14t16 -23l170 -259l86 -135h5v418q0 12 4.5 16.5t18.5 4.5h105q23 0 23 -21v-611q0 -32 -13 -50.5t-52 -18.5h-42q-15 0 -25.5 1.5
t-18.5 6.5t-15 13.5t-16 22.5l-160 242l-96 149h-5zM579 901q6 -7 6.5 -10.5t-8.5 -11.5l-136 -113q-21 -17 -33.5 -23t-29.5 -6q-10 0 -22.5 3.5t-23.5 13.5l-144 124q-8 6 -8 10.5t6 10.5l31 34q7 7 12 5.5t13 -6.5l136 -77l147 80q8 4 13 5t11 -7z" />
    <glyph glyph-name="ncaron" unicode="&#x148;" horiz-adv-x="609" 
d="M278 418q-10 0 -28.5 -0.5t-39.5 -4.5v-395q0 -11 -3.5 -14.5t-17.5 -3.5h-103q-11 0 -16 3.5t-5 14.5v429q0 34 12 53.5t50 27.5q10 2 28.5 3.5t39.5 3t41.5 2.5t35.5 1q70 0 121 -14t84.5 -44.5t50 -80t16.5 -120.5v-261q0 -11 -3.5 -14.5t-17.5 -3.5h-104
q-11 0 -16 3.5t-5 14.5v270q0 33 -5.5 57t-19 40.5t-37 24.5t-58.5 8zM294 690l140 99q8 6 12.5 7.5t12.5 -5.5l35 -29q8 -7 6.5 -13t-9.5 -14l-144 -145q-8 -9 -20.5 -13.5t-26.5 -5.5q-16 -1 -31.5 4t-26.5 17l-139 145q-10 12 1 23l31 30q7 7 12.5 6t13.5 -7z" />
    <glyph glyph-name="napostrophe" unicode="&#x149;" horiz-adv-x="680" 
d="M349 418q-10 0 -28.5 -0.5t-39.5 -4.5v-395q0 -11 -3.5 -14.5t-17.5 -3.5h-103q-11 0 -16 3.5t-5 14.5v429q0 34 12 53.5t50 27.5q10 2 28.5 3.5t39.5 3t41.5 2.5t35.5 1q70 0 121 -14t84.5 -44.5t50 -80t16.5 -120.5v-261q0 -11 -3.5 -14.5t-17.5 -3.5h-104
q-11 0 -16 3.5t-5 14.5v270q0 33 -5.5 57t-19 40.5t-37 24.5t-58.5 8zM84 507q-4 -11 -7.5 -15.5t-14.5 -4.5h-45q-24 0 -22 18l14 199q0 8 4 14t17 6h101q14 0 17.5 -6t1.5 -14z" />
    <glyph glyph-name="Eng" unicode="&#x14a;" horiz-adv-x="744" 
d="M226 475v-456q0 -11 -3.5 -15t-17.5 -4h-109q-21 0 -21 19v617q0 38 14.5 53t49.5 15h43q17 0 28.5 -2t20.5 -7.5t17 -15.5t18 -26l162 -265l83 -141h7v434q0 11 4 15t17 4h109q12 0 16.5 -4t4.5 -15v-755q0 -29 -6.5 -54.5t-23 -44.5t-43.5 -30.5t-69 -11.5q-30 0 -58 5
t-46 11q-15 5 -17 9.5t1 18.5l13 55q4 16 9.5 17.5t19.5 0.5q9 -1 18.5 -1.5t17.5 -0.5q28 0 38.5 10.5t10.5 37.5v40l-214 341l-89 146h-5z" />
    <glyph glyph-name="eng" unicode="&#x14b;" horiz-adv-x="609" 
d="M278 418q-10 0 -28.5 -0.5t-39.5 -4.5v-395q0 -11 -3.5 -14.5t-17.5 -3.5h-103q-11 0 -16 3.5t-5 14.5v429q0 34 13.5 54t48.5 27q10 2 28.5 3.5t39.5 3t41.5 2.5t35.5 1q70 0 121 -14t84.5 -44.5t50 -80t16.5 -120.5v-343q0 -29 -6.5 -54.5t-22.5 -44.5t-43.5 -30.5
t-68.5 -11.5q-30 0 -57.5 4.5t-46.5 11.5q-15 5 -17.5 9.5t0.5 18.5l14 63q3 14 9.5 14t17.5 -2t18.5 -2h16.5q23 1 31.5 12t8.5 40v324q0 33 -5.5 57t-19 40.5t-37 24.5t-58.5 8z" />
    <glyph glyph-name="Omacron" unicode="&#x14c;" horiz-adv-x="730" 
d="M675 352q0 -86 -18.5 -153t-57.5 -114t-98 -71.5t-140 -24.5q-155 0 -230.5 94t-75.5 266q0 84 21.5 151.5t61.5 114t97 71.5t129 25q78 0 136.5 -25t97 -71.5t58 -113t19.5 -149.5zM516 349q0 45 -6.5 86t-23.5 72t-46 49.5t-75 18.5q-38 0 -66.5 -17.5t-47.5 -47.5
t-28 -70t-9 -85q0 -53 7.5 -95t25 -72t46.5 -46t73 -16q43 0 72 18.5t46 49t24.5 71t7.5 84.5zM520 794q0 -21 -20 -21h-271q-20 0 -20 21v60q0 14 4.5 17.5t15.5 3.5h271q11 0 15.5 -3.5t4.5 -17.5v-60z" />
    <glyph glyph-name="omacron" unicode="&#x14d;" horiz-adv-x="595" 
d="M550 265q0 -132 -63 -204t-192 -72q-130 0 -190 72t-60 202q0 64 17.5 115.5t50 86.5t79 54t105.5 19q126 0 189.5 -72.5t63.5 -200.5zM399 262q0 34 -5 62t-17 48t-31 31.5t-47 11.5q-53 0 -78.5 -40.5t-25.5 -109.5q0 -75 23.5 -114t77.5 -39q28 0 47.5 11.5t32 32
t18 47.5t5.5 59zM449 608q0 -21 -20 -21h-271q-20 0 -20 21v60q0 14 4.5 17.5t15.5 3.5h271q11 0 15.5 -3.5t4.5 -17.5v-60z" />
    <glyph glyph-name="Obreve" unicode="&#x14e;" horiz-adv-x="730" 
d="M675 352q0 -86 -18.5 -153t-57.5 -114t-98 -71.5t-140 -24.5q-155 0 -230.5 94t-75.5 266q0 84 21.5 151.5t61.5 114t97 71.5t129 25q78 0 136.5 -25t97 -71.5t58 -113t19.5 -149.5zM516 349q0 45 -6.5 86t-23.5 72t-46 49.5t-75 18.5q-38 0 -66.5 -17.5t-47.5 -47.5
t-28 -70t-9 -85q0 -53 7.5 -95t25 -72t46.5 -46t73 -16q43 0 72 18.5t46 49t24.5 71t7.5 84.5zM361 740q-30 0 -56.5 9.5t-50 26t-43 37t-35.5 43.5q-2 3 -4 8.5t7 13.5l39 38q10 8 13.5 5.5t11.5 -8.5q32 -32 63.5 -50t60.5 -18q12 0 24.5 2.5t27.5 10t33 21t42 36.5
q10 8 14 7.5t9 -5.5l38 -33q10 -9 8.5 -14t-4.5 -9q-91 -121 -198 -121z" />
    <glyph glyph-name="obreve" unicode="&#x14f;" horiz-adv-x="595" 
d="M550 265q0 -132 -63 -204t-192 -72q-130 0 -190 72t-60 202q0 64 17.5 115.5t50 86.5t79 54t105.5 19q126 0 189.5 -72.5t63.5 -200.5zM399 262q0 34 -5 62t-17 48t-31 31.5t-47 11.5q-53 0 -78.5 -40.5t-25.5 -109.5q0 -75 23.5 -114t77.5 -39q28 0 47.5 11.5t32 32
t18 47.5t5.5 59zM295 576q-30 0 -56.5 9.5t-50 26t-43 37t-35.5 43.5q-2 3 -4 8.5t7 13.5l39 38q10 8 13.5 5.5t11.5 -8.5q32 -32 63.5 -50t60.5 -18q12 0 24.5 2.5t27.5 10t33 21t42 36.5q10 8 14 7.5t9 -5.5l38 -33q10 -9 8.5 -14t-4.5 -9q-91 -121 -198 -121z" />
    <glyph glyph-name="Ohungarumlaut" unicode="&#x150;" horiz-adv-x="730" 
d="M675 352q0 -86 -18.5 -153t-57.5 -114t-98 -71.5t-140 -24.5q-155 0 -230.5 94t-75.5 266q0 84 21.5 151.5t61.5 114t97 71.5t129 25q78 0 136.5 -25t97 -71.5t58 -113t19.5 -149.5zM516 349q0 45 -6.5 86t-23.5 72t-46 49.5t-75 18.5q-38 0 -66.5 -17.5t-47.5 -47.5
t-28 -70t-9 -85q0 -53 7.5 -95t25 -72t46.5 -46t73 -16q43 0 72 18.5t46 49t24.5 71t7.5 84.5zM203 811q10 7 31 24.5t44.5 36.5t45 36t31.5 25q7 6 11.5 6.5t12.5 -6.5l62 -68q11 -13 -1 -20l-181 -95q-14 -8 -25 3l-33 36q-6 6 -6 10.5t8 11.5zM423 811q10 7 31 24.5
t44.5 36.5t45 36t31.5 25q7 6 11.5 6.5t12.5 -6.5l62 -68q11 -13 -1 -20l-182 -95q-14 -8 -25 3l-32 36q-6 6 -6 10.5t8 11.5z" />
    <glyph glyph-name="ohungarumlaut" unicode="&#x151;" horiz-adv-x="595" 
d="M550 265q0 -132 -63 -204t-192 -72q-130 0 -190 72t-60 202q0 64 17.5 115.5t50 86.5t79 54t105.5 19q126 0 189.5 -72.5t63.5 -200.5zM399 262q0 34 -5 62t-17 48t-31 31.5t-47 11.5q-53 0 -78.5 -40.5t-25.5 -109.5q0 -75 23.5 -114t77.5 -39q28 0 47.5 11.5t32 32
t18 47.5t5.5 59zM389 572q-14 5 -26.5 9.5t-26.5 9.5q-9 2 -10 7t2 13l69 174q7 16 22 12l102 -26q16 -4 7 -18l-116 -172q-6 -9 -10.5 -10t-12.5 1zM222 572q-14 5 -26.5 9.5t-26.5 9.5q-9 2 -10 7t2 13l69 174q7 16 22 12l102 -26q16 -4 7 -18l-116 -172q-6 -9 -10.5 -10
t-12.5 1z" />
    <glyph glyph-name="OE" unicode="&#x152;" horiz-adv-x="955" 
d="M919 20q0 -11 -3 -15.5t-14 -4.5h-285q-31 0 -54.5 5t-43.5 14q-32 -14 -68.5 -22t-80.5 -8q-83 0 -141 27t-95 75t-53.5 114t-16.5 144q0 82 20.5 149t60 114t97 73t130.5 26q42 0 78.5 -8.5t67.5 -23.5q20 10 44 15.5t54 5.5h276q11 0 14 -4t3 -18v-89q0 -11 -3 -15.5
t-14 -4.5h-240q-41 0 -54 -18.5t-13 -46.5v-74h275q11 0 14.5 -4t3.5 -18v-82q0 -11 -3.5 -16t-14.5 -5h-275v-111q0 -35 17.5 -49t49.5 -14h250q11 0 14 -3.5t3 -17.5v-90zM433 516q0 20 5 38q-26 19 -67 19q-37 0 -65 -17t-46.5 -46.5t-27.5 -70t-9 -86.5q0 -51 7.5 -93.5
t25.5 -72.5t47 -46.5t72 -16.5q36 0 64 17q-5 15 -5.5 31t-0.5 32v312z" />
    <glyph glyph-name="oe" unicode="&#x153;" horiz-adv-x="926" 
d="M650 538q118 0 176 -58.5t58 -167.5q0 -52 -19.5 -71t-54.5 -19h-256q1 -32 10.5 -53t25 -34t37 -18t47.5 -5q30 0 64 8.5t54 17.5q11 5 14.5 2t7.5 -11l31 -68q4 -9 3.5 -14.5t-7.5 -10.5q-18 -13 -41 -22t-47 -14.5t-48.5 -8t-45.5 -2.5q-62 0 -109.5 16.5t-76.5 51.5
q-30 -33 -75 -50.5t-103 -17.5q-130 0 -190 72t-60 202q0 64 17.5 115.5t50 86.5t79 54t105.5 19q60 0 106 -19t75 -54q32 35 75.5 54t96.5 19zM399 262q0 34 -5 62t-17 48t-31 31.5t-47 11.5q-53 0 -78.5 -40.5t-25.5 -109.5q0 -75 23.5 -114t77.5 -39q28 0 47.5 11.5
t32 32t18 47.5t5.5 59zM654 418q-41 0 -67.5 -29t-29.5 -74h187q0 22 -4.5 41t-14.5 32.5t-27.5 21.5t-43.5 8z" />
    <glyph glyph-name="Racute" unicode="&#x154;" horiz-adv-x="669" 
d="M516 328q34 -15 48 -42.5t23 -62.5l51 -200q2 -6 -0.5 -14.5t-14.5 -8.5h-105q-11 0 -23 2.5t-17 17.5l-44 177q-13 49 -38.5 68t-70.5 19h-97v-263q0 -14 -4 -17.5t-19 -3.5h-107q-12 0 -17.5 4.5t-5.5 16.5v619q0 30 12 45.5t48 15.5h245q109 0 168.5 -55t59.5 -148
q0 -51 -24 -96t-69 -69zM452 488q0 13 -4 27t-13.5 25.5t-26.5 19t-43 7.5h-136v-160h133q44 0 67 22.5t23 58.5zM392 936q6 5 11 7t13 -6l69 -79q6 -6 5 -11.5t-7 -7.5l-193 -99q-10 -5 -14.5 -3.5t-9.5 6.5l-38 46q-5 6 -5.5 10t7.5 11z" />
    <glyph glyph-name="racute" unicode="&#x155;" horiz-adv-x="467" 
d="M217 18q0 -12 -4 -15t-18 -3h-102q-11 0 -16 3.5t-5 14.5v426q0 39 13.5 59.5t57.5 27.5q18 2 37 3.5t39 1.5q66 0 130.5 -17t114.5 -54q8 -6 7.5 -11.5t-3.5 -11.5l-52 -83q-6 -10 -11 -9t-16 8q-28 21 -60 34.5t-72 14.5q-21 0 -40 -3v-386zM170 591q-9 3 -10 7.5
t2 12.5l70 174q5 14 12.5 14t18.5 -3l95 -25q16 -4 8 -18l-117 -172q-6 -9 -10.5 -10t-12.5 1z" />
    <glyph glyph-name="Rcommaaccent" unicode="&#x156;" horiz-adv-x="669" 
d="M516 328q34 -15 48 -42.5t23 -62.5l51 -200q2 -6 -0.5 -14.5t-14.5 -8.5h-105q-11 0 -23 2.5t-17 17.5l-44 177q-13 49 -38.5 68t-70.5 19h-97v-263q0 -14 -4 -17.5t-19 -3.5h-107q-12 0 -17.5 4.5t-5.5 16.5v619q0 30 12 45.5t48 15.5h245q109 0 168.5 -55t59.5 -148
q0 -51 -24 -96t-69 -69zM452 488q0 13 -4 27t-13.5 25.5t-26.5 19t-43 7.5h-136v-160h133q44 0 67 22.5t23 58.5zM352 -264q-4 -11 -7.5 -15.5t-14.5 -4.5h-45q-24 0 -22 18l14 199q0 8 4 14t17 6h101q14 0 17.5 -6t1.5 -14z" />
    <glyph glyph-name="rcommaaccent" unicode="&#x157;" horiz-adv-x="467" 
d="M217 18q0 -12 -4 -15t-18 -3h-102q-11 0 -16 3.5t-5 14.5v426q0 39 13.5 59.5t57.5 27.5q18 2 37 3.5t39 1.5q66 0 130.5 -17t114.5 -54q8 -6 7.5 -11.5t-3.5 -11.5l-52 -83q-6 -10 -11 -9t-16 8q-28 21 -60 34.5t-72 14.5q-21 0 -40 -3v-386zM151 -294
q-4 -11 -7.5 -15.5t-14.5 -4.5h-45q-24 0 -22 18l14 199q0 8 4 14t17 6h101q14 0 17.5 -6t1.5 -14z" />
    <glyph glyph-name="Rcaron" unicode="&#x158;" horiz-adv-x="669" 
d="M516 328q34 -15 48 -42.5t23 -62.5l51 -200q2 -6 -0.5 -14.5t-14.5 -8.5h-105q-11 0 -23 2.5t-17 17.5l-44 177q-13 49 -38.5 68t-70.5 19h-97v-263q0 -14 -4 -17.5t-19 -3.5h-107q-12 0 -17.5 4.5t-5.5 16.5v619q0 30 12 45.5t48 15.5h245q109 0 168.5 -55t59.5 -148
q0 -51 -24 -96t-69 -69zM452 488q0 13 -4 27t-13.5 25.5t-26.5 19t-43 7.5h-136v-160h133q44 0 67 22.5t23 58.5zM513 902q6 -7 6.5 -10.5t-8.5 -11.5l-136 -113q-21 -17 -33.5 -23t-29.5 -6q-10 0 -22.5 3.5t-23.5 13.5l-144 124q-8 6 -8 10.5t6 10.5l31 34q7 7 12 5.5
t13 -6.5l136 -77l147 80q8 4 13 5t11 -7z" />
    <glyph glyph-name="rcaron" unicode="&#x159;" horiz-adv-x="467" 
d="M217 18q0 -12 -4 -15t-18 -3h-102q-11 0 -16 3.5t-5 14.5v426q0 39 13.5 59.5t57.5 27.5q18 2 37 3.5t39 1.5q66 0 130.5 -17t114.5 -54q8 -6 7.5 -11.5t-3.5 -11.5l-52 -83q-6 -10 -11 -9t-16 8q-28 21 -60 34.5t-72 14.5q-21 0 -40 -3v-386zM217 690l140 99
q8 6 12.5 7.5t12.5 -5.5l35 -29q8 -7 6.5 -13t-9.5 -14l-144 -145q-8 -9 -20.5 -13.5t-26.5 -5.5q-16 -1 -31.5 4t-26.5 17l-139 145q-10 12 1 23l31 30q7 7 12.5 6t13.5 -7z" />
    <glyph glyph-name="Sacute" unicode="&#x15a;" horiz-adv-x="600" 
d="M62 509q0 42 14.5 79t43.5 64.5t74 43.5t106 16q28 0 58.5 -3t60 -9t56.5 -14.5t49 -19.5q12 -6 13.5 -11.5t-3.5 -20.5l-26 -75q-5 -14 -10 -16t-17 1q-47 14 -93.5 23t-87.5 9q-44 0 -62 -16t-18 -39q0 -13 6 -24t19.5 -21.5t36 -21.5t55.5 -24q51 -20 94 -40.5
t73.5 -46.5t48 -61t17.5 -84q0 -53 -19 -92t-53 -65t-82.5 -39t-106.5 -13q-32 0 -67 3.5t-69.5 11t-67.5 19.5t-61 29q-8 5 -9.5 11t3.5 19l34 80q5 12 11 14t17 -3q20 -8 44 -16.5t49.5 -15t52 -11t52.5 -4.5q31 0 52 6t34 15.5t18 22t5 26.5q0 15 -5.5 27t-18 23.5
t-34 22t-53.5 22.5q-53 20 -96 41t-74 46.5t-47.5 57t-16.5 73.5zM381 943q6 5 11 7t13 -6l69 -79q6 -6 5 -11.5t-7 -7.5l-193 -99q-10 -5 -14.5 -3.5t-9.5 6.5l-38 46q-5 6 -5.5 10t7.5 11z" />
    <glyph glyph-name="sacute" unicode="&#x15b;" horiz-adv-x="497" 
d="M461 150q0 -81 -57.5 -121t-150.5 -40q-52 0 -109.5 11.5t-101.5 37.5q-8 5 -9.5 10.5t3.5 15.5l29 69q5 11 10.5 13.5t16.5 -2.5q16 -7 36 -13.5t41.5 -11.5t41.5 -8t36 -3q36 0 50.5 12.5t14.5 31.5q0 20 -20.5 34t-70.5 33q-40 15 -70.5 31t-51.5 34.5t-32 42
t-11 54.5q0 33 12 61.5t36 49.5t60.5 33.5t86.5 12.5q45 0 91.5 -8.5t84.5 -25.5q11 -5 12 -10.5t-3 -17.5l-25 -64q-4 -11 -9 -12.5t-16 2.5q-37 11 -68 17t-64 6q-27 0 -39 -12.5t-12 -25.5q0 -20 18.5 -33t64.5 -30q36 -14 68 -28.5t55.5 -34t37.5 -46.5t14 -65zM182 591
q-9 3 -10 7.5t2 12.5l70 174q5 14 12.5 14t18.5 -3l95 -25q16 -4 8 -18l-117 -172q-6 -9 -10.5 -10t-12.5 1z" />
    <glyph glyph-name="Scircumflex" unicode="&#x15c;" horiz-adv-x="600" 
d="M62 509q0 42 14.5 79t43.5 64.5t74 43.5t106 16q28 0 58.5 -3t60 -9t56.5 -14.5t49 -19.5q12 -6 13.5 -11.5t-3.5 -20.5l-26 -75q-5 -14 -10 -16t-17 1q-47 14 -93.5 23t-87.5 9q-44 0 -62 -16t-18 -39q0 -13 6 -24t19.5 -21.5t36 -21.5t55.5 -24q51 -20 94 -40.5
t73.5 -46.5t48 -61t17.5 -84q0 -53 -19 -92t-53 -65t-82.5 -39t-106.5 -13q-32 0 -67 3.5t-69.5 11t-67.5 19.5t-61 29q-8 5 -9.5 11t3.5 19l34 80q5 12 11 14t17 -3q20 -8 44 -16.5t49.5 -15t52 -11t52.5 -4.5q31 0 52 6t34 15.5t18 22t5 26.5q0 15 -5.5 27t-18 23.5
t-34 22t-53.5 22.5q-53 20 -96 41t-74 46.5t-47.5 57t-16.5 73.5zM501 799q9 -8 9 -13.5t-7 -12.5l-28 -31q-6 -7 -13 -5.5t-15 6.5l-142 77l-138 -75q-8 -5 -14 -5.5t-13 7.5l-26 27q-6 8 -6.5 12.5t6.5 11.5l133 115q14 12 29.5 19t28.5 7q29 0 61 -26z" />
    <glyph glyph-name="scircumflex" unicode="&#x15d;" horiz-adv-x="497" 
d="M461 150q0 -81 -57.5 -121t-150.5 -40q-52 0 -109.5 11.5t-101.5 37.5q-8 5 -9.5 10.5t3.5 15.5l29 69q5 11 10.5 13.5t16.5 -2.5q16 -7 36 -13.5t41.5 -11.5t41.5 -8t36 -3q36 0 50.5 12.5t14.5 31.5q0 20 -20.5 34t-70.5 33q-40 15 -70.5 31t-51.5 34.5t-32 42
t-11 54.5q0 33 12 61.5t36 49.5t60.5 33.5t86.5 12.5q45 0 91.5 -8.5t84.5 -25.5q11 -5 12 -10.5t-3 -17.5l-25 -64q-4 -11 -9 -12.5t-16 2.5q-37 11 -68 17t-64 6q-27 0 -39 -12.5t-12 -25.5q0 -20 18.5 -33t64.5 -30q36 -14 68 -28.5t55.5 -34t37.5 -46.5t14 -65zM440 625
q8 -8 7.5 -13.5t-8.5 -13.5l-29 -28q-7 -5 -12.5 -5t-15.5 7l-139 98l-134 -100q-8 -5 -13.5 -5t-13.5 7l-30 28q-6 7 -5.5 11.5t5.5 12.5l131 137q14 14 29 22.5t30 8.5q22 0 36 -7t29 -24z" />
    <glyph glyph-name="Scedilla" unicode="&#x15e;" horiz-adv-x="600" 
d="M62 509q0 42 14.5 79t43.5 64.5t74 43.5t106 16q28 0 58.5 -3t60 -9t56.5 -14.5t49 -19.5q12 -6 13.5 -11.5t-3.5 -20.5l-26 -75q-5 -14 -10 -16t-17 1q-47 14 -93.5 23t-87.5 9q-44 0 -62 -16t-18 -39q0 -13 6 -24t19.5 -21.5t36 -21.5t55.5 -24q51 -20 94 -40.5
t73.5 -46.5t48 -61t17.5 -84q0 -52 -18.5 -91t-52 -65t-81 -39t-104.5 -14l-17 -43q37 -2 61.5 -11t39.5 -22t21 -28.5t6 -31.5q0 -20 -7.5 -39t-24 -34t-42.5 -24t-64 -9q-16 0 -33 2t-33 5t-30 7t-24 8q-8 3 -8.5 7t2.5 14l12 36q4 11 7 11.5t11 -1.5q20 -7 37 -10.5
t36 -3.5q24 0 38 8t14 26q0 17 -17 24t-42 7q-17 0 -22.5 0.5t-10.5 5.5q-6 5 -5 13t4 17l26 69q-54 5 -107 19t-98 41q-8 5 -9.5 11t3.5 19l34 80q5 12 11 14t17 -3q20 -8 44 -16.5t49.5 -15t52 -11t52.5 -4.5q31 0 52 6t34 15.5t18 22t5 26.5q0 15 -5.5 27t-18 23.5
t-34 22t-53.5 22.5q-53 20 -96 41t-74 46.5t-47.5 57t-16.5 73.5z" />
    <glyph glyph-name="scedilla" unicode="&#x15f;" horiz-adv-x="497" 
d="M461 150q0 -80 -56 -120t-147 -41l-17 -43q37 -2 61.5 -11t39.5 -22t21 -28.5t6 -31.5q0 -20 -7.5 -39t-24 -34t-42.5 -24t-64 -9q-16 0 -33 2t-33 5t-30 7t-24 8q-8 3 -8.5 7t2.5 14l12 36q4 11 7 11.5t11 -1.5q20 -7 37 -10.5t36 -3.5q24 0 38 8t14 26q0 17 -17 24
t-42 7q-17 0 -22.5 0.5t-10.5 5.5q-6 5 -5 13t4 17l27 69q-41 5 -80.5 15.5t-71.5 30.5q-8 5 -9.5 10.5t3.5 15.5l29 69q5 11 10.5 13.5t16.5 -2.5q16 -7 36 -13.5t41.5 -11.5t41.5 -8t36 -3q36 0 50.5 12.5t14.5 31.5q0 20 -20.5 34t-70.5 33q-40 15 -70.5 31t-51.5 34.5
t-32 42t-11 54.5q0 33 12 61.5t36 49.5t60.5 33.5t86.5 12.5q45 0 91.5 -8.5t84.5 -25.5q11 -5 12 -10.5t-3 -17.5l-25 -64q-4 -11 -9 -12.5t-16 2.5q-37 11 -68 17t-64 6q-27 0 -39 -12.5t-12 -25.5q0 -20 18.5 -33t64.5 -30q36 -14 68 -28.5t55.5 -34t37.5 -46.5t14 -65z
" />
    <glyph glyph-name="Scaron" unicode="&#x160;" horiz-adv-x="600" 
d="M62 509q0 42 14.5 79t43.5 64.5t74 43.5t106 16q28 0 58.5 -3t60 -9t56.5 -14.5t49 -19.5q12 -6 13.5 -11.5t-3.5 -20.5l-26 -75q-5 -14 -10 -16t-17 1q-47 14 -93.5 23t-87.5 9q-44 0 -62 -16t-18 -39q0 -13 6 -24t19.5 -21.5t36 -21.5t55.5 -24q51 -20 94 -40.5
t73.5 -46.5t48 -61t17.5 -84q0 -53 -19 -92t-53 -65t-82.5 -39t-106.5 -13q-32 0 -67 3.5t-69.5 11t-67.5 19.5t-61 29q-8 5 -9.5 11t3.5 19l34 80q5 12 11 14t17 -3q20 -8 44 -16.5t49.5 -15t52 -11t52.5 -4.5q31 0 52 6t34 15.5t18 22t5 26.5q0 15 -5.5 27t-18 23.5
t-34 22t-53.5 22.5q-53 20 -96 41t-74 46.5t-47.5 57t-16.5 73.5zM511 901q6 -7 6.5 -10.5t-8.5 -11.5l-136 -113q-21 -17 -33.5 -23t-29.5 -6q-10 0 -22.5 3.5t-23.5 13.5l-144 124q-8 6 -8 10.5t6 10.5l31 34q7 7 12 5.5t13 -6.5l136 -77l147 80q8 4 13 5t11 -7z" />
    <glyph glyph-name="scaron" unicode="&#x161;" horiz-adv-x="497" 
d="M461 150q0 -81 -57.5 -121t-150.5 -40q-52 0 -109.5 11.5t-101.5 37.5q-8 5 -9.5 10.5t3.5 15.5l29 69q5 11 10.5 13.5t16.5 -2.5q16 -7 36 -13.5t41.5 -11.5t41.5 -8t36 -3q36 0 50.5 12.5t14.5 31.5q0 20 -20.5 34t-70.5 33q-40 15 -70.5 31t-51.5 34.5t-32 42
t-11 54.5q0 33 12 61.5t36 49.5t60.5 33.5t86.5 12.5q45 0 91.5 -8.5t84.5 -25.5q11 -5 12 -10.5t-3 -17.5l-25 -64q-4 -11 -9 -12.5t-16 2.5q-37 11 -68 17t-64 6q-27 0 -39 -12.5t-12 -25.5q0 -20 18.5 -33t64.5 -30q36 -14 68 -28.5t55.5 -34t37.5 -46.5t14 -65zM244 692
l140 99q8 6 12.5 7.5t12.5 -5.5l35 -29q8 -7 6.5 -13t-9.5 -14l-144 -145q-8 -9 -20.5 -13.5t-26.5 -5.5q-16 -1 -31.5 4t-26.5 17l-139 145q-10 12 1 23l31 30q7 7 12.5 6t13.5 -7z" />
    <glyph glyph-name="Tcommaaccent" unicode="&#x162;" horiz-adv-x="574" 
d="M563 590q0 -20 -20 -20h-181v-549q0 -13 -4.5 -17t-19.5 -4h-107q-12 0 -17.5 4.5t-5.5 16.5v549h-177q-19 0 -19 20v89q0 13 4 17t15 4h512q12 0 16 -4t4 -17v-89zM294 -294q-4 -11 -7.5 -15.5t-14.5 -4.5h-45q-24 0 -22 18l14 199q0 8 4 14t17 6h101q14 0 17.5 -6
t1.5 -14z" />
    <glyph glyph-name="tcommaaccent" unicode="&#x163;" horiz-adv-x="421" 
d="M409 26q1 -7 1 -11.5t-11 -8.5q-37 -11 -74 -14t-63 -3q-86 0 -123 36.5t-37 107.5v285h-70q-11 0 -14 5.5t-3 13.5v54q0 10 2.5 13.5t13.5 6.5l74 17l7 94q1 12 6.5 17t16.5 8l92 30q9 2 14.5 -2t5.5 -16v-134h110q11 0 13.5 -4.5t2.5 -12.5v-71q0 -10 -2 -14.5
t-14 -4.5h-110v-254q0 -29 14.5 -40t43.5 -11q7 0 17 1t20.5 2t20.5 2t17 2q16 3 17 -10zM214 -294q-4 -11 -7.5 -15.5t-14.5 -4.5h-45q-24 0 -22 18l14 199q0 8 4 14t17 6h101q14 0 17.5 -6t1.5 -14z" />
    <glyph glyph-name="Tcaron" unicode="&#x164;" horiz-adv-x="574" 
d="M563 590q0 -20 -20 -20h-181v-549q0 -13 -4.5 -17t-19.5 -4h-107q-12 0 -17.5 4.5t-5.5 16.5v549h-177q-19 0 -19 20v89q0 13 4 17t15 4h512q12 0 16 -4t4 -17v-89zM483 901q6 -7 6.5 -10.5t-8.5 -11.5l-136 -113q-21 -17 -33.5 -23t-29.5 -6q-10 0 -22.5 3.5t-23.5 13.5
l-144 124q-8 6 -8 10.5t6 10.5l31 34q7 7 12 5.5t13 -6.5l136 -77l147 80q8 4 13 5t11 -7z" />
    <glyph glyph-name="tcaron" unicode="&#x165;" horiz-adv-x="493" 
d="M409 26q1 -7 1 -11.5t-11 -8.5q-37 -11 -74 -14t-63 -3q-86 0 -123 36.5t-37 107.5v285h-70q-11 0 -14 5.5t-3 13.5v54q0 10 2.5 13.5t13.5 6.5l74 17l7 94q1 12 6.5 17t16.5 8l92 30q9 2 14.5 -2t5.5 -16v-134h110q11 0 13.5 -4.5t2.5 -12.5v-71q0 -10 -2 -14.5
t-14 -4.5h-110v-254q0 -29 14.5 -40t43.5 -11q7 0 17 1t20.5 2t20.5 2t17 2q16 3 17 -10zM450 594q-4 -11 -7.5 -15.5t-14.5 -4.5h-45q-24 0 -22 18l14 199q0 8 4 14t17 6h101q14 0 17.5 -6t1.5 -14z" />
    <glyph glyph-name="Tbar" unicode="&#x166;" horiz-adv-x="574" 
d="M563 590q0 -20 -20 -20h-182v-160h160q13 0 13 -16v-52q0 -11 -2.5 -14t-10.5 -3h-160v-306q0 -11 -3.5 -15t-17.5 -4h-111q-21 0 -21 19v306h-151q-9 0 -11 3t-2 14v52q0 8 2.5 12t10.5 4h151v160h-177q-19 0 -19 20v89q0 13 4 17t15 4h512q12 0 16 -4t4 -17v-89v0z" />
    <glyph glyph-name="tbar" unicode="&#x167;" horiz-adv-x="421" 
d="M409 26q1 -7 1 -11.5t-11 -8.5q-37 -11 -74 -14t-63 -3q-86 0 -123 36.5t-37 107.5v117h-61q-8 0 -10.5 3t-2.5 13v49q0 17 13 17h61v86h-70q-11 0 -14 5.5t-3 13.5v54q0 10 2.5 13.5t13.5 6.5l74 17l7 94q1 12 6.5 17t16.5 8l92 30q9 2 14.5 -2t5.5 -16v-134h110
q11 0 13.5 -4.5t2.5 -12.5v-71q0 -10 -2 -14.5t-14 -4.5h-110v-86h107q13 0 13 -17v-49q0 -10 -2.5 -13t-10.5 -3h-107v-82q0 -29 14.5 -40t43.5 -11q14 0 36.5 2.5t38.5 4.5q16 3 17 -10l12 -88v0z" />
    <glyph glyph-name="Utilde" unicode="&#x168;" horiz-adv-x="717" 
d="M642 97q0 -35 -15.5 -60t-57.5 -36q-20 -5 -44 -7.5t-48 -3.5t-45 -1.5t-34 -0.5q-86 0 -147.5 14.5t-100.5 49.5t-57 93t-18 146l-1 388q0 12 6 16.5t17 4.5h107q15 0 19.5 -4t4.5 -17v-397q0 -41 7 -71.5t25 -50.5t48.5 -29.5t78.5 -9.5q7 0 19 0.5t26.5 1t30 2
t28.5 4.5v550q0 12 5.5 16.5t17.5 4.5h106q15 0 18.5 -4t3.5 -17v-582zM435 758q-18 0 -36 6.5t-35 14t-34 14t-35 6.5q-27 0 -47 -31q-6 -9 -10.5 -11.5t-12.5 2.5l-44 25q-9 5 -9.5 10t3.5 13q19 38 46.5 61.5t72.5 23.5q19 0 36 -6.5t33.5 -14t32.5 -13.5t32 -6t26.5 7.5
t20.5 24.5q6 11 9 12t12 -2l50 -17q10 -3 11 -7.5t-3 -14.5q-19 -42 -46.5 -69.5t-72.5 -27.5z" />
    <glyph glyph-name="utilde" unicode="&#x169;" horiz-adv-x="600" 
d="M322 108q10 0 28.5 1t39.5 4v394q0 11 3.5 15t17.5 4h103q21 0 21 -19v-427q0 -34 -13.5 -54t-48.5 -28q-12 -2 -30 -4t-38.5 -3.5t-40.5 -2t-35 -0.5q-72 0 -122.5 14t-82 45t-45.5 80.5t-14 120.5v259q0 11 3.5 15t17.5 4h104q21 0 21 -19v-268q0 -33 4 -57.5t16 -41
t34 -24.5t57 -8zM372 594q-18 0 -36 6.5t-35 14t-34 14t-35 6.5q-27 0 -47 -31q-6 -9 -10.5 -11.5t-12.5 2.5l-44 25q-9 5 -9.5 10t3.5 13q19 38 46.5 61.5t72.5 23.5q19 0 36 -6.5t33.5 -14t32.5 -13.5t32 -6t26.5 7.5t20.5 24.5q6 11 9 12t12 -2l50 -17q10 -3 11 -7.5
t-3 -14.5q-19 -42 -46.5 -69.5t-72.5 -27.5z" />
    <glyph glyph-name="Umacron" unicode="&#x16a;" horiz-adv-x="717" 
d="M642 97q0 -35 -15.5 -60t-57.5 -36q-20 -5 -44 -7.5t-48 -3.5t-45 -1.5t-34 -0.5q-86 0 -147.5 14.5t-100.5 49.5t-57 93t-18 146l-1 388q0 12 6 16.5t17 4.5h107q15 0 19.5 -4t4.5 -17v-397q0 -41 7 -71.5t25 -50.5t48.5 -29.5t78.5 -9.5q7 0 19 0.5t26.5 1t30 2
t28.5 4.5v550q0 12 5.5 16.5t17.5 4.5h106q15 0 18.5 -4t3.5 -17v-582zM516 792q0 -21 -20 -21h-271q-20 0 -20 21v60q0 14 4.5 17.5t15.5 3.5h271q11 0 15.5 -3.5t4.5 -17.5v-60z" />
    <glyph glyph-name="umacron" unicode="&#x16b;" horiz-adv-x="600" 
d="M322 108q10 0 28.5 1t39.5 4v394q0 11 3.5 15t17.5 4h103q21 0 21 -19v-427q0 -34 -13.5 -54t-48.5 -28q-12 -2 -30 -4t-38.5 -3.5t-40.5 -2t-35 -0.5q-72 0 -122.5 14t-82 45t-45.5 80.5t-14 120.5v259q0 11 3.5 15t17.5 4h104q21 0 21 -19v-268q0 -33 4 -57.5t16 -41
t34 -24.5t57 -8zM454 619q0 -21 -20 -21h-271q-20 0 -20 21v60q0 14 4.5 17.5t15.5 3.5h271q11 0 15.5 -3.5t4.5 -17.5v-60z" />
    <glyph glyph-name="Ubreve" unicode="&#x16c;" horiz-adv-x="717" 
d="M642 97q0 -35 -15.5 -60t-57.5 -36q-20 -5 -44 -7.5t-48 -3.5t-45 -1.5t-34 -0.5q-86 0 -147.5 14.5t-100.5 49.5t-57 93t-18 146l-1 388q0 12 6 16.5t17 4.5h107q15 0 19.5 -4t4.5 -17v-397q0 -41 7 -71.5t25 -50.5t48.5 -29.5t78.5 -9.5q7 0 19 0.5t26.5 1t30 2
t28.5 4.5v550q0 12 5.5 16.5t17.5 4.5h106q15 0 18.5 -4t3.5 -17v-582zM356 743q-30 0 -56.5 9.5t-50 26t-43 37t-35.5 43.5q-2 3 -4 8.5t7 13.5l39 38q10 8 13.5 5.5t11.5 -8.5q32 -32 63.5 -50t60.5 -18q12 0 24.5 2.5t27.5 10t33 21t42 36.5q10 8 14 7.5t9 -5.5l38 -33
q10 -9 8.5 -14t-4.5 -9q-91 -121 -198 -121z" />
    <glyph glyph-name="ubreve" unicode="&#x16d;" horiz-adv-x="600" 
d="M322 108q10 0 28.5 1t39.5 4v394q0 11 3.5 15t17.5 4h103q21 0 21 -19v-427q0 -34 -13.5 -54t-48.5 -28q-12 -2 -30 -4t-38.5 -3.5t-40.5 -2t-35 -0.5q-72 0 -122.5 14t-82 45t-45.5 80.5t-14 120.5v259q0 11 3.5 15t17.5 4h104q21 0 21 -19v-268q0 -33 4 -57.5t16 -41
t34 -24.5t57 -8zM291 576q-30 0 -56.5 9.5t-50 26t-43 37t-35.5 43.5q-2 3 -4 8.5t7 13.5l39 38q10 8 13.5 5.5t11.5 -8.5q32 -32 63.5 -50t60.5 -18q12 0 24.5 2.5t27.5 10t33 21t42 36.5q10 8 14 7.5t9 -5.5l38 -33q10 -9 8.5 -14t-4.5 -9q-91 -121 -198 -121z" />
    <glyph glyph-name="Uring" unicode="&#x16e;" horiz-adv-x="717" 
d="M642 97q0 -35 -15.5 -60t-57.5 -36q-20 -5 -44 -7.5t-48 -3.5t-45 -1.5t-34 -0.5q-86 0 -147.5 14.5t-100.5 49.5t-57 93t-18 146l-1 388q0 12 6 16.5t17 4.5h107q15 0 19.5 -4t4.5 -17v-397q0 -41 7 -71.5t25 -50.5t48.5 -29.5t78.5 -9.5q7 0 19 0.5t26.5 1t30 2
t28.5 4.5v550q0 12 5.5 16.5t17.5 4.5h106q15 0 18.5 -4t3.5 -17v-582zM413 846q0 21 -14 35t-35 14t-34.5 -14t-13.5 -35q0 -23 13.5 -36.5t34.5 -13.5q20 0 34.5 13.5t14.5 36.5zM488 846q0 -26 -9.5 -47.5t-26 -37.5t-39.5 -24.5t-49 -8.5q-52 0 -87.5 32.5t-35.5 85.5
q0 25 9.5 47t26 37.5t39 24.5t48.5 9t49 -8.5t39.5 -24.5t26 -37.5t9.5 -47.5z" />
    <glyph glyph-name="uring" unicode="&#x16f;" horiz-adv-x="600" 
d="M322 108q10 0 28.5 1t39.5 4v394q0 11 3.5 15t17.5 4h103q21 0 21 -19v-427q0 -34 -13.5 -54t-48.5 -28q-12 -2 -30 -4t-38.5 -3.5t-40.5 -2t-35 -0.5q-72 0 -122.5 14t-82 45t-45.5 80.5t-14 120.5v259q0 11 3.5 15t17.5 4h104q21 0 21 -19v-268q0 -33 4 -57.5t16 -41
t34 -24.5t57 -8zM354 687q0 21 -14 35t-35 14t-34.5 -14t-13.5 -35q0 -23 13.5 -36.5t34.5 -13.5q20 0 34.5 13.5t14.5 36.5zM429 687q0 -26 -9.5 -47.5t-26 -37.5t-39.5 -24.5t-49 -8.5q-52 0 -87.5 32.5t-35.5 85.5q0 25 9.5 47t26 37.5t39 24.5t48.5 9t49 -8.5
t39.5 -24.5t26 -37.5t9.5 -47.5z" />
    <glyph glyph-name="Uhungarumlaut" unicode="&#x170;" horiz-adv-x="717" 
d="M642 97q0 -35 -15.5 -60t-57.5 -36q-20 -5 -44 -7.5t-48 -3.5t-45 -1.5t-34 -0.5q-86 0 -147.5 14.5t-100.5 49.5t-57 93t-18 146l-1 388q0 12 6 16.5t17 4.5h107q15 0 19.5 -4t4.5 -17v-397q0 -41 7 -71.5t25 -50.5t48.5 -29.5t78.5 -9.5q7 0 19 0.5t26.5 1t30 2
t28.5 4.5v550q0 12 5.5 16.5t17.5 4.5h106q15 0 18.5 -4t3.5 -17v-582zM187 811q10 7 31 24.5t44.5 36.5t45 36t31.5 25q7 6 11.5 6.5t12.5 -6.5l62 -68q11 -13 -1 -20l-181 -95q-14 -8 -25 3l-33 36q-6 6 -6 10.5t8 11.5zM407 811q10 7 31 24.5t44.5 36.5t45 36t31.5 25
q7 6 11.5 6.5t12.5 -6.5l62 -68q11 -13 -1 -20l-182 -95q-14 -8 -25 3l-32 36q-6 6 -6 10.5t8 11.5z" />
    <glyph glyph-name="uhungarumlaut" unicode="&#x171;" horiz-adv-x="600" 
d="M322 108q10 0 28.5 1t39.5 4v394q0 11 3.5 15t17.5 4h103q21 0 21 -19v-427q0 -34 -13.5 -54t-48.5 -28q-12 -2 -30 -4t-38.5 -3.5t-40.5 -2t-35 -0.5q-72 0 -122.5 14t-82 45t-45.5 80.5t-14 120.5v259q0 11 3.5 15t17.5 4h104q21 0 21 -19v-268q0 -33 4 -57.5t16 -41
t34 -24.5t57 -8zM384 572q-14 5 -26.5 9.5t-26.5 9.5q-9 2 -10 7t2 13l69 174q7 16 22 12l102 -26q16 -4 7 -18l-116 -172q-6 -9 -10.5 -10t-12.5 1zM217 572q-14 5 -26.5 9.5t-26.5 9.5q-9 2 -10 7t2 13l69 174q7 16 22 12l102 -26q16 -4 7 -18l-116 -172q-6 -9 -10.5 -10
t-12.5 1z" />
    <glyph glyph-name="Uogonek" unicode="&#x172;" horiz-adv-x="717" 
d="M642 97q0 -35 -15.5 -60t-57.5 -36q-35 -8 -78.5 -10t-74.5 -3q-24 -27 -34.5 -50t-10.5 -43q0 -40 53 -40q10 0 27 1.5t31 4.5q9 2 13.5 1t6.5 -9l10 -37q3 -9 0 -13.5t-8 -7.5q-30 -12 -63 -17t-62 -5q-60 0 -86 25.5t-27 62.5q0 29 17 65t46 65q-68 5 -116 23
t-78.5 53.5t-45 90.5t-14.5 133l-1 388q0 12 6 16.5t17 4.5h107q15 0 19.5 -4t4.5 -17v-397q0 -41 7 -71.5t25 -50.5t48.5 -29.5t78.5 -9.5q7 0 19 0.5t26.5 1t30 2t28.5 4.5v550q0 12 5.5 16.5t17.5 4.5h106q15 0 18.5 -4t3.5 -17v-582z" />
    <glyph glyph-name="uogonek" unicode="&#x173;" horiz-adv-x="600" 
d="M322 108q10 0 28.5 1t39.5 4v394q0 11 3.5 15t17.5 4h103q21 0 21 -19v-427q0 -29 -9.5 -48t-33.5 -29q-30 -31 -42.5 -56.5t-12.5 -46.5q0 -40 53 -40q10 0 27 1.5t31 4.5q9 2 13.5 1t6.5 -9l10 -37q3 -9 0 -13.5t-8 -7.5q-30 -12 -63 -17t-62 -5q-60 0 -86 25.5
t-27 62.5q0 28 15.5 61.5t41.5 62.5q-17 -1 -32.5 -1.5t-27.5 -0.5q-72 0 -122.5 14t-82 45t-45.5 80.5t-14 120.5v259q0 11 3.5 15t17.5 4h104q21 0 21 -19v-268q0 -33 4 -57.5t16 -41t34 -24.5t57 -8z" />
    <glyph glyph-name="Wcircumflex" unicode="&#x174;" horiz-adv-x="904" 
d="M452 503l-42 -184l-61 -266q-8 -35 -22.5 -45t-44.5 -10h-58q-14 0 -25 1t-19 6t-14 15t-10 29l-142 633q-3 14 1 17t15 3h122q14 0 21.5 -3.5t10.5 -18.5l50 -290l30 -179h7l38 181l54 252q8 32 21 44.5t45 12.5h58q30 0 40.5 -12.5t17.5 -40.5l56 -263l36 -170h6
l28 170l51 293q2 15 7.5 19t18.5 4h129q9 0 13 -3.5t0 -16.5l-142 -630q-5 -19 -10.5 -29.5t-13.5 -16t-19 -6.5t-25 -1h-55q-15 0 -26 1.5t-19 7.5t-14 17t-11 29l-58 266l-39 184h-6zM646 796q9 -8 9 -13.5t-7 -12.5l-28 -31q-6 -7 -13 -5.5t-15 6.5l-142 77l-138 -75
q-8 -5 -14 -5.5t-13 7.5l-26 27q-6 8 -6.5 12.5t6.5 11.5l133 115q14 12 29.5 19t28.5 7q29 0 61 -26z" />
    <glyph glyph-name="wcircumflex" unicode="&#x175;" horiz-adv-x="794" 
d="M396 327l-41 -138l-45 -142q-12 -32 -24.5 -42t-39.5 -10h-55q-24 0 -38.5 10t-23.5 44l-114 459q-3 11 1 14.5t14 3.5h113q12 0 17.5 -2t8.5 -14l34 -178l27 -162h6l35 126l45 156q8 25 20 36.5t40 11.5h52q26 0 35 -13t17 -35l46 -154l36 -129h6l24 159l33 181
q2 11 6 13.5t16 2.5l117 1q10 0 13.5 -3.5t1.5 -14.5l-115 -459q-9 -34 -24 -44t-39 -10h-52q-14 0 -23.5 1.5t-17 7t-13 16t-11.5 27.5l-44 144l-39 136h-5zM592 622q8 -8 7.5 -13.5t-8.5 -13.5l-29 -28q-7 -5 -12.5 -5t-15.5 7l-139 98l-134 -100q-8 -5 -13.5 -5t-13.5 7
l-30 28q-6 7 -5.5 11.5t5.5 12.5l131 137q14 14 29 22.5t30 8.5q22 0 36 -7t29 -24z" />
    <glyph glyph-name="Ycircumflex" unicode="&#x176;" horiz-adv-x="625" 
d="M316 397l66 148l66 137q5 10 10.5 14.5t16.5 4.5h127q14 0 14.5 -6t-2.5 -12l-223 -425v-238q0 -11 -4 -15.5t-18 -4.5h-109q-21 0 -21 20v236l-229 426q-3 5 -0.5 12t13.5 7h126q14 0 19.5 -5t10.5 -17l67 -139l64 -143h6zM504 796q9 -8 9 -13.5t-7 -12.5l-28 -31
q-6 -7 -13 -5.5t-15 6.5l-142 77l-138 -75q-8 -5 -14 -5.5t-13 7.5l-26 27q-6 8 -6.5 12.5t6.5 11.5l133 115q14 12 29.5 19t28.5 7q29 0 61 -26z" />
    <glyph glyph-name="ycircumflex" unicode="&#x177;" horiz-adv-x="559" 
d="M348 -87q-23 -69 -66 -98.5t-114 -29.5q-20 0 -46.5 3t-52.5 11q-12 3 -15.5 7t-0.5 15l17 79q3 12 7 13t15 -1q16 -3 27 -4t22 -1q35 0 55 11.5t31 46.5l18 54h-29q-23 0 -33 8t-19 35l-152 444q-4 11 0.5 15t12.5 4h117q15 0 20.5 -3.5t8.5 -14.5l57 -202l47 -174h6
l51 177l60 197q3 11 8 15.5t20 4.5h119q17 0 11 -16l-202 -597v1zM477 623q8 -8 7.5 -13.5t-8.5 -13.5l-29 -28q-7 -5 -12.5 -5t-15.5 7l-139 98l-134 -100q-8 -5 -13.5 -5t-13.5 7l-30 28q-6 7 -5.5 11.5t5.5 12.5l131 137q14 14 29 22.5t30 8.5q22 0 36 -7t29 -24z" />
    <glyph glyph-name="Ydieresis" unicode="&#x178;" horiz-adv-x="625" 
d="M316 397l66 148l66 137q5 10 10.5 14.5t16.5 4.5h127q14 0 14.5 -6t-2.5 -12l-223 -425v-238q0 -11 -4 -15.5t-18 -4.5h-109q-21 0 -21 20v236l-229 426q-3 5 -0.5 12t13.5 7h126q14 0 19.5 -5t10.5 -17l67 -139l64 -143h6zM489 819q0 -15 -6 -28t-16.5 -23t-23.5 -16
t-28 -6t-28.5 6t-24 16t-16.5 23t-6 28q0 30 22.5 52t52.5 22q15 0 28 -6t23.5 -16t16.5 -23.5t6 -28.5zM284 819q0 -15 -6 -28t-16.5 -23t-24 -16t-28.5 -6t-28 6t-23.5 16t-16.5 23t-6 28t6 28.5t16.5 23.5t23.5 16t28 6t28.5 -6t24 -16t16.5 -23.5t6 -28.5z" />
    <glyph glyph-name="Zacute" unicode="&#x179;" horiz-adv-x="629" 
d="M592 611q0 -23 -11 -42.5t-24 -35.5l-326 -396l2 -7h344q11 0 14.5 -4t3.5 -18v-87q0 -12 -3.5 -16.5t-14.5 -4.5h-489q-29 0 -43.5 12.5t-14.5 41.5v24q0 24 8.5 41.5t23.5 35.5l338 410l-1 6h-304q-19 0 -19 21v87q0 14 3.5 18t15.5 4h437q32 0 46 -12t14 -45v-33z
M415 936q6 5 11 7t13 -6l69 -79q6 -6 5 -11.5t-7 -7.5l-193 -99q-10 -5 -14.5 -3.5t-9.5 6.5l-38 46q-5 6 -5.5 10t7.5 11z" />
    <glyph glyph-name="zacute" unicode="&#x17a;" horiz-adv-x="504" 
d="M473 450q0 -15 -4.5 -29.5t-15.5 -27.5l-240 -270l2 -5h244q11 0 15 -3.5t4 -14.5v-81q0 -11 -3.5 -15t-14.5 -4h-389q-25 0 -36.5 11.5t-11.5 31.5v30q0 15 4.5 30t19.5 32l239 270l-2 4h-218q-12 0 -15 4t-3 15v78q0 19 19 19h356q25 0 37.5 -7.5t12.5 -32.5v-35z
M210 591q-9 3 -10 7.5t2 12.5l70 174q5 14 12.5 14t18.5 -3l95 -25q16 -4 8 -18l-117 -172q-6 -9 -10.5 -10t-12.5 1z" />
    <glyph glyph-name="Zdotaccent" unicode="&#x17b;" horiz-adv-x="629" 
d="M592 611q0 -23 -11 -42.5t-24 -35.5l-326 -396l2 -7h344q11 0 14.5 -4t3.5 -18v-87q0 -12 -3.5 -16.5t-14.5 -4.5h-489q-29 0 -43.5 12.5t-14.5 41.5v24q0 24 8.5 41.5t23.5 35.5l338 410l-1 6h-304q-19 0 -19 21v87q0 14 3.5 18t15.5 4h437q32 0 46 -12t14 -45v-33z
M427 826q0 -35 -24.5 -58t-57.5 -23q-34 0 -58.5 23t-24.5 58q0 34 24.5 58t58.5 24q33 0 57.5 -24t24.5 -58z" />
    <glyph glyph-name="zdotaccent" unicode="&#x17c;" horiz-adv-x="504" 
d="M473 450q0 -15 -4.5 -29.5t-15.5 -27.5l-240 -270l2 -5h244q11 0 15 -3.5t4 -14.5v-81q0 -11 -3.5 -15t-14.5 -4h-389q-25 0 -36.5 11.5t-11.5 31.5v30q0 15 4.5 30t19.5 32l239 270l-2 4h-218q-12 0 -15 4t-3 15v78q0 19 19 19h356q25 0 37.5 -7.5t12.5 -32.5v-35z
M350 676q0 -35 -24.5 -58t-57.5 -23q-34 0 -58.5 23t-24.5 58q0 34 24.5 58t58.5 24q33 0 57.5 -24t24.5 -58z" />
    <glyph glyph-name="Zcaron" unicode="&#x17d;" horiz-adv-x="629" 
d="M592 611q0 -23 -11 -42.5t-24 -35.5l-326 -396l2 -7h344q11 0 14.5 -4t3.5 -18v-87q0 -12 -3.5 -16.5t-14.5 -4.5h-489q-29 0 -43.5 12.5t-14.5 41.5v24q0 24 8.5 41.5t23.5 35.5l338 410l-1 6h-304q-19 0 -19 21v87q0 14 3.5 18t15.5 4h437q32 0 46 -12t14 -45v-33z
M540 901q6 -7 6.5 -10.5t-8.5 -11.5l-136 -113q-21 -17 -33.5 -23t-29.5 -6q-10 0 -22.5 3.5t-23.5 13.5l-144 124q-8 6 -8 10.5t6 10.5l31 34q7 7 12 5.5t13 -6.5l136 -77l147 80q8 4 13 5t11 -7z" />
    <glyph glyph-name="zcaron" unicode="&#x17e;" horiz-adv-x="504" 
d="M473 450q0 -15 -4.5 -29.5t-15.5 -27.5l-240 -270l2 -5h244q11 0 15 -3.5t4 -14.5v-81q0 -11 -3.5 -15t-14.5 -4h-389q-25 0 -36.5 11.5t-11.5 31.5v30q0 15 4.5 30t19.5 32l239 270l-2 4h-218q-12 0 -15 4t-3 15v78q0 19 19 19h356q25 0 37.5 -7.5t12.5 -32.5v-35z
M259 692l140 99q8 6 12.5 7.5t12.5 -5.5l35 -29q8 -7 6.5 -13t-9.5 -14l-144 -145q-8 -9 -20.5 -13.5t-26.5 -5.5q-16 -1 -31.5 4t-26.5 17l-139 145q-10 12 1 23l31 30q7 7 12.5 6t13.5 -7z" />
    <glyph glyph-name="florin" unicode="&#x192;" 
d="M482 703q16 0 47.5 -2t63.5 -11q11 -4 12 -9t-1 -14l-13 -67q-2 -8 -7 -10.5t-19 -0.5q-33 6 -56 6q-35 0 -54.5 -20t-29.5 -70q-4 -21 -6 -36t-6 -34h103q11 0 14 -3t3 -14l-1 -63q0 -11 -2.5 -16.5t-15.5 -5.5h-116q-4 -27 -8.5 -58t-9.5 -63t-10 -63t-10 -57
q-10 -45 -22 -83t-32.5 -65.5t-52.5 -43t-83 -15.5q-10 0 -23 1t-27 3t-27.5 6t-23.5 9q-7 4 -7.5 8t2.5 13l19 68q3 10 8 12t13 0q14 -2 25.5 -3.5t22.5 -1.5q33 1 48.5 25t26.5 69q14 64 22.5 125t16.5 114h-80q-13 0 -14.5 6t-0.5 15v60q0 20 19 20h91q2 15 5.5 37.5
t6.5 38.5q6 31 17 65.5t32 62.5t55 46.5t85 18.5z" />
    <glyph glyph-name="Ohorn" unicode="&#x1a0;" horiz-adv-x="794" 
d="M675 352q0 -86 -18.5 -153t-57.5 -114t-98 -71.5t-140 -24.5q-155 0 -230.5 94t-75.5 266q0 84 21.5 151.5t61.5 114t97 71.5t129 25t126.5 -21t92.5 -61q41 4 61.5 28t20.5 86v40q0 13 5.5 16t14.5 3h73q10 0 14 -4t4 -15v-57q0 -72 -32.5 -124.5t-99.5 -67.5
q31 -79 31 -182zM516 349q0 45 -6.5 86t-23.5 72t-46 49.5t-75 18.5q-38 0 -66.5 -17.5t-47.5 -47.5t-28 -70t-9 -85q0 -53 7.5 -95t25 -72t46.5 -46t73 -16q43 0 72 18.5t46 49t24.5 71t7.5 84.5z" />
    <glyph glyph-name="ohorn" unicode="&#x1a1;" horiz-adv-x="677" 
d="M550 265q0 -132 -63 -204t-192 -72q-130 0 -190 72t-60 202q0 64 17.5 115.5t50 86.5t79 54t105.5 19q66 0 114 -21t80 -59q34 6 49.5 30t15.5 79v41q0 13 6 16t15 3h72q10 0 14 -4t4 -15v-57q0 -72 -31 -123.5t-97 -67.5q11 -44 11 -95zM399 262q0 34 -5 62t-17 48
t-31 31.5t-47 11.5q-53 0 -78.5 -40.5t-25.5 -109.5q0 -75 23.5 -114t77.5 -39q28 0 47.5 11.5t32 32t18 47.5t5.5 59z" />
    <glyph glyph-name="Uhorn" unicode="&#x1af;" horiz-adv-x="818" 
d="M75 680q0 20 16 20h117q12 0 15.5 -4t3.5 -16v-371q0 -40 3 -71q5 -61 40 -89.5t116 -28.5q14 0 46 1.5t58 6.5v552q0 20 19 20h114q12 0 15 -4t3 -16v-55h10q22 0 35.5 6t20.5 19t9 31.5t2 44.5v55q0 13 5.5 16t14.5 3h72q10 0 14 -4t4 -15v-53q0 -41 -5 -78t-22.5 -65
t-51.5 -45t-92 -17h-16v-426q0 -31 -11.5 -54t-40.5 -35q-8 -5 -17 -6t-20 -3q-20 -3 -42 -5t-43 -3.5t-39.5 -2t-30.5 -0.5q-80 0 -138 12t-97 41t-60 77.5t-26 121.5q0 10 -0.5 19.5t-0.5 20.5v400v0z" />
    <glyph glyph-name="uhorn" unicode="&#x1b0;" horiz-adv-x="718" 
d="M322 108q10 0 28.5 1t39.5 4v394q0 11 3.5 15t17.5 4h103q21 0 21 -19v-52h9q21 0 34 6t20 18.5t9 31.5t2 44v56q0 13 5.5 16t14.5 3h73q10 0 14 -4t4 -15v-71q0 -39 -7.5 -73t-27 -59.5t-52 -40t-82.5 -14.5h-16v-273q0 -34 -13.5 -54t-48.5 -28q-12 -2 -30 -4
t-38.5 -3.5t-40.5 -2t-35 -0.5q-72 0 -122.5 14t-82 45t-45.5 80.5t-14 120.5v259q0 11 3.5 15t17.5 4h104q21 0 21 -19v-268q0 -33 4 -57.5t16 -41t34 -24.5t57 -8z" />
    <glyph glyph-name="AEacute" unicode="&#x1fc;" horiz-adv-x="925" 
d="M893 21q0 -11 -3.5 -16t-14.5 -5h-290q-46 0 -78 8.5t-52.5 26.5t-31.5 46t-14 66h-192l-42 -128q-3 -10 -8 -14.5t-18 -4.5h-121q-8 0 -12.5 5t0.5 15l184 541q13 39 30.5 65.5t42 43t56.5 24t74 7.5h460q11 0 14.5 -4t3.5 -18v-89q0 -11 -3.5 -15.5t-14.5 -4.5h-236
q-40 0 -53.5 -18.5t-13.5 -46.5v-74h273q11 0 14.5 -4t3.5 -18v-82q0 -11 -3.5 -16t-14.5 -5h-273v-111q0 -35 17.5 -49t49.5 -14h248q11 0 14.5 -4t3.5 -18v-89zM252 266h157v251q0 17 1.5 33.5t6.5 27.5q-41 0 -57.5 -13.5t-23.5 -34.5l-35 -106zM635 936q6 5 11 7t13 -6
l69 -79q6 -6 5 -11.5t-7 -7.5l-193 -99q-10 -5 -14.5 -3.5t-9.5 6.5l-38 46q-5 6 -5.5 10t7.5 11z" />
    <glyph glyph-name="aeacute" unicode="&#x1fd;" horiz-adv-x="881" 
d="M606 539q115 0 173.5 -59t58.5 -166q0 -51 -19.5 -69t-54.5 -19h-256q1 -36 10.5 -58.5t25.5 -35t37.5 -16.5t46.5 -4q29 0 59 7t56 17q11 5 16 4t9 -10l31 -72q4 -9 2 -14t-10 -10q-37 -24 -86.5 -34.5t-91.5 -10.5q-49 0 -89.5 10.5t-70.5 37.5q-44 -26 -97.5 -37
t-98.5 -11q-62 0 -103 13.5t-65 36t-34 52t-10 61.5q0 37 12 68.5t36.5 54.5t62.5 36.5t91 13.5h114q2 7 3 13.5t1 11.5q1 71 -91 71q-31 0 -71.5 -5t-69.5 -13q-11 -2 -16.5 -0.5t-7.5 12.5l-16 71q-2 10 0 14.5t10 7.5q45 16 93.5 23.5t98.5 7.5q110 0 158 -57
q30 29 70 43t83 14zM279 103q17 0 46 4t53 17q-18 45 -21 107h-77q-14 0 -29 -2.5t-27.5 -9.5t-20.5 -20.5t-8 -35.5q0 -32 22 -46t62 -14zM609 419q-41 0 -67.5 -26.5t-30.5 -70.5h187q-1 17 -5 34.5t-14 31.5t-27 22.5t-43 8.5zM408 591q-9 3 -10 7.5t2 12.5l70 174
q5 14 12.5 14t18.5 -3l95 -25q16 -4 8 -18l-117 -172q-6 -9 -10.5 -10t-12.5 1z" />
    <glyph glyph-name="Oslashacute" unicode="&#x1fe;" horiz-adv-x="730" 
d="M112 4q-7 -8 -11 -8.5t-9 4.5l-22 18q-7 5 -7 9t7 13l48 59q-63 91 -63 250q0 84 21.5 151.5t61.5 114t97 71.5t129 25q63 0 112.5 -16.5t87.5 -47.5l42 52q12 16 23 5l21 -17q6 -5 7 -9.5t-7 -12.5l-47 -58q36 -47 54 -111t18 -144q0 -86 -18.5 -153t-57.5 -114
t-98 -71.5t-140 -24.5q-131 0 -205 68zM516 349q-1 35 -5 68t-15 61l-241 -301q18 -25 45.5 -38t67.5 -13q43 0 71.5 18.5t45.5 49t24 71t7 84.5zM214 355q0 -35 3.5 -65t12.5 -55l238 297q-17 20 -42.5 31.5t-60.5 11.5q-38 0 -66.5 -17.5t-47.5 -47.5t-28 -70t-9 -85z
M473 936q6 5 11 7t13 -6l69 -79q6 -6 5 -11.5t-7 -7.5l-193 -99q-10 -5 -14.5 -3.5t-9.5 6.5l-38 46q-5 6 -5.5 10t7.5 11z" />
    <glyph glyph-name="oslashacute" unicode="&#x1ff;" horiz-adv-x="595" 
d="M550 265q0 -132 -63 -204t-192 -72q-54 0 -95.5 13t-71.5 37l-40 -44q-10 -10 -17 -2l-15 13q-6 5 -5 9t6 9l41 46q-28 35 -40.5 83.5t-12.5 109.5q0 64 17.5 115.5t50 86.5t79 54t105.5 19q107 0 171 -55l39 45q6 6 9.5 6.5t8.5 -4.5l15 -13q5 -5 5.5 -8.5t-4.5 -9.5
l-43 -48q52 -70 52 -186zM195 265q0 -45 9 -78l168 191q-23 37 -73 37q-53 0 -78.5 -40.5t-25.5 -109.5zM399 262q0 20 -1.5 37.5t-6.5 33.5l-168 -189q24 -32 73 -32q28 0 47.5 11.5t32 32t18 47.5t5.5 59zM251 591q-9 3 -10 7.5t2 12.5l70 174q5 14 12.5 14t18.5 -3
l95 -25q16 -4 8 -18l-117 -172q-6 -9 -10.5 -10t-12.5 1z" />
    <glyph glyph-name="Scommaaccent" unicode="&#x218;" horiz-adv-x="600" 
d="M62 509q0 42 14.5 79t43.5 64.5t74 43.5t106 16q28 0 58.5 -3t60 -9t56.5 -14.5t49 -19.5q12 -6 13.5 -11.5t-3.5 -20.5l-26 -75q-5 -14 -10 -16t-17 1q-47 14 -93.5 23t-87.5 9q-44 0 -62 -16t-18 -39q0 -13 6 -24t19.5 -21.5t36 -21.5t55.5 -24q51 -20 94 -40.5
t73.5 -46.5t48 -61t17.5 -84q0 -53 -19 -92t-53 -65t-82.5 -39t-106.5 -13q-32 0 -67 3.5t-69.5 11t-67.5 19.5t-61 29q-8 5 -9.5 11t3.5 19l34 80q5 12 11 14t17 -3q20 -8 44 -16.5t49.5 -15t52 -11t52.5 -4.5q31 0 52 6t34 15.5t18 22t5 26.5q0 15 -5.5 27t-18 23.5
t-34 22t-53.5 22.5q-53 20 -96 41t-74 46.5t-47.5 57t-16.5 73.5zM328 -294q-4 -11 -7.5 -15.5t-14.5 -4.5h-45q-24 0 -22 18l14 199q0 8 4 14t17 6h101q14 0 17.5 -6t1.5 -14z" />
    <glyph glyph-name="scommaaccent" unicode="&#x219;" horiz-adv-x="497" 
d="M461 150q0 -81 -57.5 -121t-150.5 -40q-52 0 -109.5 11.5t-101.5 37.5q-8 5 -9.5 10.5t3.5 15.5l29 69q5 11 10.5 13.5t16.5 -2.5q16 -7 36 -13.5t41.5 -11.5t41.5 -8t36 -3q36 0 50.5 12.5t14.5 31.5q0 20 -20.5 34t-70.5 33q-40 15 -70.5 31t-51.5 34.5t-32 42
t-11 54.5q0 33 12 61.5t36 49.5t60.5 33.5t86.5 12.5q45 0 91.5 -8.5t84.5 -25.5q11 -5 12 -10.5t-3 -17.5l-25 -64q-4 -11 -9 -12.5t-16 2.5q-37 11 -68 17t-64 6q-27 0 -39 -12.5t-12 -25.5q0 -20 18.5 -33t64.5 -30q36 -14 68 -28.5t55.5 -34t37.5 -46.5t14 -65z
M262 -294q-4 -11 -7.5 -15.5t-14.5 -4.5h-45q-24 0 -22 18l14 199q0 8 4 14t17 6h101q14 0 17.5 -6t1.5 -14z" />
    <glyph glyph-name="circumflex" unicode="&#x2c6;" horiz-adv-x="586" 
d="M487 622q8 -8 7.5 -13.5t-8.5 -13.5l-29 -28q-7 -5 -12.5 -5t-15.5 7l-139 98l-134 -100q-8 -5 -13.5 -5t-13.5 7l-30 28q-6 7 -5.5 11.5t5.5 12.5l131 137q14 14 29 22.5t30 8.5q22 0 36 -7t29 -24l133 -136v0z" />
    <glyph glyph-name="ring" unicode="&#x2da;" horiz-adv-x="565" 
d="M351 687q0 21 -14 35t-34 14q-22 0 -35.5 -14t-13.5 -35q0 -23 13.5 -36.5t35.5 -13.5q20 0 34 13.5t14 36.5zM426 687q0 -26 -9.5 -47.5t-26 -37.5t-39 -24.5t-48.5 -8.5q-53 0 -88.5 32.5t-35.5 85.5q0 25 9.5 47t26 37.5t39.5 24.5t49 9t48.5 -8.5t39 -24.5t26 -37.5
t9.5 -47.5z" />
    <glyph glyph-name="tilde" unicode="&#x2dc;" horiz-adv-x="581" 
d="M362 594q-18 0 -36 6.5t-35 14t-34 14t-35 6.5q-27 0 -47 -31q-6 -9 -10.5 -11.5t-12.5 2.5l-44 25q-9 5 -9.5 10t3.5 13q19 38 46.5 61.5t72.5 23.5q19 0 36 -6.5t33.5 -14t32.5 -13.5t32 -6t26.5 7.5t20.5 24.5q6 11 9 12t12 -2l50 -17q10 -3 11 -7.5t-3 -14.5
q-19 -42 -46.5 -69.5t-72.5 -27.5z" />
    <glyph glyph-name="afii10023" unicode="&#x401;" horiz-adv-x="613" 
d="M576 23q0 -12 -4 -17.5t-16 -5.5h-296q-56 0 -91.5 16t-56.5 42t-29 59t-8 67v332q0 36 10 69t31.5 59t56.5 41.5t86 15.5h287q12 0 15.5 -5t3.5 -19v-85q0 -13 -4 -17.5t-15 -4.5h-254q-39 0 -52 -18t-13 -44v-77h287q12 0 15.5 -5t3.5 -19v-78q0 -12 -3.5 -17.5
t-15.5 -5.5h-287v-114q0 -35 16.5 -47.5t48.5 -12.5h264q13 0 16.5 -4.5t3.5 -19.5v-85zM523 817q0 -15 -6 -28t-16.5 -23t-23.5 -16t-28 -6t-28.5 6t-24 16t-16.5 23t-6 28q0 30 22.5 52t52.5 22q15 0 28 -6t23.5 -16t16.5 -23.5t6 -28.5zM318 817q0 -15 -6 -28t-16.5 -23
t-24 -16t-28.5 -6t-28 6t-23.5 16t-16.5 23t-6 28t6 28.5t16.5 23.5t23.5 16t28 6t28.5 -6t24 -16t16.5 -23.5t6 -28.5z" />
    <glyph glyph-name="afii10051" unicode="&#x402;" horiz-adv-x="806" 
d="M354 434q41 11 84.5 17.5t83.5 6.5q54 0 98.5 -16t76.5 -47t49.5 -78t17.5 -108q0 -39 -9 -80.5t-27.5 -80.5t-48 -74t-69.5 -62q-11 -6 -16 -6t-13 9l-55 62q-10 13 1 25q47 42 68.5 93t21.5 111q0 59 -32 93.5t-96 34.5q-35 0 -68 -6t-67 -17v-292q0 -11 -3.5 -15
t-17.5 -4h-112q-21 0 -21 19v551h-169q-19 0 -19 20v89q0 13 4 17t15 4h548q11 0 15 -3.5t4 -17.5v-89q0 -20 -19 -20h-225v-136z" />
    <glyph glyph-name="afii10052" unicode="&#x403;" horiz-adv-x="576" 
d="M227 21q0 -14 -4 -17.5t-19 -3.5h-106q-12 0 -17.5 4.5t-5.5 16.5v495q0 36 9.5 69t31 59t56.5 41.5t87 15.5h288q13 0 16.5 -5t3.5 -19v-85q0 -13 -4 -17.5t-16 -4.5h-255q-39 0 -52 -17.5t-13 -44.5v-487zM404 936q6 5 11 7t13 -6l69 -79q6 -6 5 -11.5t-7 -7.5
l-193 -99q-10 -5 -14.5 -3.5t-9.5 6.5l-38 46q-5 6 -5.5 10t7.5 11z" />
    <glyph glyph-name="afii10053" unicode="&#x404;" horiz-adv-x="643" 
d="M388 127q48 0 85 11.5t69 23.5q14 6 20 2.5t11 -14.5l34 -72q7 -14 5 -21t-11 -12q-54 -33 -113.5 -44.5t-117.5 -11.5q-82 0 -141.5 25t-98 71.5t-57 113t-18.5 149.5q0 81 23.5 148t65.5 114.5t101.5 73.5t131.5 26q51 0 100 -8.5t96 -34.5q11 -6 13 -12t-5 -23
l-31 -69q-5 -14 -10.5 -17t-19.5 2q-36 13 -67 19.5t-69 6.5q-66 0 -107.5 -41.5t-53.5 -108.5h230q11 0 15 -4t4 -15v-85q0 -12 -4 -15t-15 -3h-236q3 -40 14 -72.5t31 -55t51 -35t75 -12.5z" />
    <glyph glyph-name="afii10054" unicode="&#x405;" horiz-adv-x="600" 
d="M62 509q0 42 14.5 79t43.5 64.5t74 43.5t106 16q28 0 58.5 -3t60 -9t56.5 -14.5t49 -19.5q12 -6 13.5 -11.5t-3.5 -20.5l-26 -75q-5 -14 -10 -16t-17 1q-47 14 -93.5 23t-87.5 9q-44 0 -62 -16t-18 -39q0 -13 6 -24t19.5 -21.5t36 -21.5t55.5 -24q51 -20 94 -40.5
t73.5 -46.5t48 -61t17.5 -84q0 -53 -19 -92t-53 -65t-82.5 -39t-106.5 -13q-32 0 -67 3.5t-69.5 11t-67.5 19.5t-61 29q-8 5 -9.5 11t3.5 19l34 80q5 12 11 14t17 -3q20 -8 44 -16.5t49.5 -15t52 -11t52.5 -4.5q31 0 52 6t34 15.5t18 22t5 26.5q0 15 -5.5 27t-18 23.5
t-34 22t-53.5 22.5q-53 20 -96 41t-74 46.5t-47.5 57t-16.5 73.5z" />
    <glyph glyph-name="afii10055" unicode="&#x406;" horiz-adv-x="329" 
d="M241 21q0 -13 -4.5 -17t-19.5 -4h-106q-12 0 -17.5 4.5t-5.5 16.5v658q0 12 5.5 16.5t17.5 4.5h106q15 0 19.5 -4t4.5 -17v-658v0z" />
    <glyph glyph-name="afii10056" unicode="&#x407;" horiz-adv-x="329" 
d="M241 21q0 -13 -4.5 -17t-19.5 -4h-106q-12 0 -17.5 4.5t-5.5 16.5v658q0 12 5.5 16.5t17.5 4.5h106q15 0 19.5 -4t4.5 -17v-658zM338 820q0 -15 -6 -28t-16.5 -23t-23.5 -16t-28 -6t-28.5 6t-24 16t-16.5 23t-6 28q0 30 22.5 52t52.5 22q15 0 28 -6t23.5 -16t16.5 -23.5
t6 -28.5zM133 820q0 -15 -6 -28t-16.5 -23t-24 -16t-28.5 -6t-28 6t-23.5 16t-16.5 23t-6 28t6 28.5t16.5 23.5t23.5 16t28 6t28.5 -6t24 -16t16.5 -23.5t6 -28.5z" />
    <glyph glyph-name="afii10057" unicode="&#x408;" horiz-adv-x="590" 
d="M240 -11q-21 0 -49.5 2.5t-59 8.5t-60 16t-53.5 24q-8 5 -9.5 9t4.5 18l36 82q5 11 9.5 11.5t14.5 -3.5q34 -14 74 -23t80 -9q42 0 68 12t41 34.5t20 54t5 69.5v385q0 14 6 17t17 3h106q13 0 18 -3t5 -17v-410q0 -65 -14.5 -116.5t-46.5 -88.5t-84 -56.5t-128 -19.5z" />
    <glyph glyph-name="afii10058" unicode="&#x409;" horiz-adv-x="1037" 
d="M300 498q-8 -111 -16 -197t-29 -149.5t-62.5 -106t-115.5 -66.5q-11 -4 -18.5 -2t-12.5 14l-34 75q-4 9 -2 17t13 13q39 19 62.5 45t37 69t20 108.5t12.5 162.5l9 153q2 35 15 51t49 16h307q36 0 50 -16.5t14 -51.5v-186h147q89 0 140 -25.5t76 -61.5t31 -74t6 -63
q0 -48 -18.5 -89t-51 -70.5t-76 -46.5t-93.5 -17h-253q-36 0 -48 14.5t-12 46.5v507h-143zM842 228q0 40 -24.5 66t-71.5 26h-147v-186h145q28 0 47 9.5t30.5 23.5t16 30.5t4.5 30.5z" />
    <glyph glyph-name="afii10059" unicode="&#x40a;" horiz-adv-x="1052" 
d="M522 0q-36 0 -48 14.5t-12 46.5q0 8 -0.5 41t-0.5 73v79v60h-233v-295q0 -11 -3.5 -15t-17.5 -4h-111q-21 0 -21 19v662q0 19 21 19h111q14 0 17.5 -4t3.5 -15v-241h233v242q0 19 21 19h111q14 0 17.5 -4t3.5 -15v-240h146q60 0 102 -11.5t70 -30.5t44.5 -43.5t25 -49
t10.5 -47.5t2 -40q0 -48 -18.5 -88t-51 -69.5t-76 -46t-93.5 -16.5h-253zM857 226q0 40 -24.5 64.5t-72.5 24.5h-146v-181h145q28 0 47 9t30.5 23t16 30t4.5 30z" />
    <glyph glyph-name="afii10060" unicode="&#x40b;" horiz-adv-x="800" 
d="M595 590q0 -20 -19 -20h-222v-136q38 9 80.5 16t90.5 7q113 0 169 -58.5t56 -168.5v-205q0 -16 -6 -20.5t-21 -4.5h-98q-27 0 -27 25v195q0 25 -6 46t-19.5 36t-35.5 23.5t-55 8.5q-27 0 -61.5 -6.5t-66.5 -17.5v-291q0 -11 -3.5 -15t-17.5 -4h-111q-21 0 -21 19v551
h-170q-19 0 -19 20v89q0 13 4 17t15 4h545q11 0 15 -4t4 -17v-89v0z" />
    <glyph glyph-name="afii10061" unicode="&#x40c;" horiz-adv-x="674" 
d="M481 373q26 -9 43 -20.5t28 -26.5t17.5 -33.5t12.5 -40.5l62 -232q2 -5 0.5 -12.5t-14.5 -7.5h-116q-5 0 -11 2t-9 12l-61 215q-8 26 -18.5 42.5t-25.5 25.5t-35 12.5t-46 3.5h-82l1 -297q0 -11 -4 -13.5t-14 -2.5h-116q-9 0 -13.5 2.5t-4.5 13.5v668q0 11 4.5 13.5
t13.5 2.5h117q10 0 14 -2.5t2 -13.5v-255h80q15 0 31.5 2.5t32.5 11.5t29.5 27t21.5 49l45 169q2 10 8.5 12t11.5 2h112q13 0 14.5 -7.5t-0.5 -12.5l-46 -179q-20 -86 -85 -125v-5zM417 939q6 5 11 7t13 -6l69 -79q6 -6 5 -11.5t-7 -7.5l-193 -99q-10 -5 -14.5 -3.5
t-9.5 6.5l-38 46q-5 6 -5.5 10t7.5 11z" />
    <glyph glyph-name="afii10062" unicode="&#x40e;" horiz-adv-x="606" 
d="M583 703q19 0 12 -17l-205 -569q-14 -38 -31.5 -64t-41 -41.5t-53.5 -22.5t-69 -7q-20 0 -45 3t-51 11q-13 4 -16.5 7.5t-1.5 14.5l16 83q2 11 7 12t16 -1q17 -2 29.5 -3t25.5 -1q17 0 29.5 1.5t22.5 7t17 15t13 26.5l16 45h-26q-24 0 -34.5 8t-21.5 35l-176 438
q-5 10 0 14.5t14 4.5h116q17 0 23 -4t10 -16l74 -203l56 -165h7l53 173l63 194q5 13 10 17t21 4h121zM304 729q-30 0 -56.5 9.5t-50 26t-43 37t-35.5 43.5q-2 3 -4 8.5t7 13.5l39 38q10 8 13.5 5.5t11.5 -8.5q32 -32 63.5 -50t60.5 -18q12 0 24.5 2.5t27.5 10t33 21t42 36.5
q10 8 14 7.5t9 -5.5l38 -33q10 -9 8.5 -14t-4.5 -9q-91 -121 -198 -121z" />
    <glyph glyph-name="afii10145" unicode="&#x40f;" horiz-adv-x="725" 
d="M650 67q0 -34 -14 -50.5t-50 -16.5h-151l-7 -150q0 -19 -19 -19h-85q-11 0 -15 4.5t-5 15.5q0 10 -1 31t-2.5 44t-2.5 43.5t-2 30.5h-157q-35 0 -49.5 16.5t-14.5 50.5v614q0 19 21 19h110q14 0 17.5 -3.5t3.5 -15.5v-550h271v550q0 19 20 19h110q14 0 18 -3.5t4 -15.5
v-614z" />
    <glyph glyph-name="afii10017" unicode="&#x410;" horiz-adv-x="655" 
d="M441 146h-229l-39 -127q-3 -10 -8.5 -14.5t-19.5 -4.5h-117q-11 0 -13.5 6t-0.5 14l208 627q5 17 11.5 27.5t15 16.5t20 8.5t26.5 2.5h60q17 0 29 -1.5t21 -7.5t15.5 -17t12.5 -29l208 -627q2 -6 0 -13t-13 -7h-119q-11 0 -18.5 2.5t-10.5 13.5zM248 270h157l-38 127
l-37 143h-6l-38 -143z" />
    <glyph glyph-name="afii10018" unicode="&#x411;" horiz-adv-x="665" 
d="M135 0q-37 0 -48.5 14t-11.5 46v572q0 35 14 51.5t50 16.5h390q11 0 14.5 -4.5t3.5 -17.5v-89q0 -11 -3.5 -15t-14.5 -4h-302v-124h146q59 0 101 -12t70.5 -31.5t45 -44t24.5 -49.5t10.5 -48.5t2.5 -40.5q0 -48 -18.5 -88t-51 -69.5t-76 -46t-94.5 -16.5h-252zM469 228
q0 39 -24.5 65t-71.5 26h-146v-186h145q28 0 47 9.5t30 23.5t15.5 31t4.5 31z" />
    <glyph glyph-name="afii10019" unicode="&#x412;" horiz-adv-x="680" 
d="M518 383q28 -11 48.5 -29.5t33.5 -41t19 -48.5t6 -51q0 -48 -18.5 -87t-51 -67t-76 -43.5t-93.5 -15.5h-251q-36 0 -48 14.5t-12 46.5v578q0 32 12 47t48 15h245q45 0 84.5 -10t68.5 -31.5t45.5 -55t16.5 -80.5q0 -42 -21.5 -78.5t-55.5 -55.5v-7zM468 223q0 40 -24.5 65
t-72.5 25h-144v-179h144q28 0 47 8.5t30 21.5t15.5 29t4.5 30zM227 435h136q12 0 25.5 3t24.5 10.5t18 21t7 34.5q0 30 -19 47t-51 17h-141v-133z" />
    <glyph glyph-name="afii10020" unicode="&#x413;" horiz-adv-x="576" 
d="M227 21q0 -14 -4 -17.5t-19 -3.5h-106q-12 0 -17.5 4.5t-5.5 16.5v495q0 36 9.5 69t31 59t56.5 41.5t87 15.5h288q13 0 16.5 -5t3.5 -19v-85q0 -13 -4 -17.5t-16 -4.5h-255q-39 0 -52 -17.5t-13 -44.5v-487z" />
    <glyph glyph-name="afii10021" unicode="&#x414;" horiz-adv-x="781" 
d="M157 0q-2 -36 -5 -72l-6 -72q-1 -21 -22 -21h-81q-17 0 -19 20l-11 223q0 20 7 32.5t30 17.5l36 3q20 20 33 43t20.5 48.5t12 51.5t7.5 52l35 277q3 22 6.5 40t12 30.5t23.5 19.5t39 7h329q39 0 52.5 -16.5t13.5 -50.5v-502l42 -3q23 -2 30.5 -12.5t6.5 -26.5l-13 -234
q-1 -10 -4.5 -15t-13.5 -5h-86q-19 0 -19 21l-5 144h-451zM518 568h-185q-12 -107 -21 -181t-17.5 -124.5t-17.5 -81.5t-20 -51h261v438z" />
    <glyph glyph-name="afii10022" unicode="&#x415;" horiz-adv-x="613" 
d="M576 23q0 -12 -4 -17.5t-16 -5.5h-296q-56 0 -91.5 16t-56.5 42t-29 59t-8 67v332q0 36 10 69t31.5 59t56.5 41.5t86 15.5h287q12 0 15.5 -5t3.5 -19v-85q0 -13 -4 -17.5t-15 -4.5h-254q-39 0 -52 -18t-13 -44v-77h287q12 0 15.5 -5t3.5 -19v-78q0 -12 -3.5 -17.5
t-15.5 -5.5h-287v-114q0 -35 16.5 -47.5t48.5 -12.5h264q13 0 16.5 -4.5t3.5 -19.5v-85v0z" />
    <glyph glyph-name="afii10024" unicode="&#x416;" horiz-adv-x="1012" 
d="M189 378q-35 18 -54.5 50.5t-29.5 74.5l-46 179q-2 5 -0.5 12.5t14.5 7.5h112q5 0 11.5 -2t8.5 -12l45 -169q8 -31 20.5 -49t27 -27t30.5 -11.5t31 -2.5h72v255q-2 11 2 13.5t14 2.5h116q9 0 13.5 -2.5t4.5 -13.5v-255h71q15 0 31 2.5t30.5 11.5t27 27t20.5 49l45 169
q2 10 8.5 12t11.5 2h113q13 0 14.5 -7.5t-0.5 -12.5l-45 -179q-20 -86 -85 -125v-5q26 -9 43 -20.5t28 -26.5t17.5 -33.5t12.5 -40.5l62 -232q2 -5 0.5 -12.5t-14.5 -7.5h-120q-5 0 -11 2t-9 12l-58 215q-8 26 -17.5 42.5t-23.5 25.5t-33.5 12.5t-45.5 3.5h-73v-297
q0 -11 -4.5 -13.5t-13.5 -2.5h-114q-10 0 -14 2.5t-4 13.5v297h-73q-26 0 -45.5 -3.5t-34 -12.5t-24.5 -25.5t-17 -42.5l-58 -215q-3 -10 -9 -12t-11 -2h-119q-13 0 -14.5 7.5t0.5 12.5l62 232q6 20 12.5 38.5t17.5 34t28 27.5t43 21v5z" />
    <glyph glyph-name="afii10025" unicode="&#x417;" horiz-adv-x="627" 
d="M309 712q48 0 94 -9.5t81 -31.5t56.5 -56.5t21.5 -85.5q0 -48 -28 -89.5t-76 -63.5v-5q57 -17 90 -61t33 -98q0 -52 -22.5 -93t-61.5 -69.5t-92 -44t-113 -16.5q-29 0 -63 3t-69 9.5t-68.5 17.5t-60.5 28q-9 6 -10.5 12.5t5.5 20.5l36 71q5 11 11 14.5t21 -2.5
q18 -8 40 -15t46 -12.5t48.5 -9t47.5 -3.5q74 0 109.5 28.5t35.5 74.5q0 34 -29 58.5t-96 26.5h-48q-21 0 -30.5 6t-9.5 29v44q0 20 7.5 29t27.5 9h56q51 1 77.5 22.5t26.5 57.5q0 37 -31 53.5t-77 16.5q-43 0 -86 -10t-80 -24q-17 -6 -23 -2.5t-11 17.5l-26 65
q-8 17 -6.5 22.5t13.5 13.5q45 26 108 39t125 13z" />
    <glyph glyph-name="afii10026" unicode="&#x418;" horiz-adv-x="743" 
d="M513 468l-89 -150l-169 -274q-9 -14 -16 -22.5t-15 -13.5t-18.5 -6.5t-25.5 -1.5h-40q-39 0 -52 18.5t-13 50.5v613q0 19 21 19h107q14 0 17.5 -4t3.5 -15v-450h6l85 140l173 284q9 14 16 23t15 14t18 6.5t25 1.5h41q37 0 51 -15.5t14 -54.5v-612q0 -19 -21 -19h-107
q-14 0 -18 4t-4 15v449h-5z" />
    <glyph glyph-name="afii10027" unicode="&#x419;" horiz-adv-x="743" 
d="M513 468l-89 -150l-169 -274q-9 -14 -16 -22.5t-15 -13.5t-18.5 -6.5t-25.5 -1.5h-40q-39 0 -52 18.5t-13 50.5v613q0 19 21 19h107q14 0 17.5 -4t3.5 -15v-450h6l85 140l173 284q9 14 16 23t15 14t18 6.5t25 1.5h41q37 0 51 -15.5t14 -54.5v-612q0 -19 -21 -19h-107
q-14 0 -18 4t-4 15v449h-5zM366 726q-30 0 -56.5 9.5t-50 26t-43 37t-35.5 43.5q-2 3 -4 8.5t7 13.5l39 38q10 8 13.5 5.5t11.5 -8.5q32 -32 63.5 -50t60.5 -18q12 0 24.5 2.5t27.5 10t33 21t42 36.5q10 8 14 7.5t9 -5.5l38 -33q10 -9 8.5 -14t-4.5 -9q-91 -121 -198 -121z
" />
    <glyph glyph-name="afii10028" unicode="&#x41a;" horiz-adv-x="674" 
d="M481 373q26 -9 43 -20.5t28 -26.5t17.5 -33.5t12.5 -40.5l62 -232q2 -5 0.5 -12.5t-14.5 -7.5h-116q-5 0 -11 2t-9 12l-61 215q-8 26 -18.5 42.5t-25.5 25.5t-35 12.5t-46 3.5h-82l1 -297q0 -11 -4 -13.5t-14 -2.5h-116q-9 0 -13.5 2.5t-4.5 13.5v668q0 11 4.5 13.5
t13.5 2.5h117q10 0 14 -2.5t2 -13.5v-255h80q15 0 31.5 2.5t32.5 11.5t29.5 27t21.5 49l45 169q2 10 8.5 12t11.5 2h112q13 0 14.5 -7.5t-0.5 -12.5l-46 -179q-20 -86 -85 -125v-5z" />
    <glyph glyph-name="afii10029" unicode="&#x41b;" horiz-adv-x="727" 
d="M164 633q2 35 15 51t49 16h359q36 0 50 -16.5t14 -50.5v-615q0 -11 -3.5 -14.5t-17.5 -3.5h-111q-11 0 -15.5 3.5t-4.5 14.5v550h-195l-4 -70q-8 -111 -16 -197t-29 -149.5t-62.5 -106t-115.5 -66.5q-11 -4 -18.5 -2t-12.5 14l-34 75q-4 9 -2 17t13 13q39 19 62.5 45
t37 69t20 108.5t12.5 162.5z" />
    <glyph glyph-name="afii10030" unicode="&#x41c;" horiz-adv-x="870" 
d="M651 403h-6l-41 -93l-83 -184q-11 -26 -22.5 -35t-34.5 -9h-55q-25 0 -34.5 9t-21.5 35l-62 130l-62 135h-6v-371q0 -14 -5 -17t-18 -3h-102q-11 0 -17 3t-6 17v611q0 38 14.5 54t49.5 16h58q28 0 41.5 -10.5t25.5 -36.5l109 -244l62 -142h4l68 156l102 228
q12 27 26.5 38t46.5 11h49q32 0 48 -13.5t16 -51.5v-616q0 -14 -5 -17t-18 -3h-99q-11 0 -16.5 3t-5.5 17v383z" />
    <glyph glyph-name="afii10031" unicode="&#x41d;" horiz-adv-x="726" 
d="M651 21q0 -13 -4.5 -17t-19.5 -4h-105q-13 0 -18 4.5t-5 16.5v280h-271v-280q0 -13 -4.5 -17t-19.5 -4h-106q-12 0 -17.5 4.5t-5.5 16.5v658q0 12 5.5 16.5t17.5 4.5h106q15 0 19.5 -4t4.5 -17v-249h271v249q0 12 5 16.5t18 4.5h105q15 0 19.5 -4t4.5 -17v-658v0z" />
    <glyph glyph-name="afii10032" unicode="&#x41e;" horiz-adv-x="730" 
d="M675 352q0 -86 -18.5 -153t-57.5 -114t-98 -71.5t-140 -24.5q-155 0 -230.5 94t-75.5 266q0 84 21.5 151.5t61.5 114t97 71.5t129 25q78 0 136.5 -25t97 -71.5t58 -113t19.5 -149.5zM516 349q0 45 -6.5 86t-23.5 72t-46 49.5t-75 18.5q-38 0 -66.5 -17.5t-47.5 -47.5
t-28 -70t-9 -85q0 -53 7.5 -95t25 -72t46.5 -46t73 -16q43 0 72 18.5t46 49t24.5 71t7.5 84.5z" />
    <glyph glyph-name="afii10033" unicode="&#x41f;" horiz-adv-x="725" 
d="M650 19q0 -11 -4 -15t-18 -4h-109q-21 0 -21 19v549h-270v-549q0 -11 -4 -15t-18 -4h-110q-21 0 -21 19v614q0 35 14.5 51.5t49.5 16.5h447q36 0 50 -16.5t14 -51.5v-614z" />
    <glyph glyph-name="afii10034" unicode="&#x420;" horiz-adv-x="644" 
d="M227 21q0 -14 -4.5 -17.5t-19.5 -3.5h-105q-12 0 -17.5 4.5t-5.5 16.5v619q0 28 12 44.5t48 16.5h245q54 0 97.5 -16.5t74 -45.5t46.5 -69t16 -88q0 -26 -8 -64.5t-34.5 -75t-77 -62.5t-134.5 -26h-133v-233zM457 472q0 14 -4 30.5t-15.5 31t-31 24t-49.5 9.5h-130v-190
h131q51 0 75 27.5t24 67.5z" />
    <glyph glyph-name="afii10035" unicode="&#x421;" horiz-adv-x="643" 
d="M388 127q48 0 85 11.5t69 23.5q14 6 20 2.5t11 -14.5l34 -72q7 -14 5 -21t-11 -12q-54 -33 -113.5 -44.5t-117.5 -11.5q-82 0 -141.5 24.5t-98 70.5t-57 112.5t-18.5 149.5q0 82 23.5 149t65.5 115t101.5 74t131.5 26q51 0 100 -8.5t96 -34.5q11 -6 13 -12t-5 -23
l-31 -69q-5 -14 -10.5 -17t-19.5 2q-36 13 -67 19.5t-69 6.5q-41 0 -72.5 -17.5t-53 -48t-32.5 -72t-11 -90.5t8.5 -89t29 -69t53.5 -45t82 -16z" />
    <glyph glyph-name="afii10036" unicode="&#x422;" horiz-adv-x="574" 
d="M563 590q0 -20 -20 -20h-181v-549q0 -13 -4.5 -17t-19.5 -4h-107q-12 0 -17.5 4.5t-5.5 16.5v549h-177q-19 0 -19 20v89q0 13 4 17t15 4h512q12 0 16 -4t4 -17v-89v0z" />
    <glyph glyph-name="afii10037" unicode="&#x423;" horiz-adv-x="606" 
d="M583 703q19 0 12 -17l-205 -569q-14 -38 -31.5 -64t-41 -41.5t-53.5 -22.5t-69 -7q-20 0 -45 3t-51 11q-13 4 -16.5 7.5t-1.5 14.5l16 83q2 11 7 12t16 -1q17 -2 29.5 -3t25.5 -1q17 0 29.5 1.5t22.5 7t17 15t13 26.5l16 45h-26q-24 0 -34.5 8t-21.5 35l-176 438
q-5 10 0 14.5t14 4.5h116q17 0 23 -4t10 -16l74 -203l56 -165h7l53 173l63 194q5 13 10 17t21 4h121z" />
    <glyph glyph-name="afii10038" unicode="&#x424;" horiz-adv-x="868" 
d="M507 19q0 -11 -3.5 -15t-17.5 -4h-110q-21 0 -21 19v36q-147 14 -224 92t-77 207q0 61 21.5 113.5t61 92t95 65.5t123.5 35v21q0 19 21 19h110q14 0 17.5 -4t3.5 -15v-21q148 -17 227.5 -95t79.5 -207q0 -64 -22 -117t-62 -92t-96.5 -63.5t-126.5 -31.5v-35zM667 359
q0 31 -8.5 61t-27.5 54.5t-49.5 42.5t-75.5 24v-368q43 7 74 24.5t50 43t28 56t9 62.5zM355 540q-38 -6 -66.5 -24t-47.5 -43t-28.5 -55t-9.5 -60q0 -35 8.5 -66t26.5 -55.5t47 -41t70 -22.5v367z" />
    <glyph glyph-name="afii10039" unicode="&#x425;" horiz-adv-x="618" 
d="M308 240l-121 -217q-9 -14 -17 -18.5t-27 -4.5h-123q-9 0 -11.5 6.5t1.5 13.5l213 344l-195 318q-5 6 -2 12.5t14 6.5h117q20 0 27.5 -4t15.5 -18l110 -195l109 195q8 14 15.5 18t27.5 4h115q11 0 13.5 -6.5t-2.5 -13.5l-193 -316l213 -345q4 -7 1 -13.5t-11 -6.5h-125
q-18 0 -26.5 4.5t-16.5 18.5z" />
    <glyph glyph-name="afii10040" unicode="&#x426;" horiz-adv-x="764" 
d="M650 134l50 -5q27 -2 33 -14t5 -30l-11 -231q-2 -20 -19 -20h-84q-19 0 -20 21l-6 145h-459q-35 0 -49.5 16.5t-14.5 50.5v615q0 19 21 19h110q14 0 18 -4t4 -15v-551h270v551q0 19 20 19h110q14 0 18 -4t4 -15v-548z" />
    <glyph glyph-name="afii10041" unicode="&#x427;" horiz-adv-x="669" 
d="M594 19q0 -11 -4 -15t-18 -4h-109q-12 0 -16.5 4t-4.5 15v227q-29 -5 -59.5 -7t-59.5 -2q-78 0 -132 17.5t-87 50t-48 78.5t-15 104v195q0 19 21 19h110q13 0 17 -4t4 -15v-180q0 -71 36.5 -101t113.5 -30q24 0 49.5 2t49.5 7v302q0 11 4.5 15t16.5 4h109q14 0 18 -4
t4 -15v-663v0z" />
    <glyph glyph-name="afii10042" unicode="&#x428;" horiz-adv-x="1012" 
d="M137 0q-34 0 -48 16.5t-14 50.5v615q0 19 21 19h112q14 0 17.5 -4t3.5 -15v-550h203v550q0 19 21 19h109q14 0 18 -4t4 -15v-550h201v550q0 11 3.5 15t17.5 4h111q20 0 20 -19v-615q0 -34 -14 -50.5t-48 -16.5h-738z" />
    <glyph glyph-name="afii10043" unicode="&#x429;" horiz-adv-x="1051" 
d="M937 134l50 -4q26 -2 32.5 -14t5.5 -31l-11 -231q-1 -19 -19 -19h-84q-11 0 -15 4.5t-5 15.5l-6 145h-748q-34 0 -48 16.5t-14 50.5v615q0 19 21 19h112q14 0 17.5 -4t3.5 -15v-551h203v551q0 19 21 19h109q14 0 18 -4t4 -15v-551h201v551q0 19 20 19h111q14 0 17.5 -4
t3.5 -15v-548z" />
    <glyph glyph-name="afii10044" unicode="&#x42a;" horiz-adv-x="843" 
d="M314 0q-36 0 -48 14.5t-12 46.5v510h-225q-11 0 -14.5 4t-3.5 15v89q0 14 3 17.5t15 3.5h313q36 0 50.5 -16.5t14.5 -49.5v-187h146q59 0 101 -12t70 -31t44 -43.5t24.5 -49.5t10.5 -48t2 -40q0 -48 -18.5 -89t-51 -70.5t-76 -46.5t-93.5 -17h-252zM648 228
q0 40 -24.5 66t-71.5 26h-145v-186h144q28 0 47 9.5t30 23.5t15.5 30.5t4.5 30.5z" />
    <glyph glyph-name="afii10045" unicode="&#x42b;" horiz-adv-x="920" 
d="M135 0q-36 0 -48 14.5t-12 46.5v621q0 19 20 19h111q14 0 17.5 -4t3.5 -15v-235h147q89 0 140 -25.5t76 -61.5t31 -74t6 -63q0 -48 -18.5 -89t-51 -70.5t-76 -46.5t-93.5 -17h-253zM845 19q0 -11 -3.5 -15t-17.5 -4h-111q-21 0 -21 19v662q0 19 21 19h111q14 0 17.5 -4
t3.5 -15v-662zM470 228q0 40 -24.5 66t-72.5 26h-146v-186h145q28 0 47 9.5t30.5 23.5t16 30.5t4.5 30.5z" />
    <glyph glyph-name="afii10046" unicode="&#x42c;" horiz-adv-x="665" 
d="M135 0q-36 0 -48 14.5t-12 46.5v621q0 19 20 19h111q14 0 17.5 -4t3.5 -15v-235h147q89 0 140 -25.5t76 -61.5t31 -74t6 -63q0 -48 -18.5 -89t-51 -70.5t-76 -46.5t-93.5 -17h-253zM470 228q0 40 -24.5 66t-72.5 26h-146v-186h145q28 0 47 9.5t30.5 23.5t16 30.5
t4.5 30.5z" />
    <glyph glyph-name="afii10047" unicode="&#x42d;" horiz-adv-x="645" 
d="M257 127q43 0 73 12.5t50.5 35t31.5 55t15 72.5h-235q-11 0 -15 3.5t-4 14.5v85q0 12 4 16t15 4h233q-8 72 -48.5 110.5t-109.5 38.5q-38 0 -70 -6.5t-68 -19.5q-14 -5 -20 -2t-11 17l-27 69q-7 17 -5.5 23t13.5 12q47 24 99 33.5t103 9.5q148 0 228.5 -88.5t80.5 -255.5
q0 -85 -19 -154.5t-57.5 -119t-98 -76.5t-140.5 -27q-59 0 -119.5 11.5t-114.5 44.5q-9 5 -11 12t5 21l34 72q5 11 11 14.5t20 -2.5q33 -12 71 -23.5t86 -11.5z" />
    <glyph glyph-name="afii10048" unicode="&#x42e;" horiz-adv-x="981" 
d="M227 19q0 -11 -4 -15t-18 -4h-109q-21 0 -21 19v662q0 19 21 19h109q14 0 18 -4t4 -15v-252h107q9 64 33 116t61.5 89t88 57t112.5 20q74 0 130 -26t93 -73.5t55.5 -114t18.5 -147.5q0 -82 -18.5 -148.5t-56 -114t-94 -73t-133.5 -25.5q-74 0 -127 24t-88.5 66t-54 99
t-23.5 123h-104v-282zM770 350q0 48 -6.5 89t-23 71t-43.5 47t-68 17q-37 0 -64 -16.5t-45 -46t-27 -70t-9 -88.5q0 -51 8 -93t25 -72t45 -46.5t67 -16.5t66 17.5t43.5 48t24 71.5t7.5 88z" />
    <glyph glyph-name="afii10049" unicode="&#x42f;" horiz-adv-x="675" 
d="M445 283h-93q-46 0 -71 -19t-38 -68q-4 -14 -10 -38t-13 -50t-13 -50t-9 -38q-4 -15 -16.5 -17.5t-23.5 -2.5h-110q-15 0 -15 11q0 4 2 12l51 194q9 38 28 64t63 39v2q-59 20 -85 67t-26 104q0 46 15.5 84t44.5 65.5t72 42.5t97 15h244q36 0 48 -15.5t12 -45.5v-622
q0 -11 -5 -14t-16 -3h-111q-14 0 -18 3t-4 14v266zM222 486q0 -36 22.5 -58t67.5 -22h133v160h-136q-26 0 -43 -7.5t-26.5 -19.5t-13.5 -26t-4 -27z" />
    <glyph glyph-name="afii10065" unicode="&#x430;" horiz-adv-x="576" 
d="M511 65q0 -13 -3.5 -22t-17.5 -17q-23 -11 -49.5 -18t-54 -11t-55.5 -6t-53 -2q-68 0 -112.5 13t-71.5 35.5t-38 53t-11 65.5q0 39 13 71.5t39 56.5t65.5 37.5t93.5 13.5h110v16q0 14 -3 27t-12.5 22.5t-26.5 15.5t-45 6q-15 0 -34 -1.5t-38 -4t-37 -6t-32 -7.5
q-13 -3 -18 0t-7 13l-16 70q-3 11 -0.5 15.5t10.5 7.5q45 16 94.5 23t98.5 7q109 0 160 -46.5t51 -137.5v-290zM365 238h-79q-14 0 -30 -2t-29.5 -9.5t-22.5 -21.5t-9 -38q0 -35 23.5 -49t63.5 -14q6 0 16 0.5t21.5 2t23.5 4t22 6.5v121z" />
    <glyph glyph-name="afii10066" unicode="&#x431;" horiz-adv-x="591" 
d="M353 487q56 0 94 -19t62 -52t34.5 -77t10.5 -93q0 -48 -13.5 -93.5t-44.5 -81.5t-80.5 -58.5t-122.5 -23.5q-82 0 -131.5 23.5t-76.5 62.5t-35.5 89.5t-8.5 105.5q0 83 8 153t32.5 124.5t69 92.5t117.5 57q35 10 83.5 19.5t103.5 20.5q8 2 13.5 1t7.5 -12l21 -84
q4 -13 -1 -16.5t-10 -5.5q-35 -9 -61 -14t-52 -11q-47 -10 -77 -21.5t-48.5 -27.5t-27.5 -39.5t-12 -57.5q1 0 2 -1l2 -2q35 23 71.5 32t69.5 9zM294 110q32 0 53 11.5t33 30.5t17 42t5 47q0 22 -4 44.5t-14.5 40.5t-28.5 29.5t-47 11.5q-26 0 -55 -8t-52 -22
q-4 -32 -5 -53.5t-1 -44.5q0 -27 4.5 -50.5t15.5 -41t30 -27.5t49 -10z" />
    <glyph glyph-name="afii10067" unicode="&#x432;" horiz-adv-x="593" 
d="M466 286q46 -18 64 -52.5t18 -71.5q0 -36 -14.5 -66t-40 -51.5t-61 -33t-76.5 -11.5h-231q-35 0 -47.5 12.5t-12.5 38.5v418q0 26 10.5 41t45.5 15h233q35 0 66 -7t54.5 -23t37 -41t13.5 -62q0 -29 -15 -56.5t-44 -43.5v-6zM398 173q0 26 -15.5 42t-47.5 16h-127v-118
h126q19 0 31.5 6t20 15t10 19.5t2.5 19.5zM208 327h121q16 0 30.5 10t14.5 34q0 17 -11 29.5t-31 12.5h-124v-86z" />
    <glyph glyph-name="afii10068" unicode="&#x433;" horiz-adv-x="489" 
d="M210 20q0 -13 -4 -16.5t-19 -3.5h-99q-23 0 -23 20v350q0 30 6.5 58.5t24 50t48.5 34t81 12.5h235q12 0 15.5 -4.5t3.5 -18.5v-72q0 -12 -4 -17.5t-15 -5.5h-192q-35 0 -46.5 -14t-11.5 -40v-333z" />
    <glyph glyph-name="afii10069" unicode="&#x434;" horiz-adv-x="652" 
d="M407 406h-124q-14 -123 -28 -193.5t-31 -99.5h183v293zM74 114q28 26 40 68.5t17 95.5l27 190q4 26 17.5 41.5t53.5 15.5h263q38 0 49.5 -15.5t11.5 -45.5v-350l34 -3q20 -2 26.5 -13t6.5 -27l-12 -210q0 -15 -16 -15h-88q-9 0 -12 4t-4 12l-6 138h-335q-2 -35 -4 -69
t-4 -69q-1 -9 -4 -12.5t-13 -3.5h-87q-15 0 -15 15l-12 209q0 17 7 28t27 13z" />
    <glyph glyph-name="afii10070" unicode="&#x435;" horiz-adv-x="568" 
d="M293 538q117 0 175.5 -58.5t58.5 -167.5q0 -52 -20 -71t-55 -19h-256q1 -32 10.5 -53t25.5 -34t37.5 -18t46.5 -5q29 0 59 7t56 18q12 4 16.5 2.5t8.5 -9.5l32 -72q4 -9 1.5 -14t-10.5 -10q-37 -24 -86 -34.5t-91 -10.5q-131 0 -194 65t-63 206q0 66 17.5 117.5t50 87.5
t78 54.5t102.5 18.5zM296 418q-41 0 -67 -29t-30 -74h187q0 22 -4.5 41t-14.5 32.5t-27 21.5t-44 8z" />
    <glyph glyph-name="afii10072" unicode="&#x436;" horiz-adv-x="825" 
d="M340 226h-40q-31 0 -53 -14t-31 -46l-47 -154q-2 -8 -7.5 -10t-9.5 -2h-116q-12 0 -13 6.5t0 11.5l51 173q5 16 11 30.5t15.5 26t23.5 20.5t36 15l-1 2q-30 12 -46.5 36.5t-24.5 55.5l-37 131q-1 5 0.5 11t11.5 6h112q5 0 9.5 -2t7.5 -11l34 -110q14 -42 35.5 -55.5
t48.5 -13.5h30v176q0 11 4 13.5t14 2.5h109q9 0 13.5 -2.5t4.5 -13.5v-176h30q27 0 48.5 13.5t35.5 55.5l34 110q3 9 7.5 11t9.5 2h112q10 0 11.5 -6t0.5 -11l-37 -131q-8 -31 -24.5 -55.5t-46.5 -36.5l-1 -2q22 -6 36 -15t23.5 -20.5t15.5 -26t11 -30.5l51 -173
q1 -5 0 -11.5t-13 -6.5h-116q-4 0 -9.5 2t-7.5 10l-46 154q-10 32 -32 46t-53 14h-40v-210q0 -11 -4.5 -13.5t-13.5 -2.5h-109q-10 0 -14 2.5t-4 13.5v210z" />
    <glyph glyph-name="afii10073" unicode="&#x437;" horiz-adv-x="510" 
d="M224 417q-20 0 -55 -6t-67 -16q-12 -5 -17 -3t-8 9l-24 67q-5 12 -4.5 17.5t12.5 10.5q38 19 89.5 30t102.5 11q93 0 148 -34.5t55 -106.5q0 -37 -22 -67t-54 -48v-4q43 -14 67.5 -45.5t24.5 -73.5t-19 -73.5t-51 -52.5t-75 -31.5t-91 -10.5q-24 0 -50.5 2t-53 6
t-51.5 11t-46 16q-11 5 -11.5 11t1.5 14l26 73q3 8 8 10t19 -2q36 -11 76.5 -17.5t66.5 -6.5q58 0 81 20t23 45q0 26 -26.5 40t-88.5 15q-19 1 -28.5 8t-9.5 24v30q0 17 10.5 23.5t28.5 7.5q50 3 73 16.5t23 36.5q0 26 -23.5 35t-59.5 9z" />
    <glyph glyph-name="afii10074" unicode="&#x438;" horiz-adv-x="625" 
d="M65 509q0 16 18 16h107q12 0 15.5 -3t3.5 -13v-306h5q19 32 31.5 52.5t20.5 34t14 22.5t12 19q19 29 43 68t57 93q7 10 13 16.5t12.5 10t15 5t21.5 1.5h49q28 0 42 -11.5t14 -44.5v-453q0 -10 -4 -13t-14 -3h-108q-11 0 -15 2.5t-4 13.5v300h-5q-23 -35 -43.5 -69.5
t-42.5 -68.5q-23 -36 -46 -72.5t-47 -72.5q-14 -21 -26 -27t-36 -6h-47q-35 0 -45.5 14t-10.5 42v453z" />
    <glyph glyph-name="afii10075" unicode="&#x439;" horiz-adv-x="625" 
d="M65 509q0 16 18 16h107q12 0 15.5 -3t3.5 -13v-306h5q19 32 31.5 52.5t20.5 34t14 22.5t12 19q19 29 43 68t57 93q7 10 13 16.5t12.5 10t15 5t21.5 1.5h49q28 0 42 -11.5t14 -44.5v-453q0 -10 -4 -13t-14 -3h-108q-11 0 -15 2.5t-4 13.5v300h-5q-23 -35 -43.5 -69.5
t-42.5 -68.5q-23 -36 -46 -72.5t-47 -72.5q-14 -21 -26 -27t-36 -6h-47q-35 0 -45.5 14t-10.5 42v453zM308 574q-30 0 -56.5 9.5t-50 26t-43 37t-35.5 43.5q-2 3 -4 8.5t7 13.5l39 38q10 8 13.5 5.5t11.5 -8.5q32 -32 63.5 -50t60.5 -18q12 0 24.5 2.5t27.5 10t33 21
t42 36.5q10 8 14 7.5t9 -5.5l38 -33q10 -9 8.5 -14t-4.5 -9q-91 -121 -198 -121z" />
    <glyph glyph-name="afii10076" unicode="&#x43a;" horiz-adv-x="575" 
d="M210 16q0 -11 -4 -13.5t-14 -2.5h-109q-9 0 -13.5 2.5t-4.5 13.5v493q0 11 4.5 13.5t13.5 2.5h109q10 0 14 -2.5t4 -13.5v-174h47q26 0 47.5 12.5t35.5 54.5l35 110q2 9 7 11t10 2h111q10 0 11.5 -6t0.5 -11l-37 -131q-8 -31 -24.5 -55.5t-46.5 -36.5l-1 -2q22 -6 36 -15
t23.5 -20.5t15.5 -26t11 -30.5l51 -173q1 -5 0 -11.5t-13 -6.5h-115q-4 0 -9.5 2t-7.5 10l-47 154q-10 32 -31.5 44.5t-52.5 12.5h-57v-207v0z" />
    <glyph glyph-name="afii10077" unicode="&#x43b;" horiz-adv-x="596" 
d="M471 525q35 0 47.5 -14.5t12.5 -46.5v-445q0 -12 -4.5 -15.5t-18.5 -3.5h-101q-14 0 -18.5 4.5t-4.5 15.5v387h-123l-3 -52q-5 -87 -13 -150t-27 -107.5t-54 -72.5t-93 -46q-14 -5 -20 -1.5t-10 13.5l-27 68q-5 13 -3.5 18.5t14.5 12.5q27 12 43.5 27t27 43t16.5 74.5
t11 122.5l7 109q2 33 15.5 46t46.5 13h279z" />
    <glyph glyph-name="afii10078" unicode="&#x43c;" horiz-adv-x="757" 
d="M545 298l-41 -96l-49 -106q-9 -20 -21 -27t-32 -7h-49q-23 0 -33.5 7t-19.5 27l-48 104l-40 92h-4v-273q0 -13 -5 -16t-17 -3h-99q-11 0 -16.5 3t-5.5 16v448q0 58 60 58h62q21 0 36.5 -7t27.5 -33l72 -152l51 -115h6l57 125l67 137q12 26 27 35.5t44 9.5h57q60 0 60 -56
v-450q0 -13 -4.5 -16t-17.5 -3h-98q-11 0 -16.5 3t-5.5 16v279h-5z" />
    <glyph glyph-name="afii10079" unicode="&#x43d;" horiz-adv-x="606" 
d="M210 20q0 -13 -4.5 -16.5t-18.5 -3.5h-100q-22 0 -22 20v486q0 19 22 19h100q14 0 18.5 -3.5t4.5 -15.5v-171h187v171q0 19 22 19h100q14 0 18 -3.5t4 -15.5v-486q0 -13 -4 -16.5t-18 -3.5h-100q-22 0 -22 20v201h-187v-201v0z" />
    <glyph glyph-name="afii10080" unicode="&#x43e;" horiz-adv-x="595" 
d="M550 265q0 -132 -63 -204t-192 -72q-130 0 -190 72t-60 202q0 64 17.5 115.5t50 86.5t79 54t105.5 19q126 0 189.5 -72.5t63.5 -200.5zM399 262q0 34 -5 62t-17 48t-31 31.5t-47 11.5q-53 0 -78.5 -40.5t-25.5 -109.5q0 -75 23.5 -114t77.5 -39q28 0 47.5 11.5t32 32
t18 47.5t5.5 59z" />
    <glyph glyph-name="afii10081" unicode="&#x43f;" horiz-adv-x="614" 
d="M549 19q0 -11 -4 -15t-18 -4h-104q-21 0 -21 19v388h-192v-388q0 -11 -3.5 -15t-17.5 -4h-103q-21 0 -21 19v450q0 24 11 40t46 16h370q35 0 46 -16t11 -40v-450z" />
    <glyph glyph-name="afii10082" unicode="&#x440;" horiz-adv-x="604" 
d="M211 -187q0 -11 -3.5 -14t-17.5 -3h-104q-11 0 -16 3t-5 14v652q0 11 3.5 17.5t16.5 13.5q48 22 107.5 31t113.5 9q71 0 119.5 -21.5t78 -58t42.5 -86.5t13 -107q0 -56 -14 -105.5t-43 -86.5t-73.5 -58.5t-104.5 -21.5q-30 0 -55.5 2.5t-57.5 9.5v-190zM407 266
q0 41 -8 69t-23.5 45t-38 24t-50.5 7q-14 0 -36.5 -3t-39.5 -8v-273q26 -7 46.5 -9t36.5 -2q50 0 81.5 34t31.5 116z" />
    <glyph glyph-name="afii10083" unicode="&#x441;" horiz-adv-x="511" 
d="M308 119q32 0 62.5 7.5t52.5 15.5q13 5 17.5 3.5t8.5 -12.5l28 -75q5 -10 4.5 -16t-11.5 -12q-44 -24 -94 -32.5t-91 -8.5q-118 0 -179 68t-61 204q0 64 17.5 115.5t49.5 87.5t78.5 55t103.5 19q42 0 83 -8.5t75 -25.5q13 -6 14.5 -11t-3.5 -17l-28 -77q-5 -11 -11 -12
t-20 3q-26 8 -51 13t-48 5q-30 0 -50.5 -12t-33.5 -32t-19 -46.5t-6 -56.5q0 -31 5 -57t18 -45t34.5 -29.5t54.5 -10.5z" />
    <glyph glyph-name="afii10084" unicode="&#x442;" horiz-adv-x="492" 
d="M317 407v-387q0 -13 -4.5 -16.5t-18.5 -3.5h-99q-23 0 -23 20v387h-142q-20 0 -20 22v73q0 14 3.5 18.5t16.5 4.5h432q12 0 16 -4.5t4 -18.5v-73q0 -22 -20 -22h-145z" />
    <glyph glyph-name="afii10085" unicode="&#x443;" horiz-adv-x="559" 
d="M348 -87q-23 -69 -66 -98.5t-114 -29.5q-20 0 -46.5 3t-52.5 11q-12 3 -15.5 7t-0.5 15l17 79q3 12 7 13t15 -1q16 -3 27 -4t22 -1q35 0 55 11.5t31 46.5l18 54h-29q-23 0 -33 8t-19 35l-152 444q-4 11 0.5 15t12.5 4h117q15 0 20.5 -3.5t8.5 -14.5l57 -202l47 -174h6
l51 177l60 197q3 11 8 15.5t20 4.5h119q17 0 11 -16l-202 -597v1z" />
    <glyph glyph-name="afii10086" unicode="&#x444;" horiz-adv-x="769" 
d="M458 -184q0 -11 -3.5 -14.5t-17.5 -3.5h-104q-11 0 -15.5 3.5t-4.5 14.5v173q-65 4 -115 26t-84 58t-51.5 85t-17.5 107q0 64 21.5 113.5t58 84t85 53t103.5 20.5v177q0 11 4.5 14.5t15.5 3.5h104q14 0 17.5 -3t3.5 -15v-179q57 -2 105.5 -20t84 -52.5t56 -84
t20.5 -112.5q0 -58 -17 -107t-50.5 -85.5t-83 -58.5t-115.5 -26v-172zM188 259q0 -30 7.5 -57t23 -49t39 -36t55.5 -17v314q-61 -5 -93 -45.5t-32 -109.5zM582 258q0 69 -30.5 109t-93.5 45v-312q33 4 56.5 18t38.5 35t22 48t7 57z" />
    <glyph glyph-name="afii10087" unicode="&#x445;" horiz-adv-x="523" 
d="M261 176l-89 -154q-6 -11 -13.5 -16.5t-22.5 -5.5h-114q-11 0 -14 6t3 16l169 255l-151 230q-4 5 -2.5 11.5t11.5 6.5h120q14 0 21.5 -4t12.5 -15l70 -129l71 129q6 11 13 15t21 4h118q11 0 12 -6t-1 -11l-154 -229l170 -258q5 -8 3 -14.5t-14 -6.5h-117q-17 0 -23.5 5.5
t-12.5 16.5z" />
    <glyph glyph-name="afii10088" unicode="&#x446;" horiz-adv-x="649" 
d="M544 117l47 -4q21 -2 27 -13t5 -27l-11 -212q0 -15 -15 -15h-89q-9 0 -12 4t-4 12l-5 138h-363q-35 0 -47 17.5t-12 45.5v444q0 18 21 18h104q14 0 17 -3.5t3 -14.5v-391h188v391q0 18 21 18h105q12 0 16 -3.5t4 -14.5v-390z" />
    <glyph glyph-name="afii10089" unicode="&#x447;" horiz-adv-x="576" 
d="M511 16q0 -10 -4 -13t-15 -3h-108q-18 0 -18 16v171q-26 -5 -53.5 -8.5t-51.5 -3.5q-62 0 -104.5 14t-68 40t-36.5 63.5t-11 84.5v132q0 16 18 16h109q11 0 14.5 -3t3.5 -13v-118q0 -30 5 -49t16 -30t30 -15.5t46 -4.5q19 0 40.5 2.5t42.5 8.5v206q0 16 18 16h108
q11 0 15 -3t4 -13v-493v0z" />
    <glyph glyph-name="afii10090" unicode="&#x448;" horiz-adv-x="884" 
d="M124 0q-35 0 -47 17.5t-12 45.5v444q0 18 21 18h104q14 0 17 -3.5t3 -14.5v-391h161v391q0 18 20 18h105q13 0 17 -3.5t4 -14.5v-391h157v391q0 11 4 14.5t17 3.5h104q20 0 20 -18v-444q0 -28 -11.5 -45.5t-48.5 -17.5h-635v0z" />
    <glyph glyph-name="afii10091" unicode="&#x449;" horiz-adv-x="923" 
d="M124 0q-35 0 -47 17.5t-12 45.5v444q0 18 21 18h104q14 0 17 -3.5t3 -14.5v-391h161v391q0 18 20 18h105q13 0 17 -3.5t4 -14.5v-391h157v391q0 18 21 18h103q12 0 16 -3.5t4 -14.5v-391l47 -4q21 -2 27.5 -13t5.5 -27l-11 -211q-2 -15 -16 -15h-88q-10 0 -13 4t-4 12
l-5 138h-637v0z" />
    <glyph glyph-name="afii10092" unicode="&#x44a;" horiz-adv-x="707" 
d="M277 525q31 0 43.5 -13t12.5 -39l-1 -112h124q73 0 115.5 -20.5t64.5 -49.5t27.5 -59.5t5.5 -50.5q0 -39 -15 -72t-41.5 -57t-62.5 -38t-78 -14h-222q-38 0 -50.5 15.5t-12.5 42.5v349h-159q-11 0 -14.5 5.5t-3.5 17.5v74q0 13 3.5 17t14.5 4h249zM520 183
q0 28 -17.5 47.5t-52.5 19.5h-118v-136h117q22 0 35.5 7t21.5 17.5t11 22.5t3 22z" />
    <glyph glyph-name="afii10093" unicode="&#x44b;" horiz-adv-x="812" 
d="M128 0q-39 0 -51 15.5t-12 42.5v448q0 19 22 19h101q14 0 18 -3.5t4 -15.5v-145h124q73 0 115.5 -20.5t64.5 -49.5t27.5 -59.5t5.5 -50.5q0 -39 -15 -72t-41.5 -57t-62.5 -38t-78 -14h-222zM398 183q0 28 -17.5 47.5t-52.5 19.5h-118v-136h117q21 0 35 7t22 17.5t11 22.5
t3 22zM747 20q0 -13 -4 -16.5t-18 -3.5h-100q-22 0 -22 20v486q0 19 22 19h100q14 0 18 -3.5t4 -15.5v-486z" />
    <glyph glyph-name="afii10094" unicode="&#x44c;" horiz-adv-x="584" 
d="M128 0q-39 0 -51 15.5t-12 42.5v448q0 19 22 19h100q14 0 18.5 -3.5t4.5 -15.5v-145h124q73 0 115.5 -20.5t64.5 -49.5t27.5 -59.5t5.5 -50.5q0 -39 -15 -72t-41.5 -57t-62.5 -38t-78 -14h-222zM398 183q0 28 -17.5 47.5t-52.5 19.5h-118v-136h117q21 0 35 7t22 17.5
t11 22.5t3 22z" />
    <glyph glyph-name="afii10095" unicode="&#x44d;" horiz-adv-x="511" 
d="M201 119q54 0 80 26.5t31 75.5h-146q-5 0 -9 2.5t-4 10.5v77q0 5 2.5 8.5t10.5 3.5h143q-5 41 -29.5 63t-69.5 22q-23 0 -49.5 -5t-52.5 -13q-14 -4 -20 -3t-11 12l-24 77q-4 12 -3 17t15 11q34 16 76 25t84 9q115 0 178.5 -67.5t63.5 -195.5q0 -140 -62.5 -213
t-183.5 -73q-42 0 -89.5 7.5t-92.5 32.5q-11 5 -11.5 11t3.5 17l30 76q4 11 8.5 12t16.5 -3q23 -8 53 -15.5t62 -7.5z" />
    </font>
</defs>
</svg>
