<svg xmlns="http://www.w3.org/2000/svg" width="48" height="48" viewBox="0 0 48 48"><g><g><g><g><g><g><g><g><g><path fill="#015d96" d="M0 24C0 10.745 10.745 0 24 0s24 10.745 24 24-10.745 24-24 24S0 37.255 0 24z"/></g></g></g></g></g></g><g><g><g><path fill="#fff" d="M36.731 18.729v16.267l-25.462.05V18.728z"/></g></g><g><g><path fill="#01b7ff" d="M36.731 17.511v-4.518H11.27v4.518z"/></g></g><g><g><g><path fill="#01b7ff" d="M20.304 29.453c-.904 0-1.56-.74-1.56-1.643s.738-1.56 1.642-1.56c.903 0 1.56.739 1.56 1.642-.082.904-.739 1.56-1.642 1.56zm5.092-.575V27.07l-1.314-.164a4.004 4.004 0 0 0-.328-.904l.903-1.068-1.232-1.314-1.068.821a3.036 3.036 0 0 0-.903-.41l-.165-1.232h-1.807l-.164 1.396a4.004 4.004 0 0 0-.903.329l-.986-.986-1.314 1.232.821 1.068a3.036 3.036 0 0 0-.41.903l-1.233.165v1.807l1.397.164c.082.328.164.575.328.903l-.903 1.068 1.232 1.314 1.068-.821c.246.164.575.329.903.41l.082 1.397h1.807l.165-1.396c.328-.082.575-.165.903-.329l1.068.904 1.314-1.232-.821-1.068c.164-.247.328-.575.41-.904z"/></g></g><g><g><path fill="#01b7ff" d="M28.107 25.674c-.657-.246-.904-.985-.657-1.642.246-.657.985-.904 1.643-.657.657.246.903.985.657 1.642-.247.657-.986.904-1.643.657zm3.86 1.068l.575-1.314-.903-.493c0-.246.082-.493 0-.739l.986-.493-.493-1.314-1.068.328c-.164-.164-.329-.41-.493-.574l.329-1.068-1.315-.575-.492.985c-.247 0-.493-.082-.74 0l-.492-.985-1.397.575.329 1.068c-.165.164-.411.328-.575.492l-1.068-.328-.575 1.314.986.493c0 .246-.083.493 0 .74l-.986.492.493 1.314 1.068-.328c.164.164.328.41.492.492l-.328 1.068 1.314.575.493-.903c.246 0 .493.082.74 0l.492.985 1.314-.493-.328-1.067c.164-.165.41-.329.575-.493z"/></g></g></g></g></g></g></g></svg>