<svg xmlns="http://www.w3.org/2000/svg" width="48" height="48" viewBox="0 0 48 48"><g><g><g><g><g><path fill="#015d96" d="M0 24C0 10.745 10.745 0 24 0s24 10.745 24 24-10.745 24-24 24S0 37.255 0 24z"/></g></g></g><g><g><g><g><path fill="#fff" d="M12 18v-4h24v4z"/></g></g></g><g><g><g><path fill="#fff" d="M12.017 19.266v2.153h9.291c1.128 0 2.186.438 2.98 1.232l5.256 5.255c.53.53.822 1.236.822 1.986 0 .501-.13.982-.376 1.404h4.59c.51 0 .99.138 1.403.378V19.266z"/></g></g></g><g><g><g><path fill="#01b7ff" d="M34.58 32.7h-7.046a2.792 2.792 0 0 1-1.962-.822l-2.756-2.756-2.273-2.273.904-1.081 5.118 5.117a1.405 1.405 0 0 0 1.986-1.986l-5.255-5.255a2.803 2.803 0 0 0-1.988-.82h-9.291v8.472h4.447l1.915.98 6.323 3.233h9.877a1.404 1.404 0 1 0 0-2.808z"/></g></g></g></g></g></g></svg>