<svg xmlns="http://www.w3.org/2000/svg" width="48" height="48" viewBox="0 0 48 48"><g><g><g><g><g><g><g><g><g><g><path fill="#015d96" d="M0 24C0 10.745 10.745 0 24 0s24 10.745 24 24-10.745 24-24 24S0 37.255 0 24z"/></g></g></g></g></g></g></g></g><g><g><g><g><path fill="#fff" d="M24 7.788a4.42 4.42 0 0 0-4.416 4.416A4.42 4.42 0 0 0 24 16.619a4.42 4.42 0 0 0 4.416-4.415A4.42 4.42 0 0 0 24 7.788z"/></g></g></g><g><g><g><path fill="#01b7ff" d="M11 35v-5h26v5z"/></g></g></g><g><g><g><path fill="#fff" d="M24 16.896l-1.001.883.467 3.735.534.623.534-.623.467-3.735z"/></g></g></g><g><g><g><path fill="#fff" d="M29.966 15.825a2.482 2.482 0 0 0-.718-.572 6.115 6.115 0 0 1-2.562 2.394l-.57 4.566L24 24.681l-2.116-2.468-.57-4.566a6.115 6.115 0 0 1-2.563-2.394 2.48 2.48 0 0 0-1.292 2.563l1.16 6.525c.02.136.052.266.093.393h10.576c.04-.127.072-.257.093-.393l1.156-6.503.004-.022a2.484 2.484 0 0 0-.575-1.99z"/></g></g></g><g><g><g><path fill="#01b7ff" d="M10 29v-3h28v3z"/></g></g></g></g></g></g></svg>