<svg xmlns="http://www.w3.org/2000/svg" width="48" height="48" viewBox="0 0 48 48"><g><g><g><g><g><g><g><g><g><g><g><g><g><path fill="#015d96" d="M0 24C0 10.745 10.745 0 24 0s24 10.745 24 24-10.745 24-24 24S0 37.255 0 24z"/></g></g></g></g></g></g></g></g></g></g></g><g><g><g><g><path fill="#fff" d="M27.43 25.582a4.926 4.926 0 0 0-2.369-.602h-2.04a4.95 4.95 0 0 0-4.953 4.953v1.527h11.946v-1.527a4.95 4.95 0 0 0-2.584-4.35z"/></g></g></g><g><g><g><path fill="#01b7ff" d="M33.061 23.622h-1.695c-.99 0-1.912.293-2.686.797.372.244.721.529 1.044.851a6.55 6.55 0 0 1 1.93 4.662v.72H38V28.56a4.944 4.944 0 0 0-4.938-4.938z"/></g></g></g><g><g><g><path fill="#01b7ff" d="M16.634 23.622H14.94a4.944 4.944 0 0 0-4.938 4.938v2.091h6.428v-.718a6.55 6.55 0 0 1 1.931-4.663 6.59 6.59 0 0 1 1.002-.823 4.906 4.906 0 0 0-2.728-.825z"/></g></g></g><g><g><g><path fill="#01b7ff" d="M32.211 16.196h-.026c-1.835.015-3.315 1.601-3.3 3.536.017 1.925 1.508 3.48 3.331 3.48h.027c.9-.007 1.74-.386 2.364-1.067.61-.665.943-1.542.935-2.468-.016-1.926-1.507-3.481-3.33-3.481z"/></g></g></g><g><g><g><path fill="#01b7ff" d="M15.784 16.196h-.026c-1.835.015-3.315 1.601-3.3 3.536.016 1.925 1.508 3.48 3.331 3.48h.027c.9-.007 1.74-.386 2.364-1.067.61-.665.942-1.542.935-2.468-.016-1.926-1.508-3.481-3.33-3.481z"/></g></g></g><g><g><g><path fill="#fff" d="M24.042 15.65c-2.116 0-3.837 1.819-3.837 4.054 0 1.616.9 3.013 2.197 3.664a3.641 3.641 0 0 0 3.28 0c1.297-.65 2.196-2.048 2.196-3.664 0-2.235-1.72-4.053-3.836-4.053z"/></g></g></g></g></g></g></svg>