<svg xmlns="http://www.w3.org/2000/svg" width="48" height="48" viewBox="0 0 48 48"><g><g><g><g><g><g><g><g><g><g><g><g><g><g><path fill="#015d96" d="M0 24C0 10.745 10.745 0 24 0s24 10.745 24 24-10.745 24-24 24S0 37.255 0 24z"/></g></g></g></g></g></g></g></g></g></g></g></g><g><g><path fill="#fff" d="M28.664 22.441a3.11 3.11 0 1 1 0-6.22 3.11 3.11 0 0 1 0 6.22zm9.331-4.977h-2.101a7.419 7.419 0 0 0-.799-1.925l1.487-1.487-2.64-2.64-1.486 1.487a7.419 7.419 0 0 0-1.926-.799V10h-3.733V12.1a7.418 7.418 0 0 0-1.925.8l-1.487-1.487-2.64 2.639 1.487 1.487a7.419 7.419 0 0 0-.799 1.925h-2.101v3.733h2.101c.177.685.448 1.332.8 1.926l-1.488 1.486 2.64 2.64 1.487-1.487c.594.351 1.24.623 1.925.799v2.101h3.733v-2.1a7.417 7.417 0 0 0 1.926-.8l1.486 1.487 2.64-2.64-1.487-1.486c.351-.594.623-1.241.799-1.926h2.101z"/></g><g><path fill="#01b7ff" d="M16.221 33.847a2.074 2.074 0 1 1 0-4.148 2.074 2.074 0 0 1 0 4.148zm4.287-4.601l.992-.992-1.76-1.76-.991.992a4.947 4.947 0 0 0-1.284-.533v-1.401h-2.488v1.401c-.457.118-.887.3-1.283.533l-.992-.991-1.76 1.759.992.992a4.942 4.942 0 0 0-.533 1.283H10v2.488h1.401c.118.457.3.888.533 1.284l-.992.992 1.76 1.759.992-.992c.396.234.826.416 1.283.533v1.401h2.488v-1.4c.457-.118.888-.3 1.284-.534l.992.992 1.759-1.76-.992-.991c.234-.396.416-.827.533-1.284h1.401V30.53h-1.4a4.944 4.944 0 0 0-.534-1.283z"/></g></g></g></g></svg>