<svg xmlns="http://www.w3.org/2000/svg" width="118" height="102" viewBox="0 0 118 102"><g><g><path fill="#fff" d="M117.174 7.115c-8.682-.247-32.113.756-52.628 16.595a63.183 63.183 0 0 1 4.971 5.573c5.39-3.942 11.336-6.813 17.377-8.685 12.105-4.038 24.46-4.644 30.28-4.673v6.615c-1.09.01-2.39.042-3.881.116-7.807.4-24.761 2.368-37.27 10.89-.74.497-1.494 1.01-2.243 1.551a126.214 126.214 0 0 1 3.954 6.1 42.002 42.002 0 0 1 14.76-6.975c9.181-2.711 19.485-3.14 24.68-3.163v6.987c-.47.025-.974.048-1.522.083-5.202.26-21.944 1.449-31.062 7.397-1.029.647-2.112 1.304-3.221 2.054a113.114 113.114 0 0 1 3.218 6.628c3.708-3.134 8.271-5.474 13.515-6.365 6.333-1.432 14.553-1.654 19.072-1.647v7.432c-4.256.173-18.742.763-24.024 3.878-1.577.875-3.564 1.542-5.826 3.526a84.35 84.35 0 0 1 2.583 8.58c2.576-3.873 7.108-7.722 13.797-8.145 3.634-.234 9.72-.205 13.47-.15v7.682c-4.887-.061-13.778-.093-15.45.487-1.276.433-3.808-.128-7.15 5.1-1.981 3.101-2.645 5.74-3.04 7.499-.124.554-.169 4.224-.198 8.268l.068 11.147h-6.737c-.042-2.73-.253-17.361.006-20.018.051-.189.103-.369.15-.548l-.022-3.689s-.5-3.99-2.333-10.095c-1.846 3.05-2.939 5.845-3.711 8.102-1.372 3.163-1.814 8.243-1.92 11.874.02 5.442.058 12.948.064 14.374h-6.733c0-1.926-.023-9.342-.048-12.445-.01-1.609.003-3.743.176-6.015-.003-1.1-.01-1.866-.01-2.074 0-.993-.666-7.153-3.394-14.72a69.65 69.65 0 0 0-.926 2.166c-2.532 5.625-3.4 11.817-3.612 15.064.016.66.022 1.208.02 1.615-.017 2.208.019 14.601.025 16.409h-6.737c.007-2.535.032-14.015.02-16.134-.004-.477 0-1.147.035-1.964-.19-3.18-1.039-9.525-3.632-15.268a66.714 66.714 0 0 0-.81-1.914c-2.814 7.705-3.5 14.019-3.503 15.025l-.007 1.545c.167 2.262.176 4.387.17 5.996-.026 3.288-.045 11.42-.045 12.714h-6.73c.01-2.01.038-9.403.064-14.592-.1-3.634-.551-8.746-1.92-11.929-.766-2.211-1.827-4.935-3.602-7.922-1.923 6.313-2.452 10.46-2.452 10.46l-.013 3.151c.048.176.096.35.144.539.27 2.768.033 18.575 0 20.293h-6.733l.067-11.14c-.016-4.157-.074-7.984-.198-8.551-.391-1.756-1.052-4.4-3.032-7.503-3.343-5.227-5.875-4.66-7.144-5.096-1.683-.583-10.65-.548-15.515-.483v-7.683c3.746-.057 9.88-.086 13.525.145 6.772.432 11.339 4.374 13.903 8.294.599-2.436 1.442-5.32 2.63-8.602-2.326-2.083-4.367-2.756-5.983-3.647-5.304-3.132-19.9-3.718-24.075-3.885v-7.432c4.5-.003 12.768.212 19.133 1.647 5.327.907 9.948 3.311 13.688 6.516.952-2.109 2.026-4.32 3.26-6.634-1.192-.808-2.343-1.5-3.442-2.199-9.115-5.948-25.86-7.134-31.066-7.4-.567-.032-1.083-.051-1.573-.077v-6.983c5.173.016 15.521.435 24.735 3.156a41.99 41.99 0 0 1 14.987 7.15 132.423 132.423 0 0 1 3.983-6.086 98.13 98.13 0 0 0-2.493-1.737c-12.522-8.521-29.47-10.49-37.27-10.89a83.957 83.957 0 0 0-3.942-.115v-6.618c5.788.028 18.194.621 30.338 4.675 6.14 1.907 12.182 4.843 17.643 8.888a65.038 65.038 0 0 1 5.012-5.538C33.183 7.57 9.495 6.589.826 6.836V.5C10.412.551 38.227 2.218 59.2 18.954 80.084 2.506 107.58.834 117.174.779v6.336M59.168 28.271a77.052 77.052 0 0 0-5.156 5.33 52.542 52.542 0 0 1 5.13 5.656 52.916 52.916 0 0 1 5.16-5.637 73.582 73.582 0 0 0-5.134-5.35zM45.964 61.926c.43-1.074.888-2.148 1.372-3.225a55.202 55.202 0 0 0-2.208-3.253 33.642 33.642 0 0 0-3.205-3.836 94.163 94.163 0 0 0-3.475 7.663c.074.103.151.205.225.311.157.208.304.423.448.635 1.94 2.83 3.391 5.224 4.61 7.823.598-1.91 1.323-3.958 2.233-6.118m4.756-9.974a95.05 95.05 0 0 1 4.35-7.06 48.837 48.837 0 0 0-5.462-5.808 88.721 88.721 0 0 0-4.198 6.269 42.67 42.67 0 0 1 3.586 4.173c.183.243.356.5.541.75.404.567.799 1.121 1.183 1.676m8.362 15.922a64.289 64.289 0 0 1 4.41-9.55 74.947 74.947 0 0 0-4.375-7.776 74.303 74.303 0 0 0-4.407 7.76c1.75 3.127 3.141 6.21 4.372 9.566m17.236-16.172a34.476 34.476 0 0 0-3.391 4.025 54.465 54.465 0 0 0-2.054 3.026c.43.97.833 1.935 1.22 2.897a67.606 67.606 0 0 1 2.334 6.452c1.202-2.51 2.622-4.85 4.516-7.603a15.23 15.23 0 0 1 .817-1.144 97.138 97.138 0 0 0-3.442-7.653m-7.628-12.56a49.302 49.302 0 0 0-5.496 5.775 98.444 98.444 0 0 1 4.31 7.064 101.071 101.071 0 0 1 1.561-2.18 43.15 43.15 0 0 1 3.792-4.387 90.383 90.383 0 0 0-4.167-6.272"/></g></g></svg>